<?xml version="1.0" encoding="UTF-8" standalone="no"?>
<svg
   viewBox="0 0 205 25.85"
   version="1.1"
   id="svg20"
   sodipodi:docname="gsoc-white.svg"
   inkscape:version="1.1.1 (26b7af14f2, 2022-01-19)"
   xmlns:inkscape="http://www.inkscape.org/namespaces/inkscape"
   xmlns:sodipodi="http://sodipodi.sourceforge.net/DTD/sodipodi-0.dtd"
   xmlns="http://www.w3.org/2000/svg"
   xmlns:svg="http://www.w3.org/2000/svg">
  <defs
     id="defs24" />
  <sodipodi:namedview
     id="namedview22"
     pagecolor="#ffffff"
     bordercolor="#666666"
     borderopacity="1.0"
     inkscape:pageshadow="2"
     inkscape:pageopacity="0.0"
     inkscape:pagecheckerboard="0"
     showgrid="false"
     inkscape:zoom="6.5268293"
     inkscape:cx="102.42339"
     inkscape:cy="12.946562"
     inkscape:window-width="1848"
     inkscape:window-height="1016"
     inkscape:window-x="72"
     inkscape:window-y="27"
     inkscape:window-maximized="1"
     inkscape:current-layer="svg20" />
  <style
     id="style2">.starOuter{fill:#f9ab00}.starCenter{fill:#e37400}.starGlyphs{fill:#fff}.text{fill:#1a2430}</style>
  <g
     id="wrapper">
    <g
       id="Logo">
      <path
         class="starOuter"
         d="m10.68 21.82 3.68 3.68 3.69-3.68h5.2v-5.21l3.69-3.68-3.69-3.69V4H18L14.36.35l-1 1-1.89 1.89-.79.76H5.47v5.24l-3.68 3.69 2.89 2.89.79.79v5.21h5.21z"
         id="path4" />
      <path
         class="starCenter"
         d="M21.63 12.93a7.27 7.27 0 1 1-7.27-7.27 7.26 7.26 0 0 1 7.27 7.25v.02z"
         id="path6" />
      <path
         transform="rotate(-74.901 14.413 12.739)"
         class="starGlyphs"
         d="M10.974 12.229h6.88v1.02h-6.88z"
         id="path8" />
      <path
         class="starGlyphs"
         d="m11.85 10.39.76.68-1.5 1.68 1.5 1.67-.76.68-2.11-2.36 2.11-2.35zM16.88 10.38 19 12.73l-2.11 2.35-.76-.68 1.5-1.67-1.5-1.67.75-.68z"
         id="path10" />
    </g>
    <g
       id="Summer_of_code">
      <path
         class="text"
         d="M91 18.33a3.835 3.835 0 0 1-1.33-1 4 4 0 0 1-.83-1.58l1.16-.47c.155.603.481 1.149.94 1.57.44.394 1.01.611 1.6.61a2.539 2.539 0 0 0 1.59-.5 1.64 1.64 0 0 0 .64-1.37 1.551 1.551 0 0 0-.55-1.23 5.09 5.09 0 0 0-1.78-.91l-.67-.24a5.216 5.216 0 0 1-1.86-1.06 2.33 2.33 0 0 1-.71-1.82c-.001-.5.141-.989.41-1.41a2.998 2.998 0 0 1 1.16-1 3.549 3.549 0 0 1 1.67-.39 3.71 3.71 0 0 1 1.62.34c.423.202.801.488 1.11.84.249.294.439.634.56 1l-1.18.51a2.05 2.05 0 0 0-2.08-1.52 2.254 2.254 0 0 0-1.41.46c-.367.277-.582.71-.58 1.17-.001.391.18.761.49 1 .455.329.962.579 1.5.74l.69.24a6.002 6.002 0 0 1 2.13 1.24 2.65 2.65 0 0 1 .76 2 2.759 2.759 0 0 1-.53 1.73 3.119 3.119 0 0 1-1.33 1 4.4 4.4 0 0 1-1.68.33 3.72 3.72 0 0 1-1.51-.28zM98.06 17.88a3.196 3.196 0 0 1-.71-2.2V11h1.28v4.45c0 1.37.61 2 1.83 2 .395.004.78-.119 1.1-.35.326-.223.585-.531.75-.89.171-.366.26-.766.26-1.17V11h1.26v7.41h-1.2v-1.09h-.06a2.681 2.681 0 0 1-1 1 2.8 2.8 0 0 1-1.43.39 2.7 2.7 0 0 1-2.08-.83zM105.69 11h1.21v1.1h.1c.24-.402.586-.731 1-.95a2.68 2.68 0 0 1 1.35-.39 2.636 2.636 0 0 1 1.45.39c.396.264.7.645.87 1.09.27-.44.64-.81 1.08-1.08a2.815 2.815 0 0 1 1.51-.4 2.369 2.369 0 0 1 2 .79 3.32 3.32 0 0 1 .66 2.18v4.68h-1.27V14a2.369 2.369 0 0 0-.41-1.56 1.582 1.582 0 0 0-1.26-.46 1.68 1.68 0 0 0-1 .34 2.28 2.28 0 0 0-.71.88 2.76 2.76 0 0 0-.25 1.17v4.11h-1.26V14a2.321 2.321 0 0 0-.41-1.56 1.612 1.612 0 0 0-1.26-.46c-.362 0-.713.119-1 .34a2.33 2.33 0 0 0-.7.9 2.78 2.78 0 0 0-.26 1.18v4.08h-1.27l-.17-7.48zM118.6 11h1.22v1.1h.06a2.46 2.46 0 0 1 1-.95c.41-.249.88-.384 1.36-.39a2.628 2.628 0 0 1 1.44.39c.396.264.7.645.87 1.09.27-.44.64-.81 1.08-1.08a2.815 2.815 0 0 1 1.51-.4 2.41 2.41 0 0 1 2 .79c.463.629.693 1.4.65 2.18v4.68h-1.27V14a2.321 2.321 0 0 0-.41-1.56 1.582 1.582 0 0 0-1.26-.46 1.629 1.629 0 0 0-1 .34 2.126 2.126 0 0 0-.71.88c-.171.366-.26.766-.26 1.17v4.11h-1.25V14a2.312 2.312 0 0 0-.42-1.56 1.612 1.612 0 0 0-1.26-.46c-.362 0-.713.119-1 .34a2.33 2.33 0 0 0-.7.9c-.169.37-.254.773-.25 1.18v4.08h-1.4V11zM132.9 18.16a3.562 3.562 0 0 1-1.32-1.4 4.27 4.27 0 0 1-.48-2 4.438 4.438 0 0 1 .45-2 3.439 3.439 0 0 1 3.18-2 3.639 3.639 0 0 1 1.89.48c.541.326.975.802 1.25 1.37.293.625.44 1.309.43 2 .014.099.014.201 0 .3h-5.89c.003.499.145.987.41 1.41.227.365.548.663.93.86.358.188.756.288 1.16.29a2.38 2.38 0 0 0 2.17-1.38l1.12.54a3.759 3.759 0 0 1-1.33 1.44 3.571 3.571 0 0 1-2 .55 3.633 3.633 0 0 1-1.97-.46zm4.1-4.26a2.369 2.369 0 0 0-.26-.9 1.999 1.999 0 0 0-.72-.76 2.379 2.379 0 0 0-1.28-.31 2.122 2.122 0 0 0-1.45.54 2.41 2.41 0 0 0-.78 1.43H137zM139.74 11H141v1.21a2 2 0 0 1 .85-1 2.33 2.33 0 0 1 2.16-.27v1.36a2.081 2.081 0 0 0-1-.23 1.751 1.751 0 0 0-1 .31 2.31 2.31 0 0 0-.73.82c-.178.34-.274.716-.28 1.1v4.13h-1.27l.01-7.43zM150.09 18.15a3.49 3.49 0 0 1-1.35-1.42 4.212 4.212 0 0 1-.49-2 4.273 4.273 0 0 1 .49-2 3.622 3.622 0 0 1 1.35-1.42 4 4 0 0 1 3.92 0 3.573 3.573 0 0 1 1.36 1.42c.329.615.497 1.303.49 2a4.104 4.104 0 0 1-.49 2 3.452 3.452 0 0 1-1.37 1.42 4 4 0 0 1-3.92 0h.01zm3.21-1c.4-.24.726-.586.94-1 .239-.456.359-.965.35-1.48a2.998 2.998 0 0 0-.35-1.47 2.618 2.618 0 0 0-.94-1 2.451 2.451 0 0 0-2.49 0 2.618 2.618 0 0 0-.94 1c-.24.452-.361.958-.35 1.47a3.072 3.072 0 0 0 .35 1.48c.214.414.54.76.94 1a2.388 2.388 0 0 0 2.49 0zM157.94 12.17h-1.39V11h1.39v-1a2.36 2.36 0 0 1 .32-1.26c.205-.35.503-.638.86-.83a2.614 2.614 0 0 1 1.22-.29c.203-.018.407-.018.61 0 .163.035.323.082.48.14V9a2.272 2.272 0 0 0-1-.24 1.15 1.15 0 0 0-.84.35 1.343 1.343 0 0 0-.34 1V11h1.91v1.15h-1.91v6.26h-1.27l-.04-6.24zM168.22 17.94a5.319 5.319 0 0 1-2-2 6 6 0 0 1 0-5.68 5.319 5.319 0 0 1 2-2 5.484 5.484 0 0 1 2.78-.77 5.134 5.134 0 0 1 2.2.46 4.905 4.905 0 0 1 1.71 1.29l-.89.88A3.864 3.864 0 0 0 172.71 9a4.07 4.07 0 0 0-1.71-.3 4.168 4.168 0 0 0-2.12.55c-.65.36-1.186.893-1.55 1.54a4.5 4.5 0 0 0-.58 2.29 4.5 4.5 0 0 0 .58 2.29c.364.647.9 1.18 1.55 1.54a4.29 4.29 0 0 0 5.44-1.05l.91.9a5.299 5.299 0 0 1-1.83 1.39 5.439 5.439 0 0 1-2.4.52 5.574 5.574 0 0 1-2.78-.73zM177.92 18.15a3.58 3.58 0 0 1-1.36-1.42 4.208 4.208 0 0 1-.48-2 4.255 4.255 0 0 1 .48-2 3.703 3.703 0 0 1 1.36-1.42 3.761 3.761 0 0 1 2-.51 3.829 3.829 0 0 1 2 .51 3.64 3.64 0 0 1 1.36 1.42c.324.617.492 1.303.49 2a4.212 4.212 0 0 1-.49 2 3.514 3.514 0 0 1-1.36 1.42 3.739 3.739 0 0 1-2 .52 3.67 3.67 0 0 1-2-.52zm3.21-1c.4-.237.722-.584.93-1 .242-.455.362-.965.35-1.48a2.931 2.931 0 0 0-.35-1.47 2.515 2.515 0 0 0-.93-1 2.47 2.47 0 0 0-2.5 0 2.585 2.585 0 0 0-.93 1c-.24.452-.361.958-.35 1.47a3.072 3.072 0 0 0 .35 1.48c.211.413.533.76.93 1a2.41 2.41 0 0 0 2.5 0zM186.46 18.16a3.718 3.718 0 0 1-1.28-1.41 4.511 4.511 0 0 1 0-4.05 3.718 3.718 0 0 1 1.28-1.41 3.254 3.254 0 0 1 1.77-.51 3.185 3.185 0 0 1 1.55.38c.412.222.757.55 1 .95h.06l-.06-1V7.73h1.26v10.7h-1.2v-1.11h-.06a2.681 2.681 0 0 1-1 1 3.258 3.258 0 0 1-3.32-.16zm3.18-1c.387-.243.699-.589.9-1a3.481 3.481 0 0 0 0-3 2.421 2.421 0 0 0-.9-1 2.264 2.264 0 0 0-1.22-.34 2.284 2.284 0 0 0-1.22.34c-.382.246-.69.592-.89 1a2.994 2.994 0 0 0-.34 1.47 3.08 3.08 0 0 0 .34 1.48c.196.411.504.758.89 1a2.3 2.3 0 0 0 1.22.35c.425.023.848-.074 1.22-.28v-.02zM195.24 18.16a3.625 3.625 0 0 1-1.32-1.4 4.27 4.27 0 0 1-.48-2 4.438 4.438 0 0 1 .45-2c.287-.585.73-1.08 1.28-1.43a3.485 3.485 0 0 1 1.9-.53 3.696 3.696 0 0 1 1.9.48c.538.326.969.802 1.24 1.37.296.625.447 1.309.44 2 .014.099.014.201 0 .3h-5.89c0 .498.139.986.4 1.41.228.368.553.666.94.86.355.187.749.287 1.15.29a2.38 2.38 0 0 0 2.17-1.38l1.12.54a3.8 3.8 0 0 1-1.32 1.44 3.614 3.614 0 0 1-2 .55 3.686 3.686 0 0 1-1.98-.5zm4.06-4.26a2.338 2.338 0 0 0-.25-.9 2.003 2.003 0 0 0-.73-.76 2.342 2.342 0 0 0-1.27-.31 2.101 2.101 0 0 0-1.45.54 2.41 2.41 0 0 0-.78 1.43h4.48z"
         id="path13" />
    </g>
    <g
       id="Google">
      <path
         class="text"
         d="M39.77 6.15h.44a6 6 0 0 1 4.1 1.73l-1.19 1.2a4.49 4.49 0 0 0-6.34.18 4.56 4.56 0 0 0-1.19 2.53 4.621 4.621 0 0 0 1 3.56 4.47 4.47 0 0 0 3.24 1.59 4.298 4.298 0 0 0 3.17-1.1 3.47 3.47 0 0 0 1.07-2.29H40v-1.71h5.8a5.882 5.882 0 0 1-1.53 5.21 5.682 5.682 0 0 1-3.52 1.58A6.47 6.47 0 0 1 37 17.9a6.364 6.364 0 0 1-3-3.37 6.192 6.192 0 0 1 0-4.14 6.392 6.392 0 0 1 2.28-3 6.584 6.584 0 0 1 3.49-1.24zM73 6.58h1.77v11.84H73V6.58zM49.72 10.68a4.239 4.239 0 0 1 3.19.68 3.91 3.91 0 0 1 1.56 2.49 4 4 0 0 1-3.11 4.74 4.507 4.507 0 0 1-1.1.07 4.079 4.079 0 0 1-3-1.62 4.13 4.13 0 0 1-.54-3.76 3.999 3.999 0 0 1 3-2.6m.28 1.58c-.454.121-.859.38-1.16.74a2.63 2.63 0 0 0 .13 3.42 2.22 2.22 0 0 0 3.52-.52 2.62 2.62 0 0 0-.49-3.12 2.23 2.23 0 0 0-2-.52zM58.51 10.68a4 4 0 0 1 3.94 6.49 4.09 4.09 0 0 1-5.757.561l-.013-.011a4 4 0 0 1-1.17-4.52 3.94 3.94 0 0 1 3-2.52m.25 1.58a2.27 2.27 0 0 0-1.16.74 2.63 2.63 0 0 0 .09 3.39 2.21 2.21 0 0 0 2 .65 2.23 2.23 0 0 0 1.54-1.13 2.649 2.649 0 0 0-.46-3.13 2.21 2.21 0 0 0-2-.51l-.01-.01zM66 11.16a3.39 3.39 0 0 1 3.25-.24c.319.152.607.363.85.62v-.69h1.68v7.31a4.352 4.352 0 0 1-1.09 3.07 3.94 3.94 0 0 1-3.4 1 3.85 3.85 0 0 1-2.91-2.31c.5-.24 1-.43 1.54-.65a2.278 2.278 0 0 0 1.61 1.39 2.149 2.149 0 0 0 2.04-.66 3.359 3.359 0 0 0 .49-2.26 3 3 0 0 1-1.36.83 3.63 3.63 0 0 1-3.3-.85 4.08 4.08 0 0 1-.422-5.755L65 11.94c.269-.299.578-.558.92-.77m1.72 1.06c-.509.087-.97.353-1.3.75a2.63 2.63 0 0 0 0 3.32 2.19 2.19 0 0 0 1.87.77A2.101 2.101 0 0 0 69.83 16a2.79 2.79 0 0 0-.28-3.13 1.999 1.999 0 0 0-1.87-.65l-.04.01zM76.91 11.59a3.769 3.769 0 0 1 3.81-.76 4.29 4.29 0 0 1 2.37 2.8l-5.39 2.23c.231.488.638.871 1.14 1.07a2.29 2.29 0 0 0 2.16-.31c.231-.189.436-.408.61-.65.46.3.92.6 1.37.91A4.06 4.06 0 0 1 77.37 18a4.12 4.12 0 0 1-.77-.68 4.25 4.25 0 0 1 .31-5.69m.89 1.53a2.371 2.371 0 0 0-.39 1.39L81 13a1.491 1.491 0 0 0-1.16-.82 2.13 2.13 0 0 0-2 .93l-.04.05z"
         id="path16" />
    </g>
  </g>
  <path
     style="fill:#ffffff;stroke-width:0.153214"
     d="m 58.017873,18.323579 c -0.950824,-0.328381 -1.928871,-1.199136 -2.339573,-2.082921 -0.399767,-0.860254 -0.385911,-2.330577 0.03031,-3.216044 0.875351,-1.862227 2.975723,-2.781405 4.897265,-2.143172 1.485183,0.493299 2.748014,2.181599 2.748014,3.673864 0,1.553773 -1.375584,3.362481 -2.900566,3.813852 -1.051127,0.311118 -1.422771,0.304162 -2.435447,-0.04558 z m 2.417769,-1.466352 c 0.50607,-0.261699 0.999249,-1.005674 1.155334,-1.742857 0.220239,-1.040182 -0.484012,-2.44078 -1.402953,-2.790161 -0.596591,-0.226823 -1.571503,-0.168192 -2.068651,0.124408 -1.494098,0.879366 -1.493513,3.589494 9.5e-4,4.401208 0.532588,0.289273 1.762636,0.293206 2.315319,0.0074 z"
     id="path174" />
  <path
     style="fill:#ffffff;stroke-width:0.153214"
     d="m 49.467314,18.448612 c -0.966602,-0.280143 -1.941234,-1.090478 -2.404264,-1.99897 -1.254054,-2.460525 0.236828,-5.320884 2.984737,-5.72642 1.490877,-0.220024 3.255085,0.717141 4.000097,2.124892 0.471359,0.890663 0.474269,2.671609 0.0058,3.556209 -0.870826,1.6444 -2.878489,2.539276 -4.586382,2.044289 z m 2.267574,-1.633403 c 0.697151,-0.410314 1.091025,-1.163809 1.091025,-2.087167 0,-0.875545 -0.267521,-1.511689 -0.873992,-2.078283 -0.567484,-0.53017 -1.948445,-0.617311 -2.664304,-0.168121 -0.585802,0.36758 -1.095162,1.367675 -1.095162,2.150275 0,0.788576 0.509082,1.783931 1.095162,2.141255 0.641611,0.39118 1.819676,0.411418 2.447271,0.04204 z"
     id="path213" />
  <path
     style="fill:#ffffff;stroke-width:0.153214"
     d="m 38.609865,18.40906 c -1.8623,-0.485972 -3.456398,-1.750257 -4.289985,-3.402399 -0.423688,-0.839737 -0.459641,-1.036832 -0.459641,-2.51974 0,-1.427066 0.04665,-1.708281 0.413047,-2.4901288 0.507097,-1.0820729 1.707377,-2.3787693 2.703988,-2.9211928 1.094158,-0.5955154 2.531223,-0.9242604 3.567025,-0.8159977 1.126335,0.1177253 2.379316,0.5929382 3.048288,1.1561116 L 44.125561,7.864396 43.60599,8.4050028 43.08642,8.9456097 42.595266,8.5709881 C 42.325131,8.3649462 41.646269,8.0833827 41.086684,7.9452913 39.844883,7.6388462 38.680502,7.8152162 37.619267,8.4705045 c -3.169686,1.9572075 -2.659511,7.0870635 0.82064,8.2516195 1.742552,0.583107 3.686054,0.157892 4.771928,-1.044041 0.569687,-0.630575 0.72871,-0.948569 0.887109,-1.773935 l 0.09556,-0.497945 h -2.064556 -2.064555 v -0.766068 -0.766069 h 2.820987 2.820988 l 0.09523,0.574551 c 0.11678,0.704585 -0.11358,1.971725 -0.529302,2.911534 -0.818032,1.849298 -2.600687,3.041939 -4.748259,3.176706 -0.690645,0.04334 -1.454741,-0.0076 -1.915172,-0.127797 z"
     id="path252" />
  <path
     style="fill:#ffffff;stroke-width:0.153214"
     d="m 66.241675,21.753921 c -0.700784,-0.364974 -1.662079,-1.349844 -1.662079,-1.70284 0,-0.09896 0.189602,-0.248563 0.421338,-0.332455 0.231736,-0.08389 0.526323,-0.195419 0.654639,-0.247838 0.154607,-0.06316 0.321792,0.0545 0.495651,0.348818 0.531113,0.899103 2.035733,1.215779 2.995701,0.630502 0.606898,-0.370015 0.948366,-1.112355 0.948366,-2.061711 v -0.696556 l -0.574551,0.374905 c -0.770295,0.502633 -1.545959,0.621917 -2.521814,0.387813 -0.651667,-0.156333 -0.969713,-0.357939 -1.657178,-1.050468 -0.91099,-0.9177 -1.221793,-1.622895 -1.221793,-2.772178 0,-1.881814 1.399567,-3.556358 3.253522,-3.892752 0.666403,-0.120917 1.701485,0.122805 2.28442,0.537891 0.513811,0.365866 0.590608,0.363806 0.590608,-0.01584 0,-0.265571 0.102143,-0.306428 0.766069,-0.306428 h 0.766069 l -0.0031,3.409006 c -0.0042,4.693489 -0.196163,5.781452 -1.198681,6.795099 -1.02073,1.03206 -2.98155,1.30107 -4.337207,0.595033 z M 69.3383,16.669149 c 1.224791,-1.030593 1.224791,-3.043878 0,-4.074472 -0.630219,-0.530294 -1.778985,-0.5763 -2.546452,-0.101979 -0.593028,0.366512 -1.141162,1.403211 -1.13639,2.149285 0.005,0.78312 0.517175,1.776744 1.098526,2.131185 0.775678,0.472918 1.955082,0.425447 2.584316,-0.104019 z"
     id="path291" />
  <path
     style="fill:#ffffff;stroke-width:0.153214"
     d="M 73.006353,12.486921 V 6.6647982 h 0.842675 0.842676 v 5.8221228 5.822122 h -0.842676 -0.842675 z"
     id="path330" />
  <path
     style="fill:#ffffff;stroke-width:0.153214"
     d="m 78.577926,18.448612 c -0.910503,-0.263884 -1.936623,-1.093218 -2.347666,-1.897437 -0.508877,-0.995635 -0.550757,-2.743037 -0.08811,-3.676139 1.115805,-2.250423 3.724879,-2.856201 5.514995,-1.280478 0.744436,0.65528 1.421866,1.76255 1.205601,1.970578 -0.07003,0.06736 -1.264936,0.588078 -2.655351,1.157148 -1.390415,0.56907 -2.550849,1.051418 -2.578744,1.071884 -0.139673,0.102478 0.358411,0.728265 0.788261,0.990364 0.776925,0.473725 1.903217,0.405808 2.687102,-0.162036 l 0.636167,-0.460837 0.534027,0.345927 c 0.293716,0.19026 0.534881,0.392264 0.535924,0.448898 0.001,0.05663 -0.288113,0.351209 -0.642569,0.65461 -0.993916,0.850755 -2.406666,1.180372 -3.589641,0.837518 z m 0.819425,-4.660854 c 1.530236,-0.649636 1.701471,-0.760183 1.566929,-1.011577 -0.224078,-0.418695 -0.74577,-0.644389 -1.46439,-0.633525 -0.787036,0.0119 -1.162348,0.204149 -1.648173,0.844267 -0.448585,0.591051 -0.723967,1.742649 -0.38555,1.612297 0.117263,-0.04517 0.986296,-0.410325 1.931184,-0.811462 z"
     id="path369" />
  <path
     style="fill:#ffffff;stroke-width:0.153214"
     d="m 90.929446,18.163553 c -0.710239,-0.375642 -1.336501,-1.014987 -1.708527,-1.744217 -0.165942,-0.325274 -0.279666,-0.605239 -0.252721,-0.622144 0.117864,-0.07395 0.912658,-0.39921 0.975484,-0.39921 0.03817,0 0.0694,0.09307 0.0694,0.206833 0,0.440176 0.898788,1.437046 1.519622,1.685455 0.835637,0.334355 1.464537,0.318823 2.237278,-0.05525 0.759204,-0.367524 1.06564,-0.875377 1.032323,-1.710857 -0.04407,-1.105202 -0.421581,-1.410571 -3.027265,-2.448773 -2.032664,-0.80989 -2.822682,-1.911878 -2.394702,-3.3403469 0.398724,-1.3308221 1.493339,-2.0630174 3.084164,-2.0630174 1.236312,0 2.106987,0.4168104 2.763328,1.3228632 l 0.461015,0.6364122 -0.480583,0.20207 c -0.46856,0.1970149 -0.495038,0.1857809 -1.058407,-0.4490567 -0.57664,-0.6497913 -0.580039,-0.6511265 -1.657776,-0.6511265 -0.98605,0 -1.120793,0.039128 -1.549654,0.4500027 -0.38352,0.3674355 -0.469702,0.5725892 -0.469702,1.1181154 0,0.804394 0.422658,1.270472 1.508631,1.663618 2.309656,0.836145 3.282874,1.47013 3.713949,2.419386 0.720501,1.586593 -0.09527,3.320613 -1.836437,3.903578 -0.805541,0.269705 -2.304703,0.206077 -2.929417,-0.124331 z"
     id="path408" />
  <path
     style="fill:#ffffff;stroke-width:0.153214"
     d="M 99.052769,18.443342 C 98.55105,18.24328 98.012144,17.731715 97.700774,17.15994 97.502146,16.795197 97.438869,16.123005 97.394291,13.904148 l -0.05618,-2.796151 h 0.617796 0.617797 l 0.04797,2.75475 c 0.04777,2.7428 0.04973,2.756499 0.451279,3.15767 0.840302,0.8395 2.416357,0.57267 3.155857,-0.534293 0.32505,-0.486571 0.34779,-0.679369 0.34779,-2.949365 v -2.428762 h 0.61285 0.61286 v 3.600523 3.600523 h -0.53625 c -0.51071,0 -0.53625,-0.02553 -0.53625,-0.536248 0,-0.638149 -0.0852,-0.664029 -0.49038,-0.148939 -0.6596,0.838556 -2.16683,1.226154 -3.186668,0.819486 z"
     id="path447" />
  <path
     style="fill:#ffffff;stroke-width:0.153214"
     d="m 105.8951,16.278961 c -0.0549,-1.200813 -0.10014,-2.855521 -0.10044,-3.67713 l -5.6e-4,-1.493834 h 0.53624 c 0.51072,0 0.53625,0.02554 0.53625,0.536248 0,0.294937 0.0248,0.536248 0.0552,0.536248 0.0303,0 0.30906,-0.239442 0.61936,-0.532094 1.12476,-1.060789 2.52171,-1.069311 3.53884,-0.02159 l 0.61286,0.631286 0.54689,-0.547395 c 0.9676,-0.968482 2.51616,-1.159495 3.53258,-0.435741 0.89355,0.636264 1.04605,1.262991 1.04982,4.314539 l 0.003,2.719544 h -0.53625 -0.53625 l -2.4e-4,-2.489723 c -2.6e-4,-2.730537 -0.15392,-3.358801 -0.91904,-3.757607 -0.46925,-0.244589 -1.40867,-0.150574 -1.93385,0.193535 -0.77245,0.506125 -0.97014,1.291832 -0.97385,3.870499 l -0.003,2.33651 h -0.53625 -0.53625 v -2.658583 c 0,-2.504153 -0.02,-2.688137 -0.34473,-3.167373 -0.88146,-1.300958 -2.8021,-0.786439 -3.30282,0.88479 -0.10418,0.347749 -0.18279,1.541381 -0.18279,2.775646 v 2.16552 h -0.51242 -0.51242 z"
     id="path486" />
  <path
     style="fill:#ffffff;stroke-width:0.153214"
     d="m 118.66405,14.785127 v -3.67713 h 0.53625 c 0.51071,0 0.53625,0.02554 0.53625,0.536248 0,0.294937 0.0248,0.536248 0.0552,0.536248 0.0303,0 0.30906,-0.239442 0.61936,-0.532094 1.13018,-1.065899 2.52162,-1.069836 3.54941,-0.01004 l 0.62342,0.642834 0.55837,-0.565111 c 0.93706,-0.948391 2.53543,-1.172812 3.47707,-0.488203 0.21265,0.154601 0.54176,0.584687 0.73136,0.955747 0.31929,0.624872 0.34473,0.875753 0.34473,3.400036 v 2.725383 h -0.53625 -0.53625 l -2.3e-4,-2.489723 c -2.6e-4,-2.730537 -0.15393,-3.358801 -0.91905,-3.757607 -0.46925,-0.244589 -1.40867,-0.150574 -1.93385,0.193535 -0.77244,0.506125 -0.97013,1.291832 -0.97384,3.870499 l -0.003,2.33651 h -0.52658 -0.52657 l -0.048,-2.747153 c -0.0438,-2.510576 -0.0757,-2.784249 -0.36999,-3.177923 -0.71885,-0.961616 -2.2045,-0.815064 -2.93614,0.289636 -0.40672,0.614112 -0.42048,0.705732 -0.47046,3.134023 l -0.0515,2.501417 h -0.59968 -0.59967 z"
     id="path525" />
  <path
     style="fill:#ffffff;stroke-width:0.153214"
     d="m 133.9225,18.445811 c -1.67464,-0.397466 -2.69492,-1.817843 -2.69492,-3.75172 0,-1.450871 0.68903,-2.734789 1.82654,-3.403517 0.56956,-0.334838 0.89104,-0.412398 1.70939,-0.412398 0.85018,0 1.1259,0.07193 1.76196,0.459642 0.83711,0.510268 1.49139,1.601735 1.67615,2.796151 l 0.10073,0.651158 h -3.01819 -3.01819 l 0.10652,0.574552 c 0.16075,0.867035 0.63195,1.513237 1.36066,1.865997 1.12722,0.545677 2.2766,0.332856 3.02854,-0.560767 0.38517,-0.457746 0.38967,-0.458781 0.88409,-0.203104 l 0.49696,0.256985 -0.59141,0.609404 c -0.97912,1.008922 -2.33168,1.425486 -3.62883,1.117617 z m 3.06752,-4.916688 c -0.21681,-1.084062 -1.00163,-1.655593 -2.27191,-1.654485 -0.79463,6.94e-4 -1.5412,0.42322 -1.95922,1.108827 -0.61852,1.014448 -0.57744,1.035593 2.01176,1.035593 h 2.31735 z"
     id="path564" />
  <path
     style="fill:#ffffff;stroke-width:0.153214"
     d="m 139.80755,14.70852 v -3.600523 h 0.53625 c 0.52441,0 0.53624,0.01367 0.53624,0.619306 v 0.619307 l 0.57456,-0.602358 c 0.60705,-0.636431 1.41721,-0.958769 2.08765,-0.830607 0.34605,0.06615 0.40208,0.15442 0.40217,0.633551 l 9e-5,0.55669 -0.72786,-0.04477 c -0.94664,-0.05823 -1.63932,0.362119 -2.03572,1.235342 -0.24533,0.540439 -0.29471,1.01038 -0.29752,2.831289 l -0.003,2.183296 h -0.53624 -0.53625 z"
     id="path681" />
  <path
     style="fill:#ffffff;stroke-width:0.153214"
     d="m 150.80291,18.349636 c -1.43665,-0.535488 -2.27509,-1.722656 -2.38688,-3.37965 -0.1558,-2.309229 1.4046,-4.045845 3.6353,-4.045845 2.1384,0 3.69004,1.593226 3.68559,3.784379 -0.005,2.686665 -2.51873,4.541367 -4.93401,3.641116 z m 2.48745,-1.134564 c 1.3006,-0.792507 1.75782,-2.542781 1.03419,-3.958952 -0.57139,-1.118236 -1.64504,-1.641671 -2.8226,-1.37609 -1.21837,0.274789 -2.04194,1.41896 -2.04194,2.836857 0,2.140893 2.13331,3.532257 3.83035,2.498185 z"
     id="path720" />
  <path
     style="fill:#ffffff;stroke-width:0.153214"
     d="M 158.03999,15.168161 V 12.02728 h -0.68947 c -0.66392,0 -0.68946,-0.01702 -0.68946,-0.459642 0,-0.442617 0.0255,-0.459641 0.68946,-0.459641 h 0.68947 l 5.6e-4,-0.880979 c 0.001,-1.604093 0.92526,-2.5297154 2.45086,-2.4546046 0.8282,0.040776 0.84349,0.050009 0.89056,0.5378156 l 0.0479,0.4963277 -0.67079,-0.091943 c -0.56752,-0.077786 -0.73775,-0.034354 -1.10563,0.2820843 -0.35825,0.3081522 -0.44752,0.5270142 -0.50687,1.242663 l -0.072,0.868636 h 1.01486 1.01486 v 0.459641 0.459642 h -0.99589 -0.99589 v 3.140881 3.140882 h -0.53625 -0.53624 z"
     id="path759" />
  <path
     style="fill:#ffffff;stroke-width:0.153214"
     d="m 169.79852,18.458192 c -1.63879,-0.412048 -2.95486,-1.502969 -3.6918,-3.06021 -0.41117,-0.868851 -0.47129,-1.162016 -0.47129,-2.298206 0,-1.135437 0.0603,-1.429931 0.47058,-2.298206 1.1676,-2.4710133 3.85519,-3.737741 6.37568,-3.0050158 0.82018,0.2384339 2.09518,1.0523225 2.21392,1.4132458 0.0308,0.093604 -0.12593,0.2893886 -0.34828,0.4350774 -0.3933,0.2577014 -0.41528,0.2543434 -0.81003,-0.1237575 -0.59513,-0.5700287 -1.42699,-0.8645429 -2.44193,-0.8645429 -2.62535,0 -4.36734,1.775967 -4.37522,4.460564 -0.006,1.876519 0.74535,3.125631 2.40999,4.009167 0.49691,0.263744 0.89071,0.334756 1.85641,0.334756 1.3072,0 1.97624,-0.239645 2.94514,-1.054925 l 0.45804,-0.385413 0.3668,0.392221 0.36679,0.392221 -0.61286,0.521638 c -1.15193,0.980476 -3.27996,1.491438 -4.71194,1.131386 z"
     id="path798" />
  <path
     style="fill:#ffffff;stroke-width:0.153214"
     d="m 178.64154,18.380938 c -1.52005,-0.562523 -2.41292,-1.88489 -2.42792,-3.595811 -0.0199,-2.265769 1.52697,-3.861288 3.73323,-3.850736 2.18668,0.01046 3.67924,1.574401 3.67497,3.850736 -0.003,1.582732 -0.67788,2.70288 -2.05042,3.403102 -0.7847,0.400319 -2.12979,0.488792 -2.92986,0.192709 z m 2.27767,-1.046951 c 1.45819,-0.60927 2.00502,-2.808403 1.08634,-4.368804 -0.78279,-1.329578 -2.70069,-1.561158 -3.83379,-0.462918 -0.66183,0.641472 -0.87555,1.312438 -0.79933,2.509446 0.0486,0.763331 0.15124,1.08029 0.49631,1.532696 0.71469,0.937017 1.9391,1.25394 3.05047,0.78958 z"
     id="path837" />
  <path
     style="fill:#ffffff;stroke-width:0.153214"
     d="m 186.90285,18.247427 c -0.82467,-0.383984 -1.42471,-1.035537 -1.8159,-1.971792 -0.26953,-0.645089 -0.31099,-2.33928 -0.0728,-2.974368 0.88012,-2.346488 3.49709,-3.177911 5.18965,-1.648778 0.32144,0.290402 0.61056,0.528102 0.64248,0.52822 0.0319,1.19e-4 0.0357,-0.999601 0.008,-2.2215991 l -0.0496,-2.2218154 h 0.54755 0.54755 v 5.2858745 5.285874 h -0.45964 c -0.42316,0 -0.45964,-0.04256 -0.45964,-0.536248 0,-0.625686 -0.17438,-0.683984 -0.51068,-0.170726 -0.32393,0.494381 -1.44313,1.013736 -2.18063,1.011905 -0.33153,-8.27e-4 -0.95558,-0.165769 -1.38678,-0.366547 z m 2.96244,-1.133366 c 1.27626,-0.908778 1.44742,-3.276756 0.32893,-4.550652 -1.13424,-1.291822 -3.18425,-0.995516 -3.94199,0.569769 -0.70757,1.461639 -0.25019,3.34937 0.98647,4.071481 0.76133,0.444553 1.93174,0.404183 2.62659,-0.0906 z"
     id="path876" />
  <path
     style="fill:#ffffff;stroke-width:0.153214"
     d="m 196.07098,18.390289 c -0.96886,-0.302541 -1.64425,-0.893127 -2.10998,-1.845049 -0.36985,-0.755929 -0.40688,-0.974487 -0.34419,-2.031355 0.0762,-1.284271 0.31517,-1.890156 1.02599,-2.600981 0.67317,-0.673165 1.44639,-0.98338 2.43926,-0.978632 1.92758,0.0092 3.16281,1.177094 3.46527,3.276303 l 0.10485,0.727766 h -2.99705 c -3.37487,0 -3.25692,-0.05077 -2.70512,1.164261 0.74095,1.631532 3.09812,1.947268 4.23119,0.566757 0.27949,-0.340522 0.3506,-0.358788 0.72777,-0.18694 0.22991,0.104753 0.41801,0.259014 0.41801,0.342803 0,0.35771 -1.26311,1.329842 -2.01989,1.554584 -0.94592,0.280906 -1.36383,0.282865 -2.23611,0.01048 z m 3.26634,-4.792569 c -0.25437,-1.034616 -1.13107,-1.722155 -2.19713,-1.723082 -1.10231,-9.58e-4 -2.08076,0.712195 -2.26909,1.653841 l -0.0981,0.490579 h 2.33397 2.33397 z"
     id="path915" />
</svg>
