<?xml version="1.0" encoding="UTF-8"?>
<svg version="1.1" xmlns="http://www.w3.org/2000/svg" width="1400" height="162">
<path d="M0 0 C13.2 0 26.4 0 40 0 C43.20203219 3.20203219 43.28939887 3.83790769 44 8 C44.63270867 9.34977849 45.30062468 10.68352881 46 12 C47.09837995 14.64903399 48.09284744 17.27854233 49 20 C49.309375 20.61875 49.61875 21.2375 49.9375 21.875 C51.57848295 25.1569659 52.84048336 28.52145008 54 32 C54.309375 32.61875 54.61875 33.2375 54.9375 33.875 C56.57848295 37.1569659 57.84048336 40.52145008 59 44 C59.309375 44.61875 59.61875 45.2375 59.9375 45.875 C61.57848295 49.1569659 62.84048336 52.52145008 64 56 C64.309375 56.61875 64.61875 57.2375 64.9375 57.875 C66.8885596 61.77711921 68.55580687 65.84249053 69.4375 70.125 C69.7159375 71.053125 69.7159375 71.053125 70 72 C70.66 72.33 71.32 72.66 72 73 C72.5233626 74.99531993 73.04113218 76.99277464 73.5 79.00390625 C74.05373518 81.21452092 74.87098009 83.02421516 76 85 C77.11890906 87.1678863 78.11203479 89.28708916 79 91.5625 C79.98451106 94.19059626 79.98451106 94.19059626 82 97 C82.2165625 98.2065625 82.2165625 98.2065625 82.4375 99.4375 C83.06519273 102.29698912 84.12058431 103.7937294 86 106 C88.18784587 103.0578135 88.18784587 103.0578135 89 99.375 C89.495 97.704375 89.495 97.704375 90 96 C90.66 95.67 91.32 95.34 92 95 C92.34740923 93.00239695 92.67966043 91.00212229 93 89 C93.99 87.515 93.99 87.515 95 86 C95.165 85.13375 95.33 84.2675 95.5 83.375 C95.665 82.59125 95.83 81.8075 96 81 C96.66 80.67 97.32 80.34 98 80 C98.34740923 78.00239695 98.67966043 76.00212229 99 74 C99.99 72.515 99.99 72.515 101 71 C102.13104081 68.97983988 102.13104081 68.97983988 102.4375 66.4375 C102.623125 65.633125 102.80875 64.82875 103 64 C103.66 63.67 104.32 63.34 105 63 C105.56058477 61.26566343 105.56058477 61.26566343 106 59 C107.00909148 55.16545239 107.79089076 52.31366386 110 49 C110.165 48.13375 110.33 47.2675 110.5 46.375 C110.665 45.59125 110.83 44.8075 111 44 C111.66 43.67 112.32 43.34 113 43 C113.165 42.01 113.33 41.02 113.5 40 C113.665 39.01 113.83 38.02 114 37 C114.66 36.67 115.32 36.34 116 36 C116.71033294 33.79007531 117.06440514 31.60436844 117.4375 29.3125 C117.623125 28.549375 117.80875 27.78625 118 27 C118.99 26.505 118.99 26.505 120 26 C120.56058477 24.26566343 120.56058477 24.26566343 121 22 C122.00909148 18.16545239 122.79089076 15.31366386 125 12 C125.33 10.845 125.66 9.69 126 8.5 C127 5 127 5 129 2 C129.33 1.34 129.66 0.68 130 0 C144.19 0 158.38 0 173 0 C173 51.48 173 102.96 173 156 C162.77 156 152.54 156 142 156 C141.67 122.34 141.34 88.68 141 54 C140.34 56.64 139.68 59.28 139 62 C138.34 62.99 137.68 63.98 137 65 C136.31246699 66.65816784 135.64438717 68.32459336 135 70 C134.67 70.66 134.34 71.32 134 72 C133.855625 72.845625 133.71125 73.69125 133.5625 74.5625 C133.376875 75.366875 133.19125 76.17125 133 77 C132.01 77.495 132.01 77.495 131 78 C130.835 78.99 130.67 79.98 130.5 81 C130.335 81.99 130.17 82.98 130 84 C129.01 84.495 129.01 84.495 128 85 C127.28966706 87.20992469 126.93559486 89.39563156 126.5625 91.6875 C126.2840625 92.8321875 126.2840625 92.8321875 126 94 C125.01 94.495 125.01 94.495 124 95 C123.65259077 96.99760305 123.32033957 98.99787771 123 101 C122.34 101.99 121.68 102.98 121 104 C119.86895919 106.02016012 119.86895919 106.02016012 119.5625 108.5625 C119.376875 109.366875 119.19125 110.17125 119 111 C118.01 111.495 118.01 111.495 117 112 C116.65259077 113.99760305 116.32033957 115.99787771 116 118 C115.34 118.99 114.68 119.98 114 121 C113.67 122.19625 113.34 123.3925 113 124.625 C112.505 126.295625 112.505 126.295625 112 128 C111.34 128.33 110.68 128.66 110 129 C109.61067967 130.98985949 109.28112064 132.99199544 109 135 C108 138 108 138 106 141 C104.93771589 143.05536365 104.93771589 143.05536365 104 145.5 C103 148 103 148 102 150 C101.34 152.31 100.68 154.62 100 157 C90.43 157 80.86 157 71 157 C70.505 154.525 70.505 154.525 70 152 C69.36525925 150.65117592 68.70151152 149.3153341 68 148 C67.67 147.01 67.34 146.02 67 145 C66.690625 144.38125 66.38125 143.7625 66.0625 143.125 C64.42151705 139.8430341 63.15951664 136.47854992 62 133 C61.690625 132.401875 61.38125 131.80375 61.0625 131.1875 C59.77304755 128.53274496 58.93274666 125.79823999 58 123 C57.34870203 121.65909241 56.68486725 120.32407669 56 119 C55.67 118.01 55.34 117.02 55 116 C54.690625 115.38125 54.38125 114.7625 54.0625 114.125 C52.42151705 110.8430341 51.15951664 107.47854992 50 104 C49.690625 103.38125 49.38125 102.7625 49.0625 102.125 C47.1114404 98.22288079 45.44419313 94.15750947 44.5625 89.875 C44.2840625 88.946875 44.2840625 88.946875 44 88 C43.01 87.505 43.01 87.505 42 87 C41.64080332 85.33871537 41.31088368 83.67099977 41 82 C40.36525925 80.65117592 39.70151152 79.3153341 39 78 C38 75 38 75 37.5625 72.875 C37.2840625 71.946875 37.2840625 71.946875 37 71 C36.01 70.505 36.01 70.505 35 70 C34.31060191 67.67328146 33.64533078 65.33932406 33 63 C32.34 62.01 31.68 61.02 31 60 C30.34 58.35 29.68 56.7 29 55 C29 88.33 29 121.66 29 156 C19.43 156 9.86 156 0 156 C0 104.52 0 53.04 0 0 Z M29 52 C30 54 30 54 30 54 Z M85 108 C85.33 108.66 85.66 109.32 86 110 C86.33 109.34 86.66 108.68 87 108 C86.34 108 85.68 108 85 108 Z " fill="#F8F8F8" transform="translate(0,3)"/>
<path d="M0 0 C72 0 72 0 83 2 C83.99 2.99 84.98 3.98 86 5 C87.61930343 6.06241444 89.26798481 7.08087528 90.9375 8.0625 C91.79214844 8.56910156 92.64679688 9.07570313 93.52734375 9.59765625 C95.93432025 11.00782336 95.93432025 11.00782336 98.28125 12.0546875 C99.13203125 12.52261719 99.13203125 12.52261719 100 13 C100.36162029 14.32594105 100.69728039 15.65938457 101 17 C102.485 17.495 102.485 17.495 104 18 C104.495 19.485 104.495 19.485 105 21 C105.97232516 23.009472 106.98910156 24.98012638 108.0625 26.9375 C109.12855488 29.28282073 109.55670682 31.4668961 110 34 C110.24907104 34.93428833 110.24907104 34.93428833 110.50317383 35.88745117 C111.38652563 39.64354117 111.46666177 43.46991479 111.6875 47.3125 C111.74744141 48.14201172 111.80738281 48.97152344 111.86914062 49.82617188 C112.21365036 55.8055395 111.71944266 60.56111469 109 66 C108.64386903 67.66194453 108.30791692 69.328451 108 71 C107.34 71 106.68 71 106 71 C105.67 72.65 105.34 74.3 105 76 C103.515 76.495 103.515 76.495 102 77 C101.64587656 78.32796291 101.31478446 79.66216607 101 81 C98.95623323 83.62770014 97.25666272 84.43850643 94 85 C94 85.66 94 86.32 94 87 C92.515 87.495 92.515 87.495 91 88 C89.65812182 88.6492959 88.32520503 89.31731862 87 90 C85 91 83 92 81 93 C81.474375 93.886875 81.94875 94.77375 82.4375 95.6875 C83.80746339 98.5918224 84.3963516 100.89552249 85 104 C85.66 104.66 86.32 105.32 87 106 C91.21715856 110.98391466 93.82492721 116.62103344 95 123 C95.95394836 125.02237052 96.94535351 127.0282696 98 129 C98.66 129 99.32 129 100 129 C100.98669759 130.89192475 101.9640602 132.78871978 102.9375 134.6875 C103.48277344 135.74324219 104.02804687 136.79898438 104.58984375 137.88671875 C105.85320913 140.67592154 106.42190262 143.02618376 107 146 C107.66 146.66 108.32 147.32 109 148 C111.81185956 151.1363049 112.15097542 152.84817596 112 157 C107.08761531 157.0300836 102.17825672 157.01463997 97.26611328 156.95727539 C95.59591734 156.94414849 93.92557599 156.9433899 92.25537109 156.95532227 C89.85108438 156.97034012 87.45083112 156.940658 85.046875 156.90234375 C84.30193787 156.91659897 83.55700073 156.93085419 82.78948975 156.94554138 C80.66699219 156.88647461 80.66699219 156.88647461 77 156 C75.11798372 153.78740521 74.22301548 151.69067088 73 149 C72.34 148.34 71.68 147.68 71 147 C70.87625 146.38125 70.7525 145.7625 70.625 145.125 C70.13218314 142.82292447 70.13218314 142.82292447 68.0625 141.0625 C65.7585895 138.7585895 65.16706699 137.01235404 64 134 C63.14939449 132.38276595 62.27239444 130.77924712 61.375 129.1875 C58.71171201 124.36070151 56.16845836 119.48469005 53.6875 114.5625 C53.33800293 113.87631592 52.98850586 113.19013184 52.62841797 112.4831543 C51.05220561 109.33732623 49.79854004 106.41571797 49 103 C48.67 102.01 48.34 101.02 48 100 C47.67 98.68 47.34 97.36 47 96 C42.05 96 37.1 96 32 96 C32 116.13 32 136.26 32 157 C16.16 156.505 16.16 156.505 0 156 C0 104.52 0 53.04 0 0 Z M32 27 C32 40.86 32 54.72 32 69 C39.30125 69.061875 39.30125 69.061875 46.75 69.125 C48.27979492 69.14320801 49.80958984 69.16141602 51.38574219 69.18017578 C52.59391602 69.1851709 53.80208984 69.19016602 55.046875 69.1953125 C56.90070801 69.21102295 56.90070801 69.21102295 58.79199219 69.22705078 C61.86737961 69.00938637 63.41299521 68.56411574 66 67 C66.804375 66.731875 67.60875 66.46375 68.4375 66.1875 C71.70615779 64.67275615 73.63481873 62.69367867 76 60 C76.33 59.01 76.66 58.02 77 57 C77.66 56.01 78.32 55.02 79 54 C79.31788492 51.12942749 79.31788492 51.12942749 79.25 48 C79.25515625 46.948125 79.2603125 45.89625 79.265625 44.8125 C79.20467017 41.79349621 79.20467017 41.79349621 77 39 C76.71125 38.175 76.4225 37.35 76.125 36.5 C74.46249987 32.80555527 72.24883981 31.55869149 68.625 29.9375 C67.75875 29.628125 66.8925 29.31875 66 29 C65.09427246 28.65469238 64.18854492 28.30938477 63.25537109 27.95361328 C59.75792855 26.92908872 56.92605027 26.77132064 53.2890625 26.8046875 C52.16709473 26.80968262 51.04512695 26.81467773 49.88916016 26.81982422 C48.4819873 26.83803223 47.07481445 26.85624023 45.625 26.875 C41.12875 26.91625 36.6325 26.9575 32 27 Z " fill="#F7F7F7" transform="translate(450,3)"/>
<path d="M0 0 C4.58574001 -0.07530902 9.17110418 -0.12913594 13.75732422 -0.16479492 C15.31077358 -0.17969189 16.86418235 -0.20001651 18.41748047 -0.22631836 C40.80917553 -0.59541223 40.80917553 -0.59541223 50 4 C51.53668796 4.53534436 53.07904306 5.05454272 54.625 5.5625 C55.44226563 5.83191406 56.25953125 6.10132813 57.1015625 6.37890625 C57.72804688 6.58386719 58.35453125 6.78882813 59 7 C59 7.66 59 8.32 59 9 C59.804375 9.12375 60.60875 9.2475 61.4375 9.375 C62.283125 9.58125 63.12875 9.7875 64 10 C64.495 10.99 64.495 10.99 65 12 C65.99 12.495 65.99 12.495 67 13 C67.45375 13.474375 67.9075 13.94875 68.375 14.4375 C69.93258204 16.09027808 69.93258204 16.09027808 72 17 C74.18929953 18.09464977 75.46398023 19.09826124 77 21 C77.144375 21.639375 77.28875 22.27875 77.4375 22.9375 C78.206602 25.75754066 79.92896384 26.99368372 82 29 C82.33 29.99 82.66 30.98 83 32 C83.66 32.66 84.32 33.32 85 34 C87.55313781 36.96163986 88.42243661 39.14957739 89 43 C89.77088416 46.41391556 90.8711178 49.68861221 92 53 C90.88625 53.185625 90.88625 53.185625 89.75 53.375 C87.06331633 53.8649631 87.06331633 53.8649631 85.0625 55 C82.4307662 56.27599215 79.87847147 56.56197173 77 57 C76.01 57.495 76.01 57.495 75 58 C74.34 57.67 73.68 57.34 73 57 C72.67 57.66 72.34 58.32 72 59 C71.01 59.33 70.02 59.66 69 60 C68.34 59.67 67.68 59.34 67 59 C67 59.66 67 60.32 67 61 C63.25 62.125 63.25 62.125 61 61 C61 60.34 61 59.68 61 59 C60.34 58.67 59.68 58.34 59 58 C59.495 57.01 59.495 57.01 60 56 C59.34 55.67 58.68 55.34 58 55 C57.27306096 53.02111039 56.60183749 51.02045442 56 49 C55.34 49 54.68 49 54 49 C53.67 48.01 53.34 47.02 53 46 C52.34 45.67 51.68 45.34 51 45 C50.87625 44.360625 50.7525 43.72125 50.625 43.0625 C50.20833333 40.83333333 50.20833333 40.83333333 48.125 39.9375 C47.42375 39.628125 46.7225 39.31875 46 39 C45 38 44 37 43 36 C41.515 35.505 41.515 35.505 40 35 C34 33 34 33 31.33203125 31.94921875 C27.28337604 30.79585038 23.68300967 30.70589093 19.5 30.75 C18.76652344 30.74226563 18.03304687 30.73453125 17.27734375 30.7265625 C12.02826996 30.74534273 7.74834927 31.62582536 3 34 C1 35 1 35 -2.1875 36 C-5.12865478 36.67987492 -5.12865478 36.67987492 -6 39 C-6.66 39.144375 -7.32 39.28875 -8 39.4375 C-8.66 39.623125 -9.32 39.80875 -10 40 C-10.33 40.99 -10.66 41.98 -11 43 C-12.33333333 43.33333333 -13.66666667 43.66666667 -15 44 C-15.33 44.99 -15.66 45.98 -16 47 C-16.66 47.61875 -17.32 48.2375 -18 48.875 C-20.3371751 51.35824854 -20.43782888 52.70728343 -21 56 C-21.96885372 57.68496298 -22.96986723 59.35178756 -24 61 C-26.19437009 65.87637799 -27.07599175 70.53981738 -27.31640625 75.86328125 C-27.37924805 77.19262695 -27.37924805 77.19262695 -27.44335938 78.54882812 C-27.48267578 79.46083984 -27.52199219 80.37285156 -27.5625 81.3125 C-27.62727539 82.70952148 -27.62727539 82.70952148 -27.69335938 84.13476562 C-27.79897225 86.42304454 -27.90107752 88.71142372 -28 91 C-27.01 91.495 -27.01 91.495 -26 92 C-26 94.31 -26 96.62 -26 99 C-25.01 99.495 -25.01 99.495 -24 100 C-23.1484375 102.06640625 -23.1484375 102.06640625 -22.375 104.5625 C-22.11460937 105.38878906 -21.85421875 106.21507813 -21.5859375 107.06640625 C-21.39257812 107.70449219 -21.19921875 108.34257813 -21 109 C-20.34 109 -19.68 109 -19 109 C-18.67 109.99 -18.34 110.98 -18 112 C-17.01 112.495 -17.01 112.495 -16 113 C-15.8453125 113.8971875 -15.8453125 113.8971875 -15.6875 114.8125 C-14.68852198 117.99106644 -12.66363559 119.11596507 -10 121 C-9.01 121.495 -9.01 121.495 -8 122 C-5 124 -5 124 -3.0625 125.5625 C-0.89053803 127.07629168 0.44657459 127.41865971 3 128 C3.90234375 128.24878906 4.8046875 128.49757812 5.734375 128.75390625 C14.08262644 130.99236227 23.82096995 133.08951503 32 129 C32.66 129.33 33.32 129.66 34 130 C34 129.34 34 128.68 34 128 C37.96 127.01 37.96 127.01 42 126 C42 125.34 42 124.68 42 124 C42.680625 123.79375 43.36125 123.5875 44.0625 123.375 C51.78378516 119.76078141 56.44040132 113.63630123 60 106 C60.65902207 103.55901694 60.88954386 101.54049112 61 99 C63.31 99.33 65.62 99.66 68 100 C68 100.66 68 101.32 68 102 C68.5775 101.79375 69.155 101.5875 69.75 101.375 C72.59483096 100.90086151 73.48619786 101.66916358 76 103 C77.99422795 103.36628677 79.99453311 103.70131344 82 104 C82.99 104.33 83.98 104.66 85 105 C85 105.66 85 106.32 85 107 C86.98 107 88.96 107 91 107 C92.125 112.75 92.125 112.75 91 115 C90.87625 115.804375 90.7525 116.60875 90.625 117.4375 C90 120 90 120 88.5625 121.375 C86.20849315 123.82316712 85.89482217 126.77864017 85 130 C84.34 130.33 83.68 130.66 83 131 C82.67 131.66 82.34 132.32 82 133 C81.34 133.66 80.68 134.32 80 135 C79.67 135.66 79.34 136.32 79 137 C77.90012478 137.98706751 76.77094069 138.94180779 75.625 139.875 C73.54797423 141.60937997 71.94367511 143.07509985 70.3125 145.25 C68.77552776 147.29929632 67.34219614 148.03081539 65 149 C65 149.66 65 150.32 65 151 C64.01 151.33 63.02 151.66 62 152 C60.65812182 152.6492959 59.32520503 153.31731862 58 154 C56.66666667 154.66666667 55.33333333 155.33333333 54 156 C53.360625 156.33 52.72125 156.66 52.0625 157 C45.51851852 160.17283951 45.51851852 160.17283951 42 159 C41.67 159.66 41.34 160.32 41 161 C33.91862923 162.3561898 26.74841728 162.14854752 19.5625 162.125 C18.38623047 162.12886719 17.20996094 162.13273438 15.99804688 162.13671875 C9.57995091 162.12954368 3.3615214 161.85727454 -3 161 C-3 160.34 -3 159.68 -3 159 C-4.32 159.33 -5.64 159.66 -7 160 C-7 159.34 -7 158.68 -7 158 C-7.99 158.33 -8.98 158.66 -10 159 C-10.99 158.34 -11.98 157.68 -13 157 C-14.54766142 156.4172881 -16.11192222 155.87735813 -17.6875 155.375 C-18.49574219 155.11460937 -19.30398438 154.85421875 -20.13671875 154.5859375 C-21.05904297 154.29589844 -21.05904297 154.29589844 -22 154 C-22 153.34 -22 152.68 -22 152 C-23.2065625 151.814375 -23.2065625 151.814375 -24.4375 151.625 C-25.283125 151.41875 -26.12875 151.2125 -27 151 C-27.33 150.34 -27.66 149.68 -28 149 C-28.66 148.67 -29.32 148.34 -30 148 C-31 147 -32 146 -33 145 C-33.66 144.67 -34.32 144.34 -35 144 C-36.57996111 142.20966363 -38.06549195 140.35612625 -39.5625 138.49609375 C-40.2740625 137.75552734 -40.2740625 137.75552734 -41 137 C-41.66 137 -42.32 137 -43 137 C-43.103125 136.360625 -43.20625 135.72125 -43.3125 135.0625 C-43.539375 134.381875 -43.76625 133.70125 -44 133 C-44.99 132.67 -45.98 132.34 -47 132 C-48 129 -48 129 -49 126 C-49.99 125.0409375 -49.99 125.0409375 -51 124.0625 C-53.13342004 121.86241058 -53.45306932 120.91696362 -54 118 C-54.556875 116.948125 -54.556875 116.948125 -55.125 115.875 C-55.41375 115.25625 -55.7025 114.6375 -56 114 C-55.505 113.01 -55.505 113.01 -55 112 C-55.66 111.67 -56.32 111.34 -57 111 C-57 109.35 -57 107.7 -57 106 C-57.66 105.67 -58.32 105.34 -59 105 C-59.95067299 101.71585695 -60.10102197 100.30306592 -59 97 C-59.66 96.67 -60.32 96.34 -61 96 C-61 85.77 -61 75.54 -61 65 C-60.34 65 -59.68 65 -59 65 C-58.95101563 64.28714844 -58.90203125 63.57429688 -58.8515625 62.83984375 C-57.73578537 48.54635395 -57.73578537 48.54635395 -53 44 C-51.94647157 41.69034152 -50.94280904 39.3570226 -50 37 C-47.8999835 32.799967 -45.40474836 29.18038382 -41.75 26.25 C-37.61507561 22.78981222 -33.4367625 18.873525 -31 14 C-30.01 13.67 -29.02 13.34 -28 13 C-27.01 12.34 -26.02 11.68 -25 11 C-24.01 10.67 -23.02 10.34 -22 10 C-20.64664105 9.02727325 -19.31337396 8.0260734 -18 7 C-14.67526354 4.78350902 -11.84395157 4.04242754 -8 3 C-6.906875 2.608125 -5.81375 2.21625 -4.6875 1.8125 C-2 1 -2 1 0 2 C0 1.34 0 0.68 0 0 Z " fill="#F6F6F6" transform="translate(340,0)"/>
<path d="M0 0 C5.37531833 0.11807628 10.75044513 0.24231206 16.12548828 0.37231445 C17.95487575 0.41568565 19.78430427 0.45735911 21.61376953 0.49731445 C24.24003486 0.55496418 26.8660931 0.61867365 29.4921875 0.68359375 C30.31306854 0.70030624 31.13394958 0.71701874 31.97970581 0.73423767 C37.77225659 0.88612829 37.77225659 0.88612829 40 2 C40.35015049 3.66321482 40.68197057 5.33034549 41 7 C41.99 8.485 41.99 8.485 43 10 C43.38218767 11.65614657 43.71395102 13.32457024 44 15 C44.37907282 17.18703385 44.37907282 17.18703385 45 19 C45.66 19.33 46.32 19.66 47 20 C47.33333333 22.33333333 47.66666667 24.66666667 48 27 C48.66 27.33 49.32 27.66 50 28 C50.38218767 29.65614657 50.71395102 31.32457024 51 33 C51.33 33.66 51.66 34.32 52 35 C51.505 35.99 51.505 35.99 51 37 C51.66 37.33 52.32 37.66 53 38 C53 39.32 53 40.64 53 42 C53.66 42.33 54.32 42.66 55 43 C54.505 43.99 54.505 43.99 54 45 C54.66 45.33 55.32 45.66 56 46 C56 47.32 56 48.64 56 50 C56.66 50.33 57.32 50.66 58 51 C58 52.32 58 53.64 58 55 C58.66 55 59.32 55 60 55 C60.12375 55.7425 60.2475 56.485 60.375 57.25 C60.9638702 59.84102889 61.73182513 61.68744583 63 64 C64.65016877 67.00913128 65.32906897 69.64534485 66 73 C66.90833725 75.06669397 66.90833725 75.06669397 68 77 C69.64604502 80.00161151 70.41002167 82.62869528 71 86 C71.37907282 88.18703385 71.37907282 88.18703385 72 90 C72.66 90.33 73.32 90.66 74 91 C74.5625 93.3125 74.5625 93.3125 75 96 C75.46903802 98.21117926 75.98660921 99.97321842 77 102 C78.00333983 104.00667967 78.45815006 105.83260024 79 108 C79.33 108.66 79.66 109.32 80 110 C81.32849777 112.65699554 82 115.0288169 82 118 C82.66 118.33 83.32 118.66 84 119 C83.67 119.66 83.34 120.32 83 121 C83.66 121.33 84.32 121.66 85 122 C85 123.32 85 124.64 85 126 C85.66 126.33 86.32 126.66 87 127 C86.67 127.66 86.34 128.32 86 129 C86.66 129.33 87.32 129.66 88 130 C89.62734766 133.34510352 90 135.18835834 90 139 C90.66 139 91.32 139 92 139 C92.12375 139.7425 92.2475 140.485 92.375 141.25 C92.96555442 143.84843943 93.79009448 145.65135988 95 148 C96.1781288 151.2071284 97 153.57308478 97 157 C92.19450253 157.02468447 87.38904182 157.04285255 82.58349609 157.05493164 C80.94807289 157.05996621 79.3126542 157.06679427 77.67724609 157.07543945 C75.32909025 157.08754335 72.98099381 157.093237 70.6328125 157.09765625 C69.53273361 157.10539818 69.53273361 157.10539818 68.41043091 157.11329651 C63.22774341 157.11387171 63.22774341 157.11387171 61 156 C60.64984951 154.33678518 60.31802943 152.66965451 60 151 C59.34 150.01 58.68 149.02 58 148 C57.63445127 146.5540517 57.32554816 145.09305927 57.0625 143.625 C56.29453761 139.85832734 55.07924364 137.25446831 53 134 C52.375 131.4375 52.375 131.4375 52 129 C51.49395256 126.78604245 51.01743607 125.03487215 50 123 C29.54 123 9.08 123 -12 123 C-13.41077094 127.83751312 -13.41077094 127.83751312 -14.5 132.75 C-15 135 -15 135 -17 138 C-17.69100553 139.99172182 -18.35902703 141.99161804 -19 144 C-19.33 144.66 -19.66 145.32 -20 146 C-20.144375 146.78375 -20.28875 147.5675 -20.4375 148.375 C-21.22733013 152.06087393 -22.33469045 154.33469045 -25 157 C-27.50920846 157.17495606 -29.90624941 157.23169569 -32.4140625 157.1953125 C-33.50852188 157.19106766 -33.50852188 157.19106766 -34.62509155 157.18673706 C-36.95856028 157.17553002 -39.29164703 157.1504251 -41.625 157.125 C-43.20572363 157.11497085 -44.78645327 157.10584489 -46.3671875 157.09765625 C-50.24493914 157.07558905 -54.12240478 157.04105615 -58 157 C-57.125 149.25 -57.125 149.25 -56 147 C-55.34 147 -54.68 147 -54 147 C-54 145.02 -54 143.04 -54 141 C-53.34 140.67 -52.68 140.34 -52 140 C-51.6451046 138.00371336 -51.31421071 136.00309329 -51 134 C-50 131.75 -50 131.75 -49 130 C-47.88125501 127.99764861 -47.88125501 127.99764861 -47.5625 125.5625 C-47 123 -47 123 -45 120 C-44.7525 118.700625 -44.7525 118.700625 -44.5 117.375 C-44.335 116.59125 -44.17 115.8075 -44 115 C-43.01 114.505 -43.01 114.505 -42 114 C-41.6451046 112.00371336 -41.31421071 110.00309329 -41 108 C-40 105.75 -40 105.75 -39 104 C-37.88125501 101.99764861 -37.88125501 101.99764861 -37.5625 99.5625 C-37 97 -37 97 -35 94 C-34.835 93.175 -34.67 92.35 -34.5 91.5 C-34 89 -34 89 -32 86 C-31.32215008 83.66989091 -30.65583207 81.33640176 -30 79 C-29.33441143 77.66612816 -28.66767429 76.33282905 -28 75 C-27.45335311 73.46729629 -26.93260543 71.92512067 -26.4375 70.375 C-25.72279984 68.14572799 -25.04722531 66.09445062 -24 64 C-23.34 64 -22.68 64 -22 64 C-22.33 63.01 -22.66 62.02 -23 61 C-22.505 60.01 -22.505 60.01 -22 59 C-21.34 59 -20.68 59 -20 59 C-20.33 58.01 -20.66 57.02 -21 56 C-20.34 56 -19.68 56 -19 56 C-19 54.35 -19 52.7 -19 51 C-18.34 51 -17.68 51 -17 51 C-17.33 50.01 -17.66 49.02 -18 48 C-17.125 45.9375 -17.125 45.9375 -16 44 C-14.99983813 41.99967627 -14.50603992 40.16874252 -14 38 C-13.34 38 -12.68 38 -12 38 C-12.495 36.02 -12.495 36.02 -13 34 C-12.01 33.67 -11.02 33.34 -10 33 C-10.495 31.02 -10.495 31.02 -11 29 C-10.34 28.67 -9.68 28.34 -9 28 C-8.60955794 26.68225804 -8.29044914 25.34332728 -8 24 C-7.33333333 22 -6.66666667 20 -6 18 C-5.67 16.783125 -5.34 15.56625 -5 14.3125 C-4 11 -4 11 -2 8 C-0.49966418 4.09646667 -0.49966418 4.09646667 0 0 Z M18 38 C18.33 38.66 18.66 39.32 19 40 C19.33 39.34 19.66 38.68 20 38 C19.34 38 18.68 38 18 38 Z M17 41 C16.18025737 43.03876949 15.3695193 45.08116075 14.5625 47.125 C14.11003906 48.26195312 13.65757812 49.39890625 13.19140625 50.5703125 C12.08810863 53.7463627 11.48999331 56.68533936 11 60 C10.36729133 61.34977849 9.69937532 62.68352881 9 64 C7.94060151 67.04577067 6.96527615 70.11068226 6 73.1875 C5 76 5 76 3 79 C1.73081826 81.76233673 0.98214477 84.11159518 0.5 87.125 C0 90 0 90 -2 93 C11.86 93 25.72 93 40 93 C39.34 91.68 38.68 90.36 38 89 C37.30269194 86.6756398 36.63087848 84.34326294 36 82 C35.34 82 34.68 82 34 82 C34.33 81.01 34.66 80.02 35 79 C34.15193583 77.05312154 34.15193583 77.05312154 33 75 C32.4907244 73.38418316 32.01278544 71.75823872 31.5625 70.125 C30.41265652 66.15016035 28.88692003 62.68807096 27 59 C26.65179959 57.33637583 26.31595508 55.67004829 26 54 C25.34 53.01 24.68 52.02 24 51 C23.65846063 49.33499557 23.32550502 47.66821323 23 46 C22.29165425 43.74839144 22.29165425 43.74839144 21 42 C18.96468293 41.36993887 18.96468293 41.36993887 17 41 Z " fill="#F6F6F6" transform="translate(631,2)"/>
<path d="M0 0 C32.67 0.33 65.34 0.66 99 1 C99 10.57 99 20.14 99 30 C76.89 30 54.78 30 32 30 C32 41.55 32 53.1 32 65 C62.69 64.505 62.69 64.505 94 64 C93.67 73.57 93.34 83.14 93 93 C72.87 93 52.74 93 32 93 C32.33 104.22 32.66 115.44 33 127 C37.68058594 126.98839844 42.36117187 126.97679687 47.18359375 126.96484375 C50.14127742 126.9597368 53.09895569 126.95492302 56.05664062 126.95117188 C60.75562666 126.94518415 65.45459328 126.93808575 70.15356445 126.92456055 C73.94014257 126.9137292 77.7266999 126.90772264 81.51329231 126.90512276 C82.96104319 126.90326895 84.40879288 126.89964919 85.85653496 126.89426994 C87.87757135 126.88705633 89.89862848 126.88659192 91.91967773 126.88647461 C93.64842384 126.88314369 93.64842384 126.88314369 95.41209412 126.87974548 C98 127 98 127 99 128 C99 137.57 99 147.14 99 157 C49.995 157.495 49.995 157.495 0 158 C0 105.86 0 53.72 0 0 Z " fill="#F8F8F8" transform="translate(743,2)"/>
<path d="M0 0 C0 21.78 0 43.56 0 66 C38.115 66.495 38.115 66.495 77 67 C77 45.22 77 23.44 77 1 C83.93 1 90.86 1 98 1 C98 52.15 98 103.3 98 156 C90.74 156.33 83.48 156.66 76 157 C76 134.23 76 111.46 76 88 C50.92 88 25.84 88 0 88 C0 110.44 0 132.88 0 156 C-7.92 156 -15.84 156 -24 156 C-23.67 104.85 -23.34 53.7 -23 1 C-1 0 -1 0 0 0 Z " fill="#F6F6F6" transform="translate(1302,2)"/>
<path d="M0 0 C11.22 0 22.44 0 34 0 C34 0.66 34 1.32 34 2 C34.75925781 2.06058594 35.51851562 2.12117187 36.30078125 2.18359375 C37.29464844 2.26738281 38.28851562 2.35117187 39.3125 2.4375 C40.29863281 2.51871094 41.28476563 2.59992188 42.30078125 2.68359375 C47.04541199 3.23976609 49.3514328 5.08114624 53 8 C53.99 8.33 54.98 8.66 56 9 C56.99 9.66 57.98 10.32 59 11 C59.99 11.495 59.99 11.495 61 12 C62 13 63 14 64 15 C64.99 15.495 64.99 15.495 66 16 C69.0625243 18.83283498 71.24366688 21.23642904 73 25 C73.9793879 26.02019573 74.97895449 27.02149805 76 28 C77.55932754 30.33899132 78.75323461 32.50646922 80 35 C80.515625 35.825 81.03125 36.65 81.5625 37.5 C82.86321054 39.76210529 83.64576453 41.43179285 84 44 C83.67 44.66 83.34 45.32 83 46 C83.66 46.33 84.32 46.66 85 47 C85 48.32 85 49.64 85 51 C84.21625 51.144375 83.4325 51.28875 82.625 51.4375 C80.03578982 51.87798925 80.03578982 51.87798925 78 53 C77.34 52.67 76.68 52.34 76 52 C75.67 52.66 75.34 53.32 75 54 C71.05748707 55.5586679 67.18845544 56.40164922 63 57 C62.52014033 55.72942818 62.0411407 54.45853152 61.5625 53.1875 C61.29566406 52.47980469 61.02882813 51.77210937 60.75390625 51.04296875 C59.77223456 48.38279107 58.8966383 45.68991489 58 43 C57.34 42.34 56.68 41.68 56 41 C55.5978125 40.0409375 55.5978125 40.0409375 55.1875 39.0625 C54.09767559 36.78297441 54.09767559 36.78297441 51.5 35.5 C48.73695138 33.84217083 48.31588277 32.81974878 47 30 C45.515 29.505 45.515 29.505 44 29 C40.97382445 27.99127482 38.65756064 26.74839516 36 25 C35.505 24.01 35.505 24.01 35 23 C32.69 23 30.38 23 28 23 C28 22.34 28 21.68 28 21 C24.45772899 21.11055553 20.9164564 21.24102309 17.375 21.375 C15.87646484 21.42140625 15.87646484 21.42140625 14.34765625 21.46875 C9.20998896 21.67289572 4.81182966 22.01151519 0 24 C-0.99 24.33 -1.98 24.66 -3 25 C-3.99 25.66 -4.98 26.32 -6 27 C-7.65549531 27.38499891 -9.3222433 27.72793135 -11 28 C-11 28.66 -11 29.32 -11 30 C-11.99 30.33 -12.98 30.66 -14 31 C-17.13899551 32.33823581 -19.00145846 33.82436551 -21.1875 36.4375 C-21.69667969 37.03433594 -22.20585938 37.63117187 -22.73046875 38.24609375 C-24.19491807 40.08459819 -24.19491807 40.08459819 -25 43 C-25.99 43.495 -25.99 43.495 -27 44 C-27.495 44.99 -27.495 44.99 -28 46 C-28.495 46.598125 -28.99 47.19625 -29.5 47.8125 C-31.16448363 50.23987197 -31.59871451 52.11074449 -32 55 C-32.66 55 -33.32 55 -34 55 C-34.48157839 58.31215393 -34.95981111 61.62478306 -35.4375 64.9375 C-35.57220703 65.86369141 -35.70691406 66.78988281 -35.84570312 67.74414062 C-36.67198601 73.48781432 -37.39037053 79.22923558 -38 85 C-37.34 85.33 -36.68 85.66 -36 86 C-36.33 88.64 -36.66 91.28 -37 94 C-36.34 94.33 -35.68 94.66 -35 95 C-35.33 96.32 -35.66 97.64 -36 99 C-35.34 99.33 -34.68 99.66 -34 100 C-34.33 100.66 -34.66 101.32 -35 102 C-34.34 102.33 -33.68 102.66 -33 103 C-32.0625 104.6875 -32.0625 104.6875 -31 107 C-30.484375 108.010625 -29.96875 109.02125 -29.4375 110.0625 C-28 113 -28 113 -27 116 C-26.18330183 118.13355094 -26.18330183 118.13355094 -25 120 C-24.01 120.33 -23.02 120.66 -22 121 C-21.65657551 122.33076989 -21.32380126 123.66431979 -21 125 C-18.22739701 126.93798263 -18.22739701 126.93798263 -16 128 C-15.01 128.99 -15.01 128.99 -14 130 C-13.34 130.33 -12.68 130.66 -12 131 C-11.01 131.66 -10.02 132.32 -9 133 C-8.01 133.33 -7.02 133.66 -6 134 C-3 135 -3 135 0 137 C0.99 137 1.98 137 3 137 C3 137.66 3 138.32 3 139 C4.65 138.67 6.3 138.34 8 138 C8 138.66 8 139.32 8 140 C13.61 140 19.22 140 25 140 C25.33 139.34 25.66 138.68 26 138 C27.32 138.33 28.64 138.66 30 139 C30.33 138.34 30.66 137.68 31 137 C32.97583715 136.26480478 34.98177598 135.60927518 37 135 C38.11375 134.62875 39.2275 134.2575 40.375 133.875 C41.674375 133.441875 41.674375 133.441875 43 133 C43 132.34 43 131.68 43 131 C43.61875 130.9175 44.2375 130.835 44.875 130.75 C47.18437567 130.18741541 47.18437567 130.18741541 48.25 127.9375 C48.62125 126.9784375 48.62125 126.9784375 49 126 C49.66 126 50.32 126 51 126 C51.268125 125.360625 51.53625 124.72125 51.8125 124.0625 C53 122 53 122 56 121 C56.495 119.515 56.495 119.515 57 118 C57.99 116.515 57.99 116.515 59 115 C59.69100553 113.00827818 60.35902703 111.00838196 61 109 C61.33 108.34 61.66 107.68 62 107 C62.66 107 63.32 107 64 107 C63.67 105.68 63.34 104.36 63 103 C64.43791516 103.14168137 65.8753237 103.28851043 67.3125 103.4375 C68.51326172 103.55931641 68.51326172 103.55931641 69.73828125 103.68359375 C73.11441504 104.15590262 75.14600176 105.09733451 78 107 C79.546875 107.4640625 79.546875 107.4640625 81.125 107.9375 C82.07375 108.288125 83.0225 108.63875 84 109 C85.88757468 114.66272403 83.58629288 119.96312927 81.0625 125.125 C80.55396484 126.18074219 80.55396484 126.18074219 80.03515625 127.2578125 C79 129 79 129 77 130 C76.67 130.66 76.34 131.32 76 132 C74 135 74 135 72 137 C71.690625 137.680625 71.38125 138.36125 71.0625 139.0625 C70 141 70 141 67 142 C66.5359375 142.99 66.5359375 142.99 66.0625 144 C65 146 65 146 62.875 146.75 C62.25625 146.8325 61.6375 146.915 61 147 C61 147.66 61 148.32 61 149 C60.01 149.33 59.02 149.66 58 150 C55.12317892 151.84094013 55.12317892 151.84094013 53.125 153.5625 C50.70512921 155.19947142 48.85385314 155.5005757 46 156 C45.17048828 156.45826172 45.17048828 156.45826172 44.32421875 156.92578125 C26.55294875 165.13939344 1.92911692 161.73551096 -16 156 C-17 155 -18 154 -19 153 C-21.32873375 152.31744011 -23.66182791 151.64949225 -26 151 C-26.33 150.34 -26.66 149.68 -27 149 C-27.66 148.67 -28.32 148.34 -29 148 C-29.66 147.34 -30.32 146.68 -31 146 C-31.66 145.67 -32.32 145.34 -33 145 C-33.96600369 143.92068209 -34.89973489 142.81220002 -35.8125 141.6875 C-37.71975507 139.40252449 -39.39754769 137.68376888 -41.75 135.8125 C-44.01856549 133.98504446 -44.94760448 132.67882497 -46 130 C-46.66 130 -47.32 130 -48 130 C-48 129.01 -48 128.02 -48 127 C-48.639375 126.360625 -49.27875 125.72125 -49.9375 125.0625 C-52.16110352 122.83889648 -52.3545313 121.95071408 -53 119 C-53.515625 118.401875 -54.03125 117.80375 -54.5625 117.1875 C-56.58426612 114.11089938 -56.20745326 111.59585649 -56 108 C-56.66 107.67 -57.32 107.34 -58 107 C-59.09036928 104.0262656 -59.03864166 103.11592499 -58 100 C-58.66 99.67 -59.32 99.34 -60 99 C-61.03476213 84.74236848 -60.86058012 71.17731297 -59 57 C-58.34 57 -57.68 57 -57 57 C-57.33 55.68 -57.66 54.36 -58 53 C-57.34 53 -56.68 53 -56 53 C-56.20625 52.401875 -56.4125 51.80375 -56.625 51.1875 C-57 49 -57 49 -55 46 C-54.3162955 44.67532254 -53.65035814 43.34136367 -53 42 C-49.36415009 34.72830018 -44.45419467 29.23675649 -38.890625 23.37304688 C-36.40577338 20.70828113 -34.55916388 18.27882993 -33 15 C-30.875 14.25 -30.875 14.25 -29 14 C-29 13.34 -29 12.68 -29 12 C-27.35 11.67 -25.7 11.34 -24 11 C-24 10.34 -24 9.68 -24 9 C-22.906875 8.731875 -21.81375 8.46375 -20.6875 8.1875 C-17.11630145 7.36300352 -17.11630145 7.36300352 -15.578125 5.5 C-13.50368867 3.52825854 -11.85918231 3.30454787 -9.0625 2.8125 C-8.20785156 2.65394531 -7.35320312 2.49539062 -6.47265625 2.33203125 C-4 2 -4 2 0 2 C0 1.34 0 0.68 0 0 Z " fill="#F0F0F0" transform="translate(1171,0)"/>
<path d="M0 0 C0.87537415 0.00359528 1.75074829 0.00719055 2.65264893 0.01089478 C4.02812141 0.01067574 4.02812141 0.01067574 5.43138123 0.01045227 C8.47773564 0.01115177 11.52402973 0.01894589 14.57037354 0.02676392 C16.67644721 0.02862796 18.78252132 0.03005193 20.88859558 0.03105164 C26.44364612 0.03487786 31.99867069 0.04470903 37.55371094 0.05575562 C43.21746469 0.0659675 48.88122262 0.07054878 54.54498291 0.07559204 C65.66674097 0.08633121 76.78847291 0.10392884 87.91021729 0.12442017 C87.91021729 7.05442017 87.91021729 13.98442017 87.91021729 21.12442017 C64.15021729 21.12442017 40.39021729 21.12442017 15.91021729 21.12442017 C15.91021729 36.30442017 15.91021729 51.48442017 15.91021729 67.12442017 C37.36021729 67.12442017 58.81021729 67.12442017 80.91021729 67.12442017 C80.91021729 74.05442017 80.91021729 80.98442017 80.91021729 88.12442017 C59.46021729 88.12442017 38.01021729 88.12442017 15.91021729 88.12442017 C15.91021729 103.30442017 15.91021729 118.48442017 15.91021729 134.12442017 C39.67021729 134.12442017 63.43021729 134.12442017 87.91021729 134.12442017 C88.40521729 144.51942017 88.40521729 144.51942017 88.91021729 155.12442017 C57.23021729 155.12442017 25.55021729 155.12442017 -7.08978271 155.12442017 C-7.13008575 116.54546019 -7.13008575 116.54546019 -7.13861084 100.43106079 C-7.14455418 89.28595522 -7.15155683 78.14085719 -7.16522217 66.99575806 C-7.17516797 58.88036657 -7.18163589 50.76498117 -7.18387121 42.64958376 C-7.18517849 38.34982229 -7.18826545 34.05007824 -7.19551277 29.75032234 C-7.20227136 25.70799175 -7.20440001 21.66568585 -7.2028904 17.62335014 C-7.2031668 16.13537843 -7.20517288 14.64740594 -7.20898819 13.15943909 C-7.21392285 11.13666879 -7.21218088 9.11388541 -7.21003723 7.09111023 C-7.21095902 5.95638307 -7.21188082 4.8216559 -7.21283054 3.65254307 C-6.97624207 -1.20836944 -4.20897287 0.00730265 0 0 Z " fill="#F3F3F3" transform="translate(1009.0897827148438,2.875579833984375)"/>
<path d="M0 0 C0 7.59 0 15.18 0 23 C-17.16 22.67 -34.32 22.34 -52 22 C-51.67 66.22 -51.34 110.44 -51 156 C-58.92 156.33 -66.84 156.66 -75 157 C-74.67 112.45 -74.34 67.9 -74 22 C-90.83 22 -107.66 22 -125 22 C-125 15.07 -125 8.14 -125 1 C-108.84967874 0.86956903 -92.69935713 0.73918047 -76.54903507 0.60884857 C-69.0506749 0.54833629 -61.55231485 0.48780885 -54.05395508 0.42724609 C-47.52069527 0.3744783 -40.98743524 0.32173856 -34.45417494 0.26903296 C-30.99279129 0.24110803 -27.53140775 0.21316876 -24.07002449 0.18519592 C-20.21212931 0.15401924 -16.35423362 0.12290518 -12.49633789 0.09179688 C-11.34044159 0.08244614 -10.18454529 0.0730954 -8.99362183 0.0634613 C-7.42652718 0.05084007 -7.42652718 0.05084007 -5.82777405 0.03796387 C-4.9142772 0.03058952 -4.00078035 0.02321518 -3.05960178 0.01561737 C-1 0 -1 0 0 0 Z " fill="#F8F8F8" transform="translate(986,2)"/>
<path d="M0 0 C0.93134766 0.00322266 1.86269531 0.00644531 2.82226562 0.00976562 C4.26182617 0.02233398 4.26182617 0.02233398 5.73046875 0.03515625 C6.70951172 0.03966797 7.68855469 0.04417969 8.69726562 0.04882812 C11.10422986 0.06056941 13.51106732 0.07699206 15.91796875 0.09765625 C15.91796875 0.75765625 15.91796875 1.41765625 15.91796875 2.09765625 C16.81515625 1.78828125 16.81515625 1.78828125 17.73046875 1.47265625 C19.91796875 1.09765625 19.91796875 1.09765625 22.91796875 3.09765625 C23.94921875 3.40703125 24.98046875 3.71640625 26.04296875 4.03515625 C26.99171875 4.38578125 27.94046875 4.73640625 28.91796875 5.09765625 C29.41296875 6.58265625 29.41296875 6.58265625 29.91796875 8.09765625 C31.70567744 9.98516528 31.70567744 9.98516528 33.85546875 11.78515625 C34.56574219 12.40777344 35.27601563 13.03039063 36.0078125 13.671875 C37.78782691 15.2970439 37.78782691 15.2970439 39.91796875 15.09765625 C40.92960996 18.13257988 41.93615357 21.15827233 42.85546875 24.22265625 C43.59024696 27.21877082 43.59024696 27.21877082 45.91796875 28.09765625 C46.41296875 29.58265625 46.41296875 29.58265625 46.91796875 31.09765625 C46.58796875 31.75765625 46.25796875 32.41765625 45.91796875 33.09765625 C45.25796875 33.09765625 44.59796875 33.09765625 43.91796875 33.09765625 C43.42296875 34.08765625 43.42296875 34.08765625 42.91796875 35.09765625 C41.26796875 35.09765625 39.61796875 35.09765625 37.91796875 35.09765625 C37.42296875 36.08765625 37.42296875 36.08765625 36.91796875 37.09765625 C35.43296875 37.59265625 35.43296875 37.59265625 33.91796875 38.09765625 C33.25796875 37.76765625 32.59796875 37.43765625 31.91796875 37.09765625 C31.91796875 37.75765625 31.91796875 38.41765625 31.91796875 39.09765625 C24.47810427 39.58551622 24.47810427 39.58551622 21.98046875 37.41015625 C20.91796875 35.09765625 20.91796875 35.09765625 20.41796875 32.47265625 C20.13074466 29.73400288 20.13074466 29.73400288 16.91796875 28.09765625 C15.57606918 27.42670647 14.22128186 26.78098039 12.85546875 26.16015625 C10.91796875 25.09765625 10.91796875 25.09765625 9.91796875 23.09765625 C8.96921875 23.28328125 8.02046875 23.46890625 7.04296875 23.66015625 C3.91796875 24.09765625 3.91796875 24.09765625 1.91796875 23.09765625 C-0.41501785 23.05743234 -2.74909791 23.05445378 -5.08203125 23.09765625 C-5.41203125 23.75765625 -5.74203125 24.41765625 -6.08203125 25.09765625 C-8.03835962 26.17700983 -10.012514 27.06941487 -12.08203125 27.91015625 C-15.75946146 30.09363044 -17.74933406 33.09956467 -19.08203125 37.09765625 C-19.22640625 37.96390625 -19.37078125 38.83015625 -19.51953125 39.72265625 C-19.70515625 40.50640625 -19.89078125 41.29015625 -20.08203125 42.09765625 C-21.07203125 42.59265625 -21.07203125 42.59265625 -22.08203125 43.09765625 C-22.08203125 47.05765625 -22.08203125 51.01765625 -22.08203125 55.09765625 C-21.42203125 55.42765625 -20.76203125 55.75765625 -20.08203125 56.09765625 C-19.41536458 58.09765625 -18.74869792 60.09765625 -18.08203125 62.09765625 C-17.42203125 62.42765625 -16.76203125 62.75765625 -16.08203125 63.09765625 C-15.95828125 63.73703125 -15.83453125 64.37640625 -15.70703125 65.03515625 C-15.28434221 67.26162916 -15.28434221 67.26162916 -13.20703125 68.22265625 C-12.50578125 68.51140625 -11.80453125 68.80015625 -11.08203125 69.09765625 C-10.09203125 69.75765625 -9.10203125 70.41765625 -8.08203125 71.09765625 C-4.27767295 72.92580812 -1.22835624 73.36893982 2.98046875 73.34765625 C4.51380859 73.35539062 4.51380859 73.35539062 6.078125 73.36328125 C8.91235247 73.09818157 10.50263548 72.53932511 12.91796875 71.09765625 C14.91796875 70.09765625 14.91796875 70.09765625 16.85546875 69.34765625 C20.41202499 67.19216762 21.63925607 63.93379429 22.91796875 60.09765625 C23.57796875 60.09765625 24.23796875 60.09765625 24.91796875 60.09765625 C24.91796875 59.10765625 24.91796875 58.11765625 24.91796875 57.09765625 C25.90796875 56.76765625 26.89796875 56.43765625 27.91796875 56.09765625 C27.91796875 56.75765625 27.91796875 57.41765625 27.91796875 58.09765625 C28.53542969 58.20722656 29.15289062 58.31679688 29.7890625 58.4296875 C35.69509376 59.53538285 41.26994434 61.0512706 46.91796875 63.09765625 C46.91796875 65.07765625 46.91796875 67.05765625 46.91796875 69.09765625 C46.25796875 69.09765625 45.59796875 69.09765625 44.91796875 69.09765625 C45.24796875 70.08765625 45.57796875 71.07765625 45.91796875 72.09765625 C44.58463542 74.09765625 43.25130208 76.09765625 41.91796875 78.09765625 C41.58796875 78.75765625 41.25796875 79.41765625 40.91796875 80.09765625 C40.25796875 80.75765625 39.59796875 81.41765625 38.91796875 82.09765625 C38.64984375 82.75765625 38.38171875 83.41765625 38.10546875 84.09765625 C36.51651174 86.77379438 34.75711988 87.00567505 31.91796875 88.09765625 C31.42296875 89.58265625 31.42296875 89.58265625 30.91796875 91.09765625 C30.15484375 91.20078125 29.39171875 91.30390625 28.60546875 91.41015625 C25.6521836 92.1656478 24.95929041 92.96758148 22.91796875 95.09765625 C19.9031605 96.22820934 19.08626573 96.15375524 15.91796875 95.09765625 C15.58796875 95.75765625 15.25796875 96.41765625 14.91796875 97.09765625 C11.6263801 97.15671042 8.33493119 97.1916 5.04296875 97.22265625 C4.12515625 97.23941406 3.20734375 97.25617188 2.26171875 97.2734375 C-5.56826584 97.32857824 -12.99296264 96.72427231 -20.01953125 93.09765625 C-22.19385575 91.98852631 -22.19385575 91.98852631 -25.08203125 91.09765625 C-26.10222698 90.11826835 -27.1035293 89.11870176 -28.08203125 88.09765625 C-28.74203125 87.76765625 -29.40203125 87.43765625 -30.08203125 87.09765625 C-30.90703125 86.08703125 -31.73203125 85.07640625 -32.58203125 84.03515625 C-33.81953125 82.58109375 -33.81953125 82.58109375 -35.08203125 81.09765625 C-35.74203125 81.09765625 -36.40203125 81.09765625 -37.08203125 81.09765625 C-37.41203125 80.10765625 -37.74203125 79.11765625 -38.08203125 78.09765625 C-39.92297138 75.22083517 -39.92297138 75.22083517 -41.64453125 73.22265625 C-43.30801489 70.76359347 -43.6069312 69.01612799 -44.08203125 66.09765625 C-44.40558594 65.05351563 -44.72914063 64.009375 -45.0625 62.93359375 C-46.13463013 58.89975549 -46.58742957 55.18154922 -46.83203125 51.03515625 C-46.88746094 50.35388672 -46.94289062 49.67261719 -47 48.97070312 C-47.28304627 44.50629153 -46.61724705 41.26045294 -45.08203125 37.09765625 C-45.08203125 35.77765625 -45.08203125 34.45765625 -45.08203125 33.09765625 C-44.42203125 33.09765625 -43.76203125 33.09765625 -43.08203125 33.09765625 C-43.32953125 32.54078125 -43.57703125 31.98390625 -43.83203125 31.41015625 C-44.08203125 29.09765625 -44.08203125 29.09765625 -42.20703125 26.53515625 C-41.50578125 25.73078125 -40.80453125 24.92640625 -40.08203125 24.09765625 C-39.75203125 23.10765625 -39.42203125 22.11765625 -39.08203125 21.09765625 C-37.31312321 18.44429418 -36.06775811 17.15081525 -33.64453125 15.22265625 C-31.26817528 13.25787533 -30.0287311 12.00540599 -28.45703125 9.28515625 C-27.08203125 7.09765625 -27.08203125 7.09765625 -24.39453125 6.28515625 C-23.63140625 6.22328125 -22.86828125 6.16140625 -22.08203125 6.09765625 C-22.08203125 5.43765625 -22.08203125 4.77765625 -22.08203125 4.09765625 C-18.08203125 3.09765625 -18.08203125 3.09765625 -14.08203125 2.09765625 C-13.4375 1.93136719 -12.79296875 1.76507813 -12.12890625 1.59375 C-8.02354254 0.59874773 -4.23547304 -0.0259845 0 0 Z " fill="#F2F2F2" transform="translate(228.08203125,-0.09765625)"/>
<path d="M0 0 C1.17175781 -0.01836914 1.17175781 -0.01836914 2.3671875 -0.03710938 C6.30135523 -0.04721426 8.28092449 -0.04188367 11.625 2.1875 C12.8315625 3.425 12.8315625 3.425 14.0625 4.6875 C16.37349375 7.23174117 16.37349375 7.23174117 18.875 8.1875 C19.4525 8.5175 20.03 8.8475 20.625 9.1875 C21.25 11.75 21.25 11.75 21.625 14.1875 C22.285 14.5175 22.945 14.8475 23.625 15.1875 C23.625 20.1375 23.625 25.0875 23.625 30.1875 C22.965 30.1875 22.305 30.1875 21.625 30.1875 C21.625 32.1675 21.625 34.1475 21.625 36.1875 C20.635 36.6825 20.635 36.6825 19.625 37.1875 C19.13 38.1775 19.13 38.1775 18.625 39.1875 C17.965 39.8475 17.305 40.5075 16.625 41.1875 C16.13 42.1775 16.13 42.1775 15.625 43.1875 C14.635 43.5175 13.645 43.8475 12.625 44.1875 C11.67282593 44.70521973 11.67282593 44.70521973 10.70141602 45.23339844 C8.41805515 46.28259 6.90048222 46.44523288 4.40234375 46.453125 C3.61666016 46.45570313 2.83097656 46.45828125 2.02148438 46.4609375 C1.21001953 46.45320313 0.39855469 46.44546875 -0.4375 46.4375 C-1.25283203 46.44523437 -2.06816406 46.45296875 -2.90820312 46.4609375 C-3.69259766 46.45835937 -4.47699219 46.45578125 -5.28515625 46.453125 C-5.99808838 46.45086914 -6.71102051 46.44861328 -7.44555664 46.44628906 C-11.72532191 45.87226006 -15.44950723 42.2348883 -18.375 39.1875 C-18.91125 38.73375 -19.4475 38.28 -20 37.8125 C-21.80646736 35.67758403 -21.97377679 33.92919195 -22.375 31.1875 C-22.62443359 30.30191406 -22.62443359 30.30191406 -22.87890625 29.3984375 C-24.12340985 23.85206713 -24.63201044 17.36309499 -21.75 12.375 C-20.96625 11.653125 -20.1825 10.93125 -19.375 10.1875 C-18.36749081 8.96448082 -17.36794109 7.73487598 -16.375 6.5 C-14.2543532 3.90105514 -12.42287936 2.57809496 -9.375 1.1875 C-7.28121008 -0.90628992 -2.88339968 0.00235572 0 0 Z " fill="#EB5F01" transform="translate(229.375,115.8125)"/>
<path d="M0 0 C2.88437779 1.29299694 4.87219421 2.65941363 7 5 C6.67 5.66 6.34 6.32 6 7 C1.125 3.375 1.125 3.375 0 0 Z " fill="#070707" transform="translate(410,16)"/>
<path d="M0 0 C0.66 0.33 1.32 0.66 2 1 C-0.97 3.475 -0.97 3.475 -4 6 C-2.84826645 3.53199953 -1.95216435 1.95216435 0 0 Z " fill="#000000" transform="translate(303,19)"/>
<path d="M0 0 C0.66 0.33 1.32 0.66 2 1 C0.68 1.99 -0.64 2.98 -2 4 C-1.34 2.68 -0.68 1.36 0 0 Z " fill="#000000" transform="translate(196,11)"/>
<path d="M0 0 C0.99 0.495 0.99 0.495 2 1 C1.01 1.495 1.01 1.495 0 2 C0 1.34 0 0.68 0 0 Z " fill="#000000" transform="translate(211,122)"/>
<path d="M0 0 C2 1 2 1 2 1 Z " fill="#000000" transform="translate(1212,132)"/>
<path d="" fill="#000000" transform="translate(0,0)"/>
<path d="" fill="#000000" transform="translate(0,0)"/>
<path d="" fill="#000000" transform="translate(0,0)"/>
<path d="" fill="#000000" transform="translate(0,0)"/>
<path d="M0 0 C2 1 2 1 2 1 Z " fill="#000000" transform="translate(241,70)"/>
<path d="" fill="#000000" transform="translate(0,0)"/>
<path d="" fill="#000000" transform="translate(0,0)"/>
<path d="" fill="#000000" transform="translate(0,0)"/>
<path d="" fill="#000000" transform="translate(0,0)"/>
<path d="" fill="#000000" transform="translate(0,0)"/>
<path d="" fill="#000000" transform="translate(0,0)"/>
<path d="" fill="#000000" transform="translate(0,0)"/>
<path d="M0 0 C2 1 2 1 2 1 Z " fill="#000000" transform="translate(541,10)"/>
<path d="M0 0 C2 1 2 1 2 1 Z " fill="#000000" transform="translate(1227,9)"/>
<path d="M0 0 C2 1 2 1 2 1 Z " fill="#000000" transform="translate(399,8)"/>
<path d="M0 0 C2 1 2 1 2 1 Z " fill="#000000" transform="translate(258,7)"/>
<path d="M0 0 C2 1 2 1 2 1 Z " fill="#000000" transform="translate(534,6)"/>
<path d="" fill="#000000" transform="translate(0,0)"/>
<path d="" fill="#000000" transform="translate(0,0)"/>
<path d="" fill="#000000" transform="translate(0,0)"/>
<path d="" fill="#000000" transform="translate(0,0)"/>
<path d="" fill="#000000" transform="translate(0,0)"/>
<path d="" fill="#000000" transform="translate(0,0)"/>
<path d="" fill="#000000" transform="translate(0,0)"/>
<path d="" fill="#000000" transform="translate(0,0)"/>
<path d="" fill="#000000" transform="translate(0,0)"/>
<path d="" fill="#000000" transform="translate(0,0)"/>
<path d="" fill="#000000" transform="translate(0,0)"/>
<path d="" fill="#000000" transform="translate(0,0)"/>
<path d="" fill="#000000" transform="translate(0,0)"/>
<path d="" fill="#000000" transform="translate(0,0)"/>
<path d="" fill="#000000" transform="translate(0,0)"/>
<path d="" fill="#000000" transform="translate(0,0)"/>
<path d="" fill="#000000" transform="translate(0,0)"/>
<path d="" fill="#000000" transform="translate(0,0)"/>
<path d="" fill="#000000" transform="translate(0,0)"/>
<path d="" fill="#000000" transform="translate(0,0)"/>
<path d="" fill="#000000" transform="translate(0,0)"/>
<path d="" fill="#000000" transform="translate(0,0)"/>
<path d="" fill="#000000" transform="translate(0,0)"/>
<path d="" fill="#000000" transform="translate(0,0)"/>
<path d="" fill="#000000" transform="translate(0,0)"/>
<path d="" fill="#000000" transform="translate(0,0)"/>
<path d="" fill="#000000" transform="translate(0,0)"/>
<path d="" fill="#000000" transform="translate(0,0)"/>
<path d="" fill="#000000" transform="translate(0,0)"/>
<path d="" fill="#000000" transform="translate(0,0)"/>
<path d="" fill="#000000" transform="translate(0,0)"/>
<path d="" fill="#000000" transform="translate(0,0)"/>
<path d="" fill="#000000" transform="translate(0,0)"/>
<path d="" fill="#000000" transform="translate(0,0)"/>
<path d="" fill="#000000" transform="translate(0,0)"/>
<path d="" fill="#000000" transform="translate(0,0)"/>
<path d="" fill="#000000" transform="translate(0,0)"/>
<path d="" fill="#000000" transform="translate(0,0)"/>
<path d="" fill="#000000" transform="translate(0,0)"/>
<path d="" fill="#000000" transform="translate(0,0)"/>
<path d="" fill="#000000" transform="translate(0,0)"/>
<path d="" fill="#000000" transform="translate(0,0)"/>
<path d="" fill="#000000" transform="translate(0,0)"/>
<path d="" fill="#000000" transform="translate(0,0)"/>
<path d="" fill="#000000" transform="translate(0,0)"/>
<path d="" fill="#000000" transform="translate(0,0)"/>
<path d="" fill="#000000" transform="translate(0,0)"/>
<path d="" fill="#000000" transform="translate(0,0)"/>
<path d="" fill="#000000" transform="translate(0,0)"/>
<path d="" fill="#000000" transform="translate(0,0)"/>
<path d="" fill="#000000" transform="translate(0,0)"/>
<path d="" fill="#000000" transform="translate(0,0)"/>
<path d="" fill="#000000" transform="translate(0,0)"/>
<path d="" fill="#000000" transform="translate(0,0)"/>
<path d="" fill="#000000" transform="translate(0,0)"/>
<path d="" fill="#000000" transform="translate(0,0)"/>
<path d="" fill="#000000" transform="translate(0,0)"/>
<path d="" fill="#000000" transform="translate(0,0)"/>
<path d="" fill="#000000" transform="translate(0,0)"/>
<path d="" fill="#000000" transform="translate(0,0)"/>
<path d="" fill="#000000" transform="translate(0,0)"/>
<path d="" fill="#000000" transform="translate(0,0)"/>
<path d="" fill="#000000" transform="translate(0,0)"/>
<path d="" fill="#000000" transform="translate(0,0)"/>
<path d="" fill="#000000" transform="translate(0,0)"/>
<path d="" fill="#000000" transform="translate(0,0)"/>
<path d="" fill="#000000" transform="translate(0,0)"/>
<path d="" fill="#000000" transform="translate(0,0)"/>
<path d="" fill="#000000" transform="translate(0,0)"/>
<path d="" fill="#000000" transform="translate(0,0)"/>
<path d="" fill="#000000" transform="translate(0,0)"/>
<path d="" fill="#000000" transform="translate(0,0)"/>
<path d="" fill="#000000" transform="translate(0,0)"/>
<path d="" fill="#000000" transform="translate(0,0)"/>
<path d="" fill="#000000" transform="translate(0,0)"/>
<path d="" fill="#000000" transform="translate(0,0)"/>
<path d="" fill="#000000" transform="translate(0,0)"/>
<path d="" fill="#000000" transform="translate(0,0)"/>
<path d="" fill="#000000" transform="translate(0,0)"/>
<path d="" fill="#000000" transform="translate(0,0)"/>
<path d="" fill="#000000" transform="translate(0,0)"/>
<path d="" fill="#000000" transform="translate(0,0)"/>
<path d="" fill="#000000" transform="translate(0,0)"/>
<path d="" fill="#000000" transform="translate(0,0)"/>
<path d="" fill="#000000" transform="translate(0,0)"/>
<path d="" fill="#000000" transform="translate(0,0)"/>
<path d="" fill="#000000" transform="translate(0,0)"/>
<path d="" fill="#000000" transform="translate(0,0)"/>
<path d="" fill="#000000" transform="translate(0,0)"/>
<path d="" fill="#000000" transform="translate(0,0)"/>
<path d="" fill="#000000" transform="translate(0,0)"/>
<path d="" fill="#000000" transform="translate(0,0)"/>
<path d="" fill="#000000" transform="translate(0,0)"/>
<path d="" fill="#000000" transform="translate(0,0)"/>
<path d="" fill="#000000" transform="translate(0,0)"/>
<path d="" fill="#000000" transform="translate(0,0)"/>
<path d="" fill="#000000" transform="translate(0,0)"/>
<path d="" fill="#000000" transform="translate(0,0)"/>
<path d="" fill="#000000" transform="translate(0,0)"/>
<path d="" fill="#000000" transform="translate(0,0)"/>
<path d="" fill="#000000" transform="translate(0,0)"/>
<path d="" fill="#000000" transform="translate(0,0)"/>
<path d="" fill="#000000" transform="translate(0,0)"/>
<path d="" fill="#000000" transform="translate(0,0)"/>
<path d="" fill="#000000" transform="translate(0,0)"/>
<path d="" fill="#000000" transform="translate(0,0)"/>
<path d="" fill="#000000" transform="translate(0,0)"/>
<path d="" fill="#000000" transform="translate(0,0)"/>
<path d="" fill="#000000" transform="translate(0,0)"/>
<path d="" fill="#000000" transform="translate(0,0)"/>
<path d="" fill="#000000" transform="translate(0,0)"/>
<path d="" fill="#000000" transform="translate(0,0)"/>
<path d="" fill="#000000" transform="translate(0,0)"/>
<path d="" fill="#000000" transform="translate(0,0)"/>
<path d="" fill="#000000" transform="translate(0,0)"/>
<path d="" fill="#000000" transform="translate(0,0)"/>
<path d="" fill="#000000" transform="translate(0,0)"/>
<path d="" fill="#000000" transform="translate(0,0)"/>
<path d="" fill="#000000" transform="translate(0,0)"/>
<path d="" fill="#000000" transform="translate(0,0)"/>
<path d="" fill="#000000" transform="translate(0,0)"/>
<path d="" fill="#000000" transform="translate(0,0)"/>
<path d="" fill="#000000" transform="translate(0,0)"/>
<path d="" fill="#000000" transform="translate(0,0)"/>
<path d="" fill="#000000" transform="translate(0,0)"/>
<path d="" fill="#000000" transform="translate(0,0)"/>
<path d="" fill="#000000" transform="translate(0,0)"/>
<path d="" fill="#000000" transform="translate(0,0)"/>
<path d="" fill="#000000" transform="translate(0,0)"/>
<path d="" fill="#000000" transform="translate(0,0)"/>
<path d="" fill="#000000" transform="translate(0,0)"/>
<path d="" fill="#000000" transform="translate(0,0)"/>
<path d="" fill="#000000" transform="translate(0,0)"/>
<path d="" fill="#000000" transform="translate(0,0)"/>
<path d="" fill="#000000" transform="translate(0,0)"/>
<path d="" fill="#000000" transform="translate(0,0)"/>
<path d="" fill="#000000" transform="translate(0,0)"/>
<path d="" fill="#000000" transform="translate(0,0)"/>
<path d="" fill="#000000" transform="translate(0,0)"/>
<path d="" fill="#000000" transform="translate(0,0)"/>
<path d="" fill="#000000" transform="translate(0,0)"/>
<path d="" fill="#000000" transform="translate(0,0)"/>
<path d="" fill="#000000" transform="translate(0,0)"/>
<path d="" fill="#000000" transform="translate(0,0)"/>
<path d="" fill="#000000" transform="translate(0,0)"/>
<path d="" fill="#000000" transform="translate(0,0)"/>
<path d="" fill="#000000" transform="translate(0,0)"/>
<path d="" fill="#000000" transform="translate(0,0)"/>
<path d="" fill="#000000" transform="translate(0,0)"/>
<path d="" fill="#000000" transform="translate(0,0)"/>
<path d="" fill="#000000" transform="translate(0,0)"/>
<path d="" fill="#000000" transform="translate(0,0)"/>
<path d="" fill="#000000" transform="translate(0,0)"/>
<path d="" fill="#000000" transform="translate(0,0)"/>
<path d="" fill="#000000" transform="translate(0,0)"/>
<path d="" fill="#000000" transform="translate(0,0)"/>
<path d="" fill="#000000" transform="translate(0,0)"/>
<path d="" fill="#000000" transform="translate(0,0)"/>
<path d="" fill="#000000" transform="translate(0,0)"/>
<path d="" fill="#000000" transform="translate(0,0)"/>
<path d="" fill="#000000" transform="translate(0,0)"/>
<path d="" fill="#000000" transform="translate(0,0)"/>
<path d="" fill="#000000" transform="translate(0,0)"/>
<path d="" fill="#000000" transform="translate(0,0)"/>
<path d="" fill="#000000" transform="translate(0,0)"/>
<path d="" fill="#000000" transform="translate(0,0)"/>
<path d="" fill="#000000" transform="translate(0,0)"/>
<path d="" fill="#000000" transform="translate(0,0)"/>
<path d="" fill="#000000" transform="translate(0,0)"/>
<path d="" fill="#000000" transform="translate(0,0)"/>
<path d="" fill="#000000" transform="translate(0,0)"/>
<path d="" fill="#000000" transform="translate(0,0)"/>
<path d="" fill="#000000" transform="translate(0,0)"/>
<path d="" fill="#000000" transform="translate(0,0)"/>
<path d="" fill="#000000" transform="translate(0,0)"/>
<path d="" fill="#000000" transform="translate(0,0)"/>
<path d="" fill="#000000" transform="translate(0,0)"/>
<path d="" fill="#000000" transform="translate(0,0)"/>
<path d="" fill="#000000" transform="translate(0,0)"/>
<path d="" fill="#000000" transform="translate(0,0)"/>
<path d="" fill="#000000" transform="translate(0,0)"/>
<path d="" fill="#000000" transform="translate(0,0)"/>
<path d="" fill="#000000" transform="translate(0,0)"/>
<path d="" fill="#000000" transform="translate(0,0)"/>
<path d="" fill="#000000" transform="translate(0,0)"/>
<path d="" fill="#000000" transform="translate(0,0)"/>
<path d="" fill="#000000" transform="translate(0,0)"/>
<path d="" fill="#000000" transform="translate(0,0)"/>
<path d="" fill="#000000" transform="translate(0,0)"/>
<path d="" fill="#000000" transform="translate(0,0)"/>
<path d="" fill="#000000" transform="translate(0,0)"/>
<path d="" fill="#000000" transform="translate(0,0)"/>
<path d="" fill="#000000" transform="translate(0,0)"/>
<path d="" fill="#000000" transform="translate(0,0)"/>
<path d="" fill="#000000" transform="translate(0,0)"/>
<path d="" fill="#000000" transform="translate(0,0)"/>
<path d="" fill="#000000" transform="translate(0,0)"/>
<path d="" fill="#000000" transform="translate(0,0)"/>
<path d="" fill="#000000" transform="translate(0,0)"/>
<path d="" fill="#000000" transform="translate(0,0)"/>
<path d="" fill="#000000" transform="translate(0,0)"/>
<path d="" fill="#000000" transform="translate(0,0)"/>
<path d="" fill="#000000" transform="translate(0,0)"/>
<path d="" fill="#000000" transform="translate(0,0)"/>
<path d="" fill="#000000" transform="translate(0,0)"/>
<path d="" fill="#000000" transform="translate(0,0)"/>
<path d="" fill="#000000" transform="translate(0,0)"/>
<path d="" fill="#000000" transform="translate(0,0)"/>
<path d="" fill="#000000" transform="translate(0,0)"/>
<path d="" fill="#000000" transform="translate(0,0)"/>
<path d="" fill="#000000" transform="translate(0,0)"/>
<path d="" fill="#000000" transform="translate(0,0)"/>
<path d="" fill="#000000" transform="translate(0,0)"/>
<path d="" fill="#000000" transform="translate(0,0)"/>
<path d="" fill="#000000" transform="translate(0,0)"/>
<path d="" fill="#000000" transform="translate(0,0)"/>
<path d="" fill="#000000" transform="translate(0,0)"/>
<path d="" fill="#000000" transform="translate(0,0)"/>
<path d="" fill="#000000" transform="translate(0,0)"/>
<path d="" fill="#000000" transform="translate(0,0)"/>
<path d="" fill="#000000" transform="translate(0,0)"/>
<path d="" fill="#000000" transform="translate(0,0)"/>
<path d="" fill="#000000" transform="translate(0,0)"/>
<path d="" fill="#000000" transform="translate(0,0)"/>
<path d="" fill="#000000" transform="translate(0,0)"/>
<path d="" fill="#000000" transform="translate(0,0)"/>
<path d="" fill="#000000" transform="translate(0,0)"/>
<path d="" fill="#000000" transform="translate(0,0)"/>
<path d="" fill="#000000" transform="translate(0,0)"/>
<path d="" fill="#000000" transform="translate(0,0)"/>
<path d="" fill="#000000" transform="translate(0,0)"/>
<path d="" fill="#000000" transform="translate(0,0)"/>
<path d="" fill="#000000" transform="translate(0,0)"/>
<path d="" fill="#000000" transform="translate(0,0)"/>
<path d="" fill="#000000" transform="translate(0,0)"/>
<path d="" fill="#000000" transform="translate(0,0)"/>
<path d="" fill="#000000" transform="translate(0,0)"/>
<path d="" fill="#000000" transform="translate(0,0)"/>
<path d="" fill="#000000" transform="translate(0,0)"/>
<path d="" fill="#000000" transform="translate(0,0)"/>
<path d="" fill="#000000" transform="translate(0,0)"/>
<path d="" fill="#000000" transform="translate(0,0)"/>
<path d="" fill="#000000" transform="translate(0,0)"/>
<path d="" fill="#000000" transform="translate(0,0)"/>
<path d="" fill="#000000" transform="translate(0,0)"/>
<path d="" fill="#000000" transform="translate(0,0)"/>
<path d="" fill="#000000" transform="translate(0,0)"/>
<path d="" fill="#000000" transform="translate(0,0)"/>
<path d="" fill="#000000" transform="translate(0,0)"/>
<path d="" fill="#000000" transform="translate(0,0)"/>
<path d="" fill="#000000" transform="translate(0,0)"/>
<path d="" fill="#000000" transform="translate(0,0)"/>
<path d="" fill="#000000" transform="translate(0,0)"/>
<path d="" fill="#000000" transform="translate(0,0)"/>
<path d="" fill="#000000" transform="translate(0,0)"/>
<path d="" fill="#000000" transform="translate(0,0)"/>
<path d="" fill="#000000" transform="translate(0,0)"/>
<path d="" fill="#000000" transform="translate(0,0)"/>
<path d="" fill="#000000" transform="translate(0,0)"/>
<path d="" fill="#000000" transform="translate(0,0)"/>
<path d="" fill="#000000" transform="translate(0,0)"/>
<path d="" fill="#000000" transform="translate(0,0)"/>
<path d="" fill="#000000" transform="translate(0,0)"/>
<path d="" fill="#000000" transform="translate(0,0)"/>
<path d="" fill="#000000" transform="translate(0,0)"/>
<path d="" fill="#000000" transform="translate(0,0)"/>
<path d="" fill="#000000" transform="translate(0,0)"/>
<path d="" fill="#000000" transform="translate(0,0)"/>
<path d="" fill="#000000" transform="translate(0,0)"/>
<path d="" fill="#000000" transform="translate(0,0)"/>
<path d="" fill="#000000" transform="translate(0,0)"/>
<path d="" fill="#000000" transform="translate(0,0)"/>
<path d="" fill="#000000" transform="translate(0,0)"/>
<path d="" fill="#000000" transform="translate(0,0)"/>
<path d="" fill="#000000" transform="translate(0,0)"/>
<path d="" fill="#000000" transform="translate(0,0)"/>
<path d="" fill="#000000" transform="translate(0,0)"/>
<path d="" fill="#000000" transform="translate(0,0)"/>
<path d="" fill="#000000" transform="translate(0,0)"/>
<path d="" fill="#000000" transform="translate(0,0)"/>
<path d="" fill="#000000" transform="translate(0,0)"/>
<path d="" fill="#000000" transform="translate(0,0)"/>
<path d="" fill="#000000" transform="translate(0,0)"/>
<path d="" fill="#000000" transform="translate(0,0)"/>
<path d="" fill="#000000" transform="translate(0,0)"/>
<path d="" fill="#000000" transform="translate(0,0)"/>
<path d="" fill="#000000" transform="translate(0,0)"/>
<path d="" fill="#000000" transform="translate(0,0)"/>
<path d="" fill="#000000" transform="translate(0,0)"/>
<path d="" fill="#000000" transform="translate(0,0)"/>
<path d="" fill="#000000" transform="translate(0,0)"/>
<path d="" fill="#000000" transform="translate(0,0)"/>
<path d="" fill="#000000" transform="translate(0,0)"/>
<path d="" fill="#000000" transform="translate(0,0)"/>
<path d="" fill="#000000" transform="translate(0,0)"/>
<path d="" fill="#000000" transform="translate(0,0)"/>
<path d="" fill="#000000" transform="translate(0,0)"/>
<path d="" fill="#000000" transform="translate(0,0)"/>
<path d="" fill="#000000" transform="translate(0,0)"/>
<path d="" fill="#000000" transform="translate(0,0)"/>
<path d="" fill="#000000" transform="translate(0,0)"/>
<path d="" fill="#000000" transform="translate(0,0)"/>
<path d="" fill="#000000" transform="translate(0,0)"/>
<path d="" fill="#000000" transform="translate(0,0)"/>
<path d="" fill="#000000" transform="translate(0,0)"/>
<path d="" fill="#000000" transform="translate(0,0)"/>
<path d="" fill="#000000" transform="translate(0,0)"/>
<path d="" fill="#000000" transform="translate(0,0)"/>
<path d="" fill="#000000" transform="translate(0,0)"/>
<path d="" fill="#000000" transform="translate(0,0)"/>
<path d="" fill="#000000" transform="translate(0,0)"/>
<path d="" fill="#000000" transform="translate(0,0)"/>
<path d="" fill="#000000" transform="translate(0,0)"/>
<path d="" fill="#000000" transform="translate(0,0)"/>
<path d="" fill="#000000" transform="translate(0,0)"/>
<path d="" fill="#000000" transform="translate(0,0)"/>
<path d="" fill="#000000" transform="translate(0,0)"/>
<path d="" fill="#000000" transform="translate(0,0)"/>
<path d="" fill="#000000" transform="translate(0,0)"/>
<path d="" fill="#000000" transform="translate(0,0)"/>
<path d="" fill="#000000" transform="translate(0,0)"/>
<path d="" fill="#000000" transform="translate(0,0)"/>
<path d="" fill="#000000" transform="translate(0,0)"/>
<path d="" fill="#000000" transform="translate(0,0)"/>
<path d="" fill="#000000" transform="translate(0,0)"/>
<path d="" fill="#000000" transform="translate(0,0)"/>
<path d="" fill="#000000" transform="translate(0,0)"/>
<path d="" fill="#000000" transform="translate(0,0)"/>
<path d="" fill="#000000" transform="translate(0,0)"/>
<path d="" fill="#000000" transform="translate(0,0)"/>
<path d="" fill="#000000" transform="translate(0,0)"/>
<path d="" fill="#000000" transform="translate(0,0)"/>
<path d="" fill="#000000" transform="translate(0,0)"/>
<path d="" fill="#000000" transform="translate(0,0)"/>
<path d="" fill="#000000" transform="translate(0,0)"/>
<path d="" fill="#000000" transform="translate(0,0)"/>
<path d="" fill="#000000" transform="translate(0,0)"/>
<path d="" fill="#000000" transform="translate(0,0)"/>
<path d="" fill="#000000" transform="translate(0,0)"/>
<path d="" fill="#000000" transform="translate(0,0)"/>
<path d="" fill="#000000" transform="translate(0,0)"/>
<path d="" fill="#000000" transform="translate(0,0)"/>
<path d="" fill="#000000" transform="translate(0,0)"/>
<path d="" fill="#000000" transform="translate(0,0)"/>
<path d="" fill="#000000" transform="translate(0,0)"/>
<path d="" fill="#000000" transform="translate(0,0)"/>
<path d="" fill="#000000" transform="translate(0,0)"/>
<path d="" fill="#000000" transform="translate(0,0)"/>
<path d="" fill="#000000" transform="translate(0,0)"/>
<path d="" fill="#000000" transform="translate(0,0)"/>
<path d="" fill="#000000" transform="translate(0,0)"/>
<path d="" fill="#000000" transform="translate(0,0)"/>
<path d="" fill="#000000" transform="translate(0,0)"/>
<path d="" fill="#000000" transform="translate(0,0)"/>
<path d="" fill="#000000" transform="translate(0,0)"/>
<path d="" fill="#000000" transform="translate(0,0)"/>
<path d="" fill="#000000" transform="translate(0,0)"/>
<path d="" fill="#000000" transform="translate(0,0)"/>
<path d="" fill="#000000" transform="translate(0,0)"/>
<path d="" fill="#000000" transform="translate(0,0)"/>
<path d="" fill="#000000" transform="translate(0,0)"/>
<path d="" fill="#000000" transform="translate(0,0)"/>
<path d="" fill="#000000" transform="translate(0,0)"/>
<path d="" fill="#000000" transform="translate(0,0)"/>
<path d="" fill="#000000" transform="translate(0,0)"/>
<path d="" fill="#000000" transform="translate(0,0)"/>
<path d="" fill="#000000" transform="translate(0,0)"/>
<path d="" fill="#000000" transform="translate(0,0)"/>
<path d="" fill="#000000" transform="translate(0,0)"/>
<path d="" fill="#000000" transform="translate(0,0)"/>
<path d="" fill="#000000" transform="translate(0,0)"/>
<path d="" fill="#000000" transform="translate(0,0)"/>
<path d="" fill="#000000" transform="translate(0,0)"/>
<path d="" fill="#000000" transform="translate(0,0)"/>
<path d="" fill="#000000" transform="translate(0,0)"/>
<path d="" fill="#000000" transform="translate(0,0)"/>
<path d="" fill="#000000" transform="translate(0,0)"/>
<path d="" fill="#000000" transform="translate(0,0)"/>
<path d="" fill="#000000" transform="translate(0,0)"/>
<path d="" fill="#000000" transform="translate(0,0)"/>
<path d="" fill="#000000" transform="translate(0,0)"/>
<path d="" fill="#000000" transform="translate(0,0)"/>
<path d="" fill="#000000" transform="translate(0,0)"/>
<path d="" fill="#000000" transform="translate(0,0)"/>
<path d="" fill="#000000" transform="translate(0,0)"/>
<path d="" fill="#000000" transform="translate(0,0)"/>
<path d="" fill="#000000" transform="translate(0,0)"/>
<path d="" fill="#000000" transform="translate(0,0)"/>
<path d="" fill="#000000" transform="translate(0,0)"/>
<path d="" fill="#000000" transform="translate(0,0)"/>
<path d="" fill="#000000" transform="translate(0,0)"/>
<path d="" fill="#000000" transform="translate(0,0)"/>
<path d="" fill="#000000" transform="translate(0,0)"/>
<path d="" fill="#000000" transform="translate(0,0)"/>
<path d="" fill="#000000" transform="translate(0,0)"/>
<path d="" fill="#000000" transform="translate(0,0)"/>
<path d="" fill="#000000" transform="translate(0,0)"/>
<path d="" fill="#000000" transform="translate(0,0)"/>
<path d="" fill="#000000" transform="translate(0,0)"/>
<path d="" fill="#000000" transform="translate(0,0)"/>
<path d="" fill="#000000" transform="translate(0,0)"/>
<path d="" fill="#000000" transform="translate(0,0)"/>
<path d="" fill="#000000" transform="translate(0,0)"/>
<path d="" fill="#000000" transform="translate(0,0)"/>
<path d="" fill="#000000" transform="translate(0,0)"/>
<path d="" fill="#000000" transform="translate(0,0)"/>
<path d="" fill="#000000" transform="translate(0,0)"/>
<path d="" fill="#000000" transform="translate(0,0)"/>
<path d="" fill="#000000" transform="translate(0,0)"/>
<path d="" fill="#000000" transform="translate(0,0)"/>
<path d="" fill="#000000" transform="translate(0,0)"/>
<path d="" fill="#000000" transform="translate(0,0)"/>
<path d="" fill="#000000" transform="translate(0,0)"/>
<path d="" fill="#000000" transform="translate(0,0)"/>
<path d="" fill="#000000" transform="translate(0,0)"/>
<path d="" fill="#000000" transform="translate(0,0)"/>
<path d="" fill="#000000" transform="translate(0,0)"/>
<path d="" fill="#000000" transform="translate(0,0)"/>
<path d="" fill="#000000" transform="translate(0,0)"/>
<path d="" fill="#000000" transform="translate(0,0)"/>
<path d="" fill="#000000" transform="translate(0,0)"/>
<path d="" fill="#000000" transform="translate(0,0)"/>
<path d="" fill="#000000" transform="translate(0,0)"/>
<path d="" fill="#000000" transform="translate(0,0)"/>
<path d="" fill="#000000" transform="translate(0,0)"/>
<path d="" fill="#000000" transform="translate(0,0)"/>
<path d="" fill="#000000" transform="translate(0,0)"/>
<path d="" fill="#000000" transform="translate(0,0)"/>
<path d="" fill="#000000" transform="translate(0,0)"/>
<path d="" fill="#000000" transform="translate(0,0)"/>
<path d="" fill="#000000" transform="translate(0,0)"/>
<path d="" fill="#000000" transform="translate(0,0)"/>
<path d="" fill="#000000" transform="translate(0,0)"/>
<path d="" fill="#000000" transform="translate(0,0)"/>
<path d="" fill="#000000" transform="translate(0,0)"/>
<path d="" fill="#000000" transform="translate(0,0)"/>
<path d="" fill="#000000" transform="translate(0,0)"/>
<path d="" fill="#000000" transform="translate(0,0)"/>
<path d="" fill="#000000" transform="translate(0,0)"/>
<path d="" fill="#000000" transform="translate(0,0)"/>
<path d="" fill="#000000" transform="translate(0,0)"/>
<path d="" fill="#000000" transform="translate(0,0)"/>
<path d="" fill="#000000" transform="translate(0,0)"/>
<path d="" fill="#000000" transform="translate(0,0)"/>
<path d="" fill="#000000" transform="translate(0,0)"/>
<path d="" fill="#000000" transform="translate(0,0)"/>
<path d="" fill="#000000" transform="translate(0,0)"/>
<path d="" fill="#000000" transform="translate(0,0)"/>
<path d="" fill="#000000" transform="translate(0,0)"/>
<path d="" fill="#000000" transform="translate(0,0)"/>
<path d="" fill="#000000" transform="translate(0,0)"/>
<path d="" fill="#000000" transform="translate(0,0)"/>
<path d="" fill="#000000" transform="translate(0,0)"/>
<path d="" fill="#000000" transform="translate(0,0)"/>
<path d="" fill="#000000" transform="translate(0,0)"/>
<path d="" fill="#000000" transform="translate(0,0)"/>
<path d="" fill="#000000" transform="translate(0,0)"/>
<path d="" fill="#000000" transform="translate(0,0)"/>
<path d="" fill="#000000" transform="translate(0,0)"/>
<path d="" fill="#000000" transform="translate(0,0)"/>
<path d="" fill="#000000" transform="translate(0,0)"/>
<path d="" fill="#000000" transform="translate(0,0)"/>
<path d="" fill="#000000" transform="translate(0,0)"/>
<path d="" fill="#000000" transform="translate(0,0)"/>
<path d="" fill="#000000" transform="translate(0,0)"/>
<path d="" fill="#000000" transform="translate(0,0)"/>
<path d="" fill="#000000" transform="translate(0,0)"/>
<path d="" fill="#000000" transform="translate(0,0)"/>
<path d="" fill="#000000" transform="translate(0,0)"/>
<path d="" fill="#000000" transform="translate(0,0)"/>
<path d="" fill="#000000" transform="translate(0,0)"/>
<path d="" fill="#000000" transform="translate(0,0)"/>
<path d="" fill="#000000" transform="translate(0,0)"/>
<path d="" fill="#000000" transform="translate(0,0)"/>
<path d="" fill="#000000" transform="translate(0,0)"/>
<path d="" fill="#000000" transform="translate(0,0)"/>
<path d="" fill="#000000" transform="translate(0,0)"/>
<path d="" fill="#000000" transform="translate(0,0)"/>
<path d="" fill="#000000" transform="translate(0,0)"/>
<path d="" fill="#000000" transform="translate(0,0)"/>
<path d="" fill="#000000" transform="translate(0,0)"/>
<path d="" fill="#000000" transform="translate(0,0)"/>
<path d="" fill="#000000" transform="translate(0,0)"/>
<path d="" fill="#000000" transform="translate(0,0)"/>
<path d="" fill="#000000" transform="translate(0,0)"/>
<path d="" fill="#000000" transform="translate(0,0)"/>
<path d="" fill="#000000" transform="translate(0,0)"/>
<path d="" fill="#000000" transform="translate(0,0)"/>
<path d="" fill="#000000" transform="translate(0,0)"/>
<path d="" fill="#000000" transform="translate(0,0)"/>
<path d="" fill="#000000" transform="translate(0,0)"/>
<path d="" fill="#000000" transform="translate(0,0)"/>
<path d="" fill="#000000" transform="translate(0,0)"/>
<path d="" fill="#000000" transform="translate(0,0)"/>
<path d="" fill="#000000" transform="translate(0,0)"/>
<path d="" fill="#000000" transform="translate(0,0)"/>
<path d="" fill="#000000" transform="translate(0,0)"/>
<path d="" fill="#000000" transform="translate(0,0)"/>
<path d="" fill="#000000" transform="translate(0,0)"/>
<path d="" fill="#000000" transform="translate(0,0)"/>
<path d="" fill="#000000" transform="translate(0,0)"/>
<path d="" fill="#000000" transform="translate(0,0)"/>
<path d="" fill="#000000" transform="translate(0,0)"/>
<path d="" fill="#000000" transform="translate(0,0)"/>
<path d="" fill="#000000" transform="translate(0,0)"/>
<path d="" fill="#000000" transform="translate(0,0)"/>
<path d="" fill="#000000" transform="translate(0,0)"/>
<path d="" fill="#000000" transform="translate(0,0)"/>
<path d="" fill="#000000" transform="translate(0,0)"/>
<path d="" fill="#000000" transform="translate(0,0)"/>
<path d="" fill="#000000" transform="translate(0,0)"/>
<path d="" fill="#000000" transform="translate(0,0)"/>
<path d="" fill="#000000" transform="translate(0,0)"/>
<path d="" fill="#000000" transform="translate(0,0)"/>
<path d="" fill="#000000" transform="translate(0,0)"/>
<path d="" fill="#000000" transform="translate(0,0)"/>
<path d="" fill="#000000" transform="translate(0,0)"/>
<path d="" fill="#000000" transform="translate(0,0)"/>
<path d="" fill="#000000" transform="translate(0,0)"/>
<path d="" fill="#000000" transform="translate(0,0)"/>
<path d="" fill="#000000" transform="translate(0,0)"/>
<path d="" fill="#000000" transform="translate(0,0)"/>
<path d="" fill="#000000" transform="translate(0,0)"/>
<path d="" fill="#000000" transform="translate(0,0)"/>
<path d="" fill="#000000" transform="translate(0,0)"/>
<path d="" fill="#000000" transform="translate(0,0)"/>
<path d="" fill="#000000" transform="translate(0,0)"/>
<path d="" fill="#000000" transform="translate(0,0)"/>
<path d="" fill="#000000" transform="translate(0,0)"/>
<path d="" fill="#000000" transform="translate(0,0)"/>
<path d="" fill="#000000" transform="translate(0,0)"/>
</svg>
