<?xml version="1.0" encoding="UTF-8"?>
<svg version="1.1" xmlns="http://www.w3.org/2000/svg" width="500" height="185">
<path d="M0 0 C17 0 17 0 21.3359375 2.859375 C22.91210938 4.72265625 22.91210938 4.72265625 24.375 6.75 C25.51817649 8.14066831 26.66140625 9.53129282 27.8046875 10.921875 C28.34448242 11.61603516 28.88427734 12.31019531 29.44042969 13.02539062 C31.65443384 15.82859438 34.05709361 18.39328357 36.5 21 C37.37398438 21.95648438 38.24796875 22.91296875 39.1484375 23.8984375 C42.99598733 28.09601319 46.8923369 32.24837855 50.79101562 36.3984375 C55.60444944 41.5357978 60.28686746 46.76318606 65 52 C65.33 34.84 65.66 17.68 66 0 C71.28 0 76.56 0 82 0 C82 25.41 82 50.82 82 77 C66 77 66 77 60.375 71.9375 C58.89379883 70.18701172 58.89379883 70.18701172 57.76953125 68.6171875 C54.80675379 64.66032735 51.47034892 61.1361911 48.0625 57.5625 C46.86566973 56.2852747 45.67034906 55.00663312 44.4765625 53.7265625 C43.89293945 53.10168945 43.30931641 52.47681641 42.70800781 51.83300781 C40.10840145 49.0431501 37.52257203 46.24083669 34.9375 43.4375 C28.64072127 36.61046622 22.31969531 29.80582572 16 23 C15.67 40.82 15.34 58.64 15 77 C10.05 77 5.1 77 0 77 C0 51.59 0 26.18 0 0 Z " fill="#5E5E5E" transform="translate(332,60)"/>
<path d="M0 0 C10.36181358 9.26565366 14.25374468 18.55234475 15.20703125 32.375 C14.98894535 43.60642386 11.56823091 52.83235064 3.8828125 60.9375 C-6.19675227 70.50692973 -17.76180471 73.14972674 -31.35546875 73.0625 C-32.27755127 73.05686035 -33.19963379 73.0512207 -34.1496582 73.04541016 C-47.33914258 72.81110571 -57.91839029 69.49302094 -67.85546875 60.5625 C-76.61819201 51.30260095 -77.49530664 39.81313953 -77.3203125 27.796875 C-76.9034605 16.55638828 -71.84213378 8.09462395 -63.79296875 0.5 C-47.91006948 -12.3459493 -16.22951243 -12.41262901 0 0 Z M-55.609375 14.05859375 C-60.24731309 19.53060246 -62.1460961 25.62275408 -62.04296875 32.75 C-61.27228285 41.26311496 -59.13063774 46.9818998 -52.85546875 52.9375 C-44.25278967 59.80882229 -33.60452073 59.83586276 -23.04296875 58.75 C-15.40961489 57.23056463 -9.68054084 54.07034825 -5.04296875 47.75 C-0.7165514 40.23485283 -0.02145489 32.14855545 -2.10546875 23.8125 C-4.15797884 17.54041103 -7.60316648 12.75123403 -13.359375 9.40234375 C-26.85383119 3.19978481 -44.38343934 3.31723085 -55.609375 14.05859375 Z " fill="#5E5E5E" transform="translate(77.04296875,66.25)"/>
<path d="M0 0 C7.77493444 6.95567482 13.24505759 14.9415022 14.03125 25.59741211 C14.60759638 38.18625794 13.80388351 48.78166647 5.515625 58.9140625 C-2.37924583 67.54907747 -11.93126606 71.9331367 -23.609375 72.89794922 C-26.21721898 72.99429568 -28.81232872 73.02065098 -31.421875 73.00390625 C-32.34395752 72.9982666 -33.26604004 72.99262695 -34.21606445 72.98681641 C-47.4005593 72.7526006 -58.04979261 69.46244706 -67.921875 60.44140625 C-75.58866573 52.21407186 -78.65756141 41.19392772 -78.36328125 30.109375 C-77.04634723 17.56811104 -72.81930578 7.78591026 -63.109375 -0.30859375 C-47.02090905 -12.27419656 -16.14265642 -12.29183189 0 0 Z M-58.109375 16.69140625 C-62.35038038 23.45050858 -63.26526858 31.24869474 -61.61328125 39.02734375 C-59.73848394 45.23429981 -57.32729997 50.70401579 -51.66796875 54.19921875 C-41.53515096 59.36149855 -29.12125081 60.82487589 -17.984375 57.62890625 C-11.81474824 55.0228753 -6.78458759 50.59618756 -3.609375 44.69140625 C-0.55141914 36.66941443 -0.61478017 26.97101398 -4.109375 19.12890625 C-8.04881947 12.46726139 -14.03842366 8.30848207 -21.4296875 6.16015625 C-35.89320375 3.6300951 -48.15106263 5.6172576 -58.109375 16.69140625 Z " fill="#5E5E5E" transform="translate(305.109375,66.30859375)"/>
<path d="M0 0 C13.7671875 -0.0928125 13.7671875 -0.0928125 27.8125 -0.1875 C32.12598511 -0.22846802 32.12598511 -0.22846802 36.52661133 -0.27026367 C38.83674705 -0.27903544 41.14688744 -0.28667774 43.45703125 -0.29296875 C44.63148804 -0.30831665 45.80594482 -0.32366455 47.01599121 -0.33947754 C56.47719927 -0.34244499 66.50245251 0.27247175 73.62890625 7.2109375 C77.67404209 12.48920592 78.58671425 18.93980154 78.34375 25.44921875 C77.50824516 31.64904447 75.41815699 37.09961377 70.8125 41.4375 C68.07227568 43.47677299 65.51447331 44.63752122 62.26171875 45.66015625 C61.46080811 45.91547119 60.65989746 46.17078613 59.8347168 46.43383789 C59.22926025 46.62067139 58.62380371 46.80750488 58 47 C58.38220703 47.48766846 58.76441406 47.97533691 59.15820312 48.4777832 C80 75.09747292 80 75.09747292 80 77 C63.51054072 79.34632622 63.51054072 79.34632622 58.08447266 75.71972656 C54.51367312 72.10071641 51.99720107 67.7625366 49.44921875 63.39208984 C46.92064722 59.21841331 43.96257135 55.35739912 41.0625 51.4375 C39.51475085 49.29590431 37.97477925 47.14898022 36.43798828 44.99951172 C35.47168433 43.65587345 34.49590655 42.31900265 33.51123047 40.98876953 C30 36.21216412 30 36.21216412 30 34 C30.6297876 33.98541748 31.2595752 33.97083496 31.90844727 33.95581055 C34.79371321 33.88081006 37.67788723 33.78432361 40.5625 33.6875 C41.55314453 33.66494141 42.54378906 33.64238281 43.56445312 33.61914062 C49.4067227 33.40563576 53.87287636 32.89734101 59 30 C61.47342266 26.28986601 61.38503486 24.38939738 61 20 C60.21750908 17.5392464 60.21750908 17.5392464 58 16 C49.45566923 13.44232204 40.78855213 13.55839196 31.9375 13.375 C26.678125 13.25125 21.41875 13.1275 16 13 C16 34.12 16 55.24 16 77 C10.72 77 5.44 77 0 77 C0 51.59 0 26.18 0 0 Z " fill="#5E5E5E" transform="translate(104,60)"/>
<path d="M0 0 C0.99 0 1.98 0 3 0 C3.08564209 0.62567871 3.17128418 1.25135742 3.25952148 1.89599609 C3.64853518 4.72284647 4.0429495 7.54891732 4.4375 10.375 C4.57220703 11.35984375 4.70691406 12.3446875 4.84570312 13.359375 C4.97783203 14.30039063 5.10996094 15.24140625 5.24609375 16.2109375 C5.36654053 17.08024902 5.4869873 17.94956055 5.61108398 18.84521484 C5.90299163 21.04034561 5.90299163 21.04034561 7 23 C17.37612838 23.50937357 27.3932352 22.39168894 37.67138672 21.06713867 C43.84363995 20.28785119 49.77829926 19.84265456 56 20 C53.56762318 22.8676336 51.33558589 23.76844292 47.7734375 24.8671875 C46.74089844 25.19589844 45.70835937 25.52460938 44.64453125 25.86328125 C42.48843934 26.53045903 40.33219272 27.19713705 38.17578125 27.86328125 C32.33441402 29.72354318 27.08546965 31.78356601 21.82666016 34.95361328 C20 36 20 36 17 37 C15.6715977 41.50283912 15.6715977 41.50283912 16.91796875 45.859375 C18.50999213 48.01774844 20.20688638 50.0045506 22 52 C23.17949219 53.32257812 23.17949219 53.32257812 24.3828125 54.671875 C26.10160724 56.5746386 27.82967427 58.46906299 29.56640625 60.35546875 C35.40476109 66.69987682 40.97362011 73.28336568 46.57080078 79.84008789 C49.9518516 83.79680794 53.38107332 87.7030803 56.890625 91.546875 C58 93 58 93 58 95 C55.12598616 93.66167934 52.74332774 92.14195161 50.26953125 90.1640625 C49.55748535 89.60009766 48.84543945 89.03613281 48.11181641 88.45507812 C47.35304199 87.85115234 46.59426758 87.24722656 45.8125 86.625 C27.17052436 69.94827619 27.17052436 69.94827619 5 61 C1.64612094 73.14416705 -0.40056306 85.28029351 -2.125 97.75 C-2.50091319 100.45522377 -2.87941707 103.1599472 -3.26657104 105.86358643 C-3.50479528 107.52764256 -3.73668752 109.19262167 -3.96121216 110.85858154 C-4.49088153 114.5635269 -4.99595503 117.79224409 -7 121 C-7.76248237 116.85532375 -8.17867216 112.84046543 -8.34130859 108.63085938 C-8.39161224 107.38937134 -8.44191589 106.1478833 -8.4937439 104.86877441 C-8.51878368 104.21302933 -8.54382347 103.55728424 -8.56962204 102.88166809 C-8.64964208 100.81260338 -8.73601735 98.74389562 -8.82437134 96.6751709 C-9.07518926 90.79701243 -9.32178658 84.91875728 -9.546875 79.03955078 C-9.68539446 75.43350516 -9.83728358 71.82823109 -9.99776077 68.22309875 C-10.05612509 66.85504816 -10.10954077 65.48677668 -10.15778732 64.11833191 C-10.22586907 62.20144485 -10.31253395 60.2852455 -10.39990234 58.36914062 C-10.4653273 56.73748962 -10.4653273 56.73748962 -10.53207397 55.07287598 C-11.22631765 50.51376919 -12.90786841 47.15832138 -16.0625 43.8125 C-25.28512149 38.12194631 -36.40215218 37.87677288 -46.9375 37.4375 C-47.90751953 37.39431641 -48.87753906 37.35113281 -49.87695312 37.30664062 C-52.25118601 37.20137907 -54.62550921 37.09924293 -57 37 C-57.33 36.34 -57.66 35.68 -58 35 C-47.57605767 32.64878037 -37.14107038 30.8055034 -26.57641602 29.19775391 C-16.32155161 27.96826391 -16.32155161 27.96826391 -7 24 C-5.39879321 20.72348951 -5.39879321 20.72348951 -4.75 16.875 C-4.45008781 15.52685891 -4.14800684 14.17919846 -3.84375 12.83203125 C-3.5653125 11.56746094 -3.286875 10.30289062 -3 9 C-2.07939978 5.96440014 -1.05043677 2.99374481 0 0 Z " fill="#FF5E00" transform="translate(442,0)"/>
<path d="M0 0 C5.28 0 10.56 0 16 0 C16 25.41 16 50.82 16 77 C10.72 77 5.44 77 0 77 C0 51.59 0 26.18 0 0 Z " fill="#5E5E5E" transform="translate(198,60)"/>
<path d="M0 0 C8.91 0 17.82 0 27 0 C27 1.65 27 3.3 27 5 C20.07 5 13.14 5 6 5 C6 6.98 6 8.96 6 11 C11.94 11 17.88 11 24 11 C24 12.98 24 14.96 24 17 C18.06 17 12.12 17 6 17 C6 19.31 6 21.62 6 24 C12.93 24 19.86 24 27 24 C27 25.98 27 27.96 27 30 C18.09 30 9.18 30 0 30 C0 20.1 0 10.2 0 0 Z " fill="#5E5E5E" transform="translate(241,155)"/>
<path d="M0 0 C1.98 0 3.96 0 6 0 C6 3.63 6 7.26 6 11 C12.27 11 18.54 11 25 11 C25 7.37 25 3.74 25 0 C27.31 0 29.62 0 32 0 C32 9.9 32 19.8 32 30 C29.69 30 27.38 30 25 30 C25 25.71 25 21.42 25 17 C18.73 17 12.46 17 6 17 C6 21.29 6 25.58 6 30 C4.02 30 2.04 30 0 30 C0 20.1 0 10.2 0 0 Z " fill="#5E5E5E" transform="translate(382,155)"/>
<path d="M0 0 C2.31 0 4.62 0 7 0 C7 3.63 7 7.26 7 11 C13.27 11 19.54 11 26 11 C26 7.37 26 3.74 26 0 C27.98 0 29.96 0 32 0 C32 9.9 32 19.8 32 30 C30.02 30 28.04 30 26 30 C26 25.71 26 21.42 26 17 C19.73 17 13.46 17 7 17 C7 21.29 7 25.58 7 30 C4.69 30 2.38 30 0 30 C0 20.1 0 10.2 0 0 Z " fill="#5F5F5F" transform="translate(198,155)"/>
<path d="M0 0 C2.97 0 5.94 0 9 0 C10.98852418 4.05798447 12.96416266 8.12211149 14.9375 12.1875 C15.50146484 13.33798828 16.06542969 14.48847656 16.64648438 15.67382812 C17.18466797 16.78564453 17.72285156 17.89746094 18.27734375 19.04296875 C18.77484131 20.06414795 19.27233887 21.08532715 19.78491211 22.13745117 C20.91111567 24.79060301 21.55997652 27.16150655 22 30 C19.69 30 17.38 30 15 30 C14.67386719 29.02804688 14.34773438 28.05609375 14.01171875 27.0546875 C12.24089692 23.58680702 12.24089692 23.58680702 8.20703125 23.1953125 C6.74295894 23.14231441 5.2775223 23.11988202 3.8125 23.125 C3.06291016 23.104375 2.31332031 23.08375 1.54101562 23.0625 C-0.30550787 23.01545482 -2.15288219 23.00425113 -4 23 C-4.309375 23.969375 -4.61875 24.93875 -4.9375 25.9375 C-6 29 -6 29 -7 30 C-9.33297433 30.04092937 -11.66705225 30.04241723 -14 30 C-12.70242463 25.84883565 -11.14056506 22.04409682 -9.1796875 18.1640625 C-8.64472656 17.10058594 -8.10976563 16.03710938 -7.55859375 14.94140625 C-7.00300781 13.84699219 -6.44742187 12.75257813 -5.875 11.625 C-5.31167969 10.50738281 -4.74835938 9.38976562 -4.16796875 8.23828125 C-2.78225433 5.4903391 -1.39283053 2.7443402 0 0 Z M4 6 C2.35 9.63 0.7 13.26 -1 17 C2.3 17 5.6 17 9 17 C7.7874262 13.27566618 6.49140021 9.62197194 5 6 C4.67 6 4.34 6 4 6 Z " fill="#5E5E5E" transform="translate(287,155)"/>
<path d="M0 0 C10.89 0 21.78 0 33 0 C33 1.65 33 3.3 33 5 C28.71 5 24.42 5 20 5 C20 13.25 20 21.5 20 30 C17.69 30 15.38 30 13 30 C13 21.75 13 13.5 13 5 C8.71 5 4.42 5 0 5 C0 3.35 0 1.7 0 0 Z " fill="#5E5E5E" transform="translate(341,155)"/>
<path d="M0 0 C2.31 0 4.62 0 7 0 C7 7.92 7 15.84 7 24 C13.93 24 20.86 24 28 24 C28 25.98 28 27.96 28 30 C18.76 30 9.52 30 0 30 C0 20.1 0 10.2 0 0 Z " fill="#5F5F5F" transform="translate(316,155)"/>
</svg>
