<?xml version="1.0" encoding="UTF-8"?>
<svg version="1.1" xmlns="http://www.w3.org/2000/svg" width="500" height="185">
<path d="M0 0 C18 0 18 0 23 3 C24.921875 5.12890625 24.921875 5.12890625 26.75 7.5625 C30.25864536 12.10193383 33.96325868 16.37134918 37.828125 20.609375 C39.85407556 22.83937814 41.83935616 25.09829557 43.8125 27.375 C45.63285373 29.47475686 47.44348316 31.43211179 49.4375 33.375 C51 35 51 35 51 37 C51.66 37 52.32 37 53 37 C54.5859375 38.57421875 54.5859375 38.57421875 56.375 40.6875 C56.96023438 41.37199219 57.54546875 42.05648437 58.1484375 42.76171875 C60.12657602 45.15301279 62.0637164 47.57475336 64 50 C64.01030746 49.40309357 64.02061493 48.80618713 64.03123474 48.19119263 C64.13917388 41.99469771 64.25378188 35.79835193 64.37231445 29.60205078 C64.41570376 27.28762931 64.45737584 24.973175 64.49731445 22.65869141 C64.55492032 19.33746427 64.61864251 16.01640308 64.68359375 12.6953125 C64.70030624 11.65569366 64.71701874 10.61607483 64.73423767 9.54495239 C64.75418289 8.58410736 64.77412811 7.62326233 64.79467773 6.63330078 C64.81022202 5.78502716 64.8257663 4.93675354 64.84178162 4.06277466 C65 2 65 2 66 0 C71.28 0 76.56 0 82 0 C82 25.41 82 50.82 82 77 C66 77 66 77 60 73 C58.28699974 71.14311858 56.64464955 69.21956373 55.0625 67.25 C50.78136095 62.03004748 46.32356151 57.03226006 41.6875 52.125 C41.06157959 51.46121338 40.43565918 50.79742676 39.79077148 50.11352539 C37.19207607 47.36284396 34.58745734 44.61784551 31.97998047 41.87548828 C30.02434405 39.81654953 28.07445884 37.75228605 26.125 35.6875 C25.52389404 35.05924316 24.92278809 34.43098633 24.3034668 33.78369141 C23.75215088 33.19894043 23.20083496 32.61418945 22.6328125 32.01171875 C22.14699707 31.50084717 21.66118164 30.98997559 21.16064453 30.46362305 C20 29 20 29 19 26 C18.34 26 17.68 26 17 26 C16.98969254 26.59468582 16.97938507 27.18937164 16.96876526 27.80207825 C16.86072115 33.98250369 16.74612134 40.16278272 16.62768555 46.34301758 C16.58433001 48.65060365 16.5426554 50.95822194 16.50268555 53.26586914 C16.44499817 56.57968867 16.38129908 59.89334597 16.31640625 63.20703125 C16.29133751 64.75871758 16.29133751 64.75871758 16.26576233 66.3417511 C16.24581711 67.3025206 16.22587189 68.2632901 16.20532227 69.25317383 C16.18977798 70.09922684 16.1742337 70.94527985 16.15821838 71.81697083 C16 74 16 74 15 77 C10.05 77 5.1 77 0 77 C0 51.59 0 26.18 0 0 Z " fill="#F6F6F6" transform="translate(332,60)"/>
<path d="M0 0 C7.91793167 6.27491715 13.63823284 13.77332954 15.4921875 23.890625 C16.98996036 37.45496228 15.5786567 50.52362333 7.0859375 61.59765625 C-1.39332274 70.87019447 -12.68909845 74.99392064 -24.98828125 75.58203125 C-41.05269736 75.98528167 -55.82468916 73.45090985 -68.23046875 62.40234375 C-75.69640799 53.40537089 -79.25886187 42.07651008 -78.23046875 30.40234375 C-76.89900583 21.5898646 -74.35148711 14.68678698 -69.23046875 7.40234375 C-68.63234375 6.49484375 -68.03421875 5.58734375 -67.41796875 4.65234375 C-51.33142037 -11.8938203 -18.64078057 -12.91119328 0 0 Z M-55.23046875 16.40234375 C-59.82276672 21.93665156 -61.69416312 28.02383715 -61.484375 35.2265625 C-60.71361012 41.83142465 -58.66505043 48.38426448 -54.23046875 53.40234375 C-44.21123957 60.63957368 -33.27459587 61.23021058 -21.23046875 60.40234375 C-13.92545909 59.12686587 -8.06973323 54.41400115 -3.83984375 48.4375 C-0.02634235 41.22675967 -0.24997812 32.84756849 -1.66796875 24.97265625 C-3.81376423 18.07928827 -9.09604697 13.31679414 -15.35546875 10.02734375 C-28.51986968 3.74557567 -44.4069785 7.32743373 -55.23046875 16.40234375 Z " fill="#F6F6F6" transform="translate(304.23046875,64.59765625)"/>
<path d="M0 0 C10.51918663 7.68190143 15.21773787 17.08764158 17.64453125 29.6640625 C19.12890987 40.74259564 16.71322407 50.98379684 10.07421875 60.05078125 C1.39330277 70.17102009 -8.54252712 75.13896059 -21.875 76.25 C-38.34373088 76.9095737 -52.84981676 74.9502399 -65.93359375 64.20703125 C-74.12456685 55.95013482 -75.25641795 45.56685768 -75.3125 34.5 C-75.34537109 33.37078125 -75.37824219 32.2415625 -75.41210938 31.078125 C-75.48563696 19.5276102 -71.31079106 11.82818852 -63.46875 3.515625 C-47.08668983 -10.79400587 -18.10048746 -11.04129735 0 0 Z M-53.44140625 16.48828125 C-57.6669548 21.68098533 -60.14567729 28.54191053 -59.875 35.25 C-58.77858111 43.67511361 -56.1449911 50.37810357 -49.875 56.25 C-41.13128125 62.12264692 -31.06401233 62.12202161 -20.875 61.25 C-13.59878549 59.70740535 -7.76659186 55.81183402 -2.875 50.25 C1.41114408 42.78381355 1.84826514 34.9377169 -0.08984375 26.671875 C-2.35011029 19.69990857 -6.35392078 14.62561748 -12.875 11.25 C-25.88495596 5.46779735 -42.80868509 6.36552274 -53.44140625 16.48828125 Z " fill="#F6F6F6" transform="translate(74.875,63.75)"/>
<path d="M0 0 C0.85506638 -0.00960754 1.71013275 -0.01921509 2.59111023 -0.02911377 C3.93203484 -0.03548859 3.93203484 -0.03548859 5.30004883 -0.04199219 C6.25293289 -0.04769226 7.20581696 -0.05339233 8.18757629 -0.05926514 C10.19356191 -0.06865639 12.19956255 -0.07522554 14.20556641 -0.07910156 C17.23148319 -0.08878527 20.25671334 -0.11985657 23.2824707 -0.15136719 C52.39664518 -0.30988275 52.39664518 -0.30988275 60.06958008 7.16113281 C64.29094227 13.70630677 65.8379544 20.37959653 65.06958008 28.16113281 C63.78275737 34.04809339 61.61840282 40.04163716 57.06958008 44.16113281 C53.51387813 46.14209511 49.87159447 47.71623417 46.06958008 49.16113281 C46.75922852 50.03253906 47.44887695 50.90394531 48.15942383 51.80175781 C50.63770263 54.93869623 53.10339091 58.08529739 55.5637207 61.23632812 C56.53076364 62.47241219 57.5005837 63.70633141 58.47387695 64.9375 C59.74437427 66.54661004 61.00215921 68.16486222 62.25708008 69.78613281 C62.99313477 70.72714844 63.72918945 71.66816406 64.48754883 72.63769531 C66.06958008 75.16113281 66.06958008 75.16113281 66.06958008 79.16113281 C59.05801489 80.40763329 51.51583281 81.61916282 44.81958008 78.78613281 C40.85391613 75.00072632 38.08081416 70.72637877 35.06958008 66.16113281 C33.46402597 63.79029979 31.85011728 61.42533467 30.23388672 59.06176758 C29.10767468 57.41456504 27.98432479 55.76540088 26.86425781 54.11401367 C23.78438658 49.58918391 20.61668673 45.21516923 17.15576172 40.97216797 C16.06958008 39.16113281 16.06958008 39.16113281 16.06958008 35.16113281 C16.62830811 35.11102051 17.18703613 35.0609082 17.76269531 35.00927734 C20.34474281 34.77423081 22.92587282 34.53022722 25.50708008 34.28613281 C26.38557617 34.2075 27.26407227 34.12886719 28.16918945 34.04785156 C33.9427169 33.4939338 39.43142954 32.52621911 45.06958008 31.16113281 C45.29203401 29.55886326 45.49704677 27.95416514 45.69458008 26.34863281 C45.8105957 25.4553125 45.92661133 24.56199219 46.04614258 23.64160156 C46.30458751 20.9042289 46.30458751 20.9042289 44.06958008 18.16113281 C28.64499919 15.52932168 28.64499919 15.52932168 3.06958008 15.16113281 C2.73958008 35.95113281 2.40958008 56.74113281 2.06958008 78.16113281 C-3.21041992 78.16113281 -8.49041992 78.16113281 -13.93041992 78.16113281 C-13.93041992 52.75113281 -13.93041992 27.34113281 -13.93041992 1.16113281 C-3.79671004 0.03516505 -3.79671004 0.03516505 0 0 Z " fill="#F6F6F6" transform="translate(117.930419921875,58.8388671875)"/>
<path d="M0 0 C1.65 0 3.3 0 5 0 C5.99 7.59 6.98 15.18 8 23 C11.04347656 22.67515625 11.04347656 22.67515625 14.1484375 22.34375 C28.45262767 20.8612725 42.59687055 19.46655076 57 20 C54.04666993 23.33326254 51.59072985 24.80303969 47.38671875 26.21875 C46.30326172 26.59386719 45.21980469 26.96898438 44.10351562 27.35546875 C42.97623047 27.73316406 41.84894531 28.11085938 40.6875 28.5 C32.03328183 31.30009868 32.03328183 31.30009868 23.89453125 35.28125 C21 37 21 37 18 37 C17.6527011 42.12265872 18.16940697 45.26734022 21.4921875 49.2109375 C24.09656777 52.07390872 26.81654256 54.82200545 29.55957031 57.55175781 C31.28308525 59.28462063 32.90375881 61.08713086 34.5 62.9375 C35.29277344 63.85208984 35.29277344 63.85208984 36.1015625 64.78515625 C37.6605802 66.60401024 39.21750453 68.42460241 40.7734375 70.24609375 C41.27842773 70.83672607 41.78341797 71.4273584 42.30371094 72.03588867 C43.34743236 73.25750978 44.38976173 74.48032166 45.43066406 75.7043457 C47.82875441 78.51411076 50.24367385 81.29204892 52.7734375 83.984375 C53.99933594 85.29148438 53.99933594 85.29148438 55.25 86.625 C55.97703125 87.38039063 56.7040625 88.13578125 57.453125 88.9140625 C59 91 59 91 59 95 C53.50976944 93.61912383 50.33515804 91.07472286 46.25 87.375 C45.00327038 86.28309302 43.75587237 85.19194874 42.5078125 84.1015625 C40.47719687 82.30971514 38.45210256 80.51205486 36.4296875 78.7109375 C27.48688903 71.10198016 16.73816294 66.52646298 6 62 C4.64031785 69.07921469 3.47504199 76.18621891 2.34375 83.3046875 C2.19494385 84.23702209 2.0461377 85.16935669 1.89282227 86.12994385 C1.26921254 90.03794787 0.64595898 93.94597639 0.03173828 97.85546875 C-0.42143731 100.73524982 -0.8819657 103.61377606 -1.34375 106.4921875 C-1.48026978 107.37244598 -1.61678955 108.25270447 -1.75744629 109.15963745 C-2.4357619 113.35030811 -3.17626741 117.12307827 -5 121 C-5.66 121 -6.32 121 -7 121 C-8.05493246 113.80570652 -8.33409275 106.63583757 -8.61328125 99.375 C-8.72760568 96.70308133 -8.84283548 94.03121374 -8.95898438 91.359375 C-9.13960884 87.1728618 -9.31476428 82.9863125 -9.47143555 78.79882812 C-9.57449729 76.05497474 -9.68726197 73.31185394 -9.81083679 70.56884766 C-9.92658675 67.99621063 -10.02864464 65.42291024 -10.11506653 62.84912109 C-10.45122467 55.86330753 -11.23475188 50.94837654 -15 45 C-24.94026289 36.71304572 -43.74327661 38.49182206 -56 38 C-56.33 36.68 -56.66 35.36 -57 34 C-56.0527002 33.82871582 -55.10540039 33.65743164 -54.12939453 33.48095703 C-50.56949332 32.83702676 -47.00981373 32.19187825 -43.45019531 31.54638672 C-41.91802769 31.26871753 -40.38580246 30.99136605 -38.85351562 30.71435547 C-23.62426132 28.44039416 -23.62426132 28.44039416 -9 24 C-8.01 24 -7.02 24 -6 24 C-5.60167969 22.15535156 -5.60167969 22.15535156 -5.1953125 20.2734375 C-4.83871309 18.64058755 -4.48193267 17.00777713 -4.125 15.375 C-3.95097656 14.56675781 -3.77695312 13.75851562 -3.59765625 12.92578125 C-2.62929775 8.51437032 -1.5300773 4.25940436 0 0 Z " fill="#FF5E00" transform="translate(441,0)"/>
<path d="M0 0 C5.28 0 10.56 0 16 0 C16 25.41 16 50.82 16 77 C10.72 77 5.44 77 0 77 C0 51.59 0 26.18 0 0 Z " fill="#F6F6F6" transform="translate(198,60)"/>
<path d="M0 0 C2.6015625 -0.29296875 2.6015625 -0.29296875 5.625 -0.1875 C7.12933594 -0.14689453 7.12933594 -0.14689453 8.6640625 -0.10546875 C9.43492187 -0.07066406 10.20578125 -0.03585938 11 0 C13.01598506 4.05475718 15.00993428 8.11996704 17 12.1875 C17.57234375 13.33798828 18.1446875 14.48847656 18.734375 15.67382812 C19.27578125 16.78564453 19.8171875 17.89746094 20.375 19.04296875 C20.87773437 20.06414795 21.38046875 21.08532715 21.8984375 22.13745117 C23.00301902 25.00784529 23.23441835 26.95988707 23 30 C20.36 30 17.72 30 15 30 C14.34 28.02 13.68 26.04 13 24 C12.43152344 24.01160156 11.86304688 24.02320313 11.27734375 24.03515625 C6.39329516 24.09223194 1.81496035 23.81956772 -3 23 C-3.144375 23.969375 -3.28875 24.93875 -3.4375 25.9375 C-4 29 -4 29 -5 30 C-7.67058851 30.14115161 -10.32432238 30.04247107 -13 30 C-12.49326055 23.82605201 -9.74498955 18.78658457 -7.0625 13.3125 C-6.60681641 12.36310547 -6.15113281 11.41371094 -5.68164062 10.43554688 C-3.92796205 6.80751199 -2.23834991 3.35752487 0 0 Z M5 6 C4.32880451 7.4562545 3.66318193 8.91507867 3 10.375 C2.62875 11.18710938 2.2575 11.99921875 1.875 12.8359375 C0.87504987 14.91998433 0.87504987 14.91998433 1 17 C3.64 17 6.28 17 9 17 C8.44894091 13.0507432 7.61064629 9.65079826 6 6 C5.67 6 5.34 6 5 6 Z " fill="#F6F6F6" transform="translate(286,155)"/>
<path d="M0 0 C8.91 0 17.82 0 27 0 C27 1.65 27 3.3 27 5 C20.07 5 13.14 5 6 5 C6 6.98 6 8.96 6 11 C11.94 11 17.88 11 24 11 C24 12.98 24 14.96 24 17 C18.06 17 12.12 17 6 17 C6 19.31 6 21.62 6 24 C12.93 24 19.86 24 27 24 C27 25.98 27 27.96 27 30 C18.09 30 9.18 30 0 30 C0 20.1 0 10.2 0 0 Z " fill="#F6F6F6" transform="translate(241,155)"/>
<path d="M0 0 C1.98 0 3.96 0 6 0 C6 3.63 6 7.26 6 11 C12.27 11 18.54 11 25 11 C25 7.37 25 3.74 25 0 C27.31 0 29.62 0 32 0 C32 9.9 32 19.8 32 30 C29.69 30 27.38 30 25 30 C25 25.71 25 21.42 25 17 C18.73 17 12.46 17 6 17 C6 21.29 6 25.58 6 30 C4.02 30 2.04 30 0 30 C0 20.1 0 10.2 0 0 Z " fill="#F6F6F6" transform="translate(382,155)"/>
<path d="M0 0 C2.31 0 4.62 0 7 0 C7 3.63 7 7.26 7 11 C13.27 11 19.54 11 26 11 C26 7.37 26 3.74 26 0 C27.98 0 29.96 0 32 0 C32 9.9 32 19.8 32 30 C30.02 30 28.04 30 26 30 C26 25.71 26 21.42 26 17 C19.73 17 13.46 17 7 17 C7 21.29 7 25.58 7 30 C4.69 30 2.38 30 0 30 C0 20.1 0 10.2 0 0 Z " fill="#F6F6F6" transform="translate(198,155)"/>
<path d="M0 0 C10.89 0 21.78 0 33 0 C33 1.65 33 3.3 33 5 C28.71 5 24.42 5 20 5 C20 13.25 20 21.5 20 30 C17.69 30 15.38 30 13 30 C13 21.75 13 13.5 13 5 C8.71 5 4.42 5 0 5 C0 3.35 0 1.7 0 0 Z " fill="#F6F6F6" transform="translate(341,155)"/>
<path d="M0 0 C2.31 0 4.62 0 7 0 C7 7.92 7 15.84 7 24 C13.93 24 20.86 24 28 24 C28 25.98 28 27.96 28 30 C18.76 30 9.52 30 0 30 C0 20.1 0 10.2 0 0 Z " fill="#F6F6F6" transform="translate(316,155)"/>
</svg>
