<?xml version="1.0" encoding="utf-8"?>
<!-- Generator: Adobe Illustrator 24.0.3, SVG Export Plug-In . SVG Version: 6.00 Build 0)  -->
<svg version="1.1" id="Layer_1" xmlns="http://www.w3.org/2000/svg" xmlns:xlink="http://www.w3.org/1999/xlink" x="0px" y="0px"
	 viewBox="0 0 101.5 40" style="enable-background:new 0 0 101.5 40;" xml:space="preserve">
<style type="text/css">
	.st0{fill-rule:evenodd;clip-rule:evenodd;fill:#FF7300;}
	.st1{fill:#FFFFFF;}
	.st2{fill:#FF7300;}
</style>
<g>
	<path class="st0" d="M73.8,30.6c7.9,0,14.3-6.4,14.3-14.3c0-7.9-6.4-14.3-14.3-14.3c-7.9,0-14.3,6.4-14.3,14.3
		C59.5,24.2,66,30.6,73.8,30.6z"/>
	<g>
		<polygon class="st1" points="79.7,24.3 73.8,10.1 69.8,19.1 59.7,19.1 59.7,17.2 68.5,17.2 73.9,5.2 79.9,19.8 82.3,15.5 
			88.1,15.5 88.1,17.4 83.5,17.4 		"/>
	</g>
	<polygon class="st2" points="37.5,1.9 28.9,23.8 20.3,0.4 11.2,23.8 3.4,1.9 -0.2,1.9 11,32.6 20.2,9.2 28.8,32.6 41.1,1.9 	"/>
	<path class="st2" d="M54.8,17.5c-1.4-1.2-3-2.1-4.6-2.8c0,0-4.3-2.2-5.3-2.9c-1-0.7-1.4-1.7-1.4-2.9s0.5-2.3,1.5-3.1
		c1-0.8,2.2-1.2,3.6-1.2c0.9,0,1.7,0.2,2.3,0.5c0.6,0.4,1.3,0.9,1.8,1.7c0,0,0.5,0.7,0.7,0.9L55.9,6C55,4.5,54,3.4,52.7,2.6
		c-1.3-0.8-2.6-1.2-4.1-1.2c-2.5,0-4.5,0.7-6.1,2.1c-1.6,1.4-2.4,3.2-2.4,5.4c0,2.1,0.7,3.7,2.1,4.8C43.7,14.9,48,17,48,17
		c1.6,0.8,2.9,1.6,4,2.3c1.1,0.8,1.7,1.9,1.7,3.4c0,1.7-0.6,3.1-1.7,4.2c-1.1,1.1-2.5,1.7-4.3,1.7c-1.5,0-2.8-0.5-3.8-1.4
		c-1-0.9-1.7-2.3-2.1-4l-3.2,1c0.3,1.2,0.7,2.2,1.2,3.2c0.5,0.9,1.2,1.7,2,2.4c1.6,1.3,3.5,2,5.9,2c2.5,0,4.7-0.9,6.5-2.6
		c1.8-1.7,2.7-3.9,2.7-6.4C56.9,20.4,56.2,18.7,54.8,17.5z"/>
	<path d="M85.6,4.8C82.5,1.6,78.6,0,73.9,0c-0.1,0-0.2,0-0.2,0c-2.9,0-5.7,0.7-8.2,2.2c-2.5,1.5-4.5,3.5-6,6.1
		c-1.5,2.6-2.2,5.4-2.2,8.4c0,4.5,1.6,8.4,4.8,11.6c3.2,3.2,7.1,4.8,11.8,4.8c0,0,0,0,0,0c4.6,0,8.5-1.6,11.7-4.8
		c3.2-3.2,4.8-7.1,4.8-11.7C90.5,11.9,88.9,7.9,85.6,4.8z M85.5,23.3c-1.2,2.1-2.8,3.7-4.8,4.9c-2.1,1.2-4.3,1.8-6.7,1.8
		c0,0,0,0-0.1,0c-3.7,0-6.8-1.3-9.4-3.8c-2.6-2.6-3.9-5.7-3.9-9.5c0-2.5,0.6-4.8,1.7-6.9c1.2-2,2.8-3.7,4.9-4.9
		c2.1-1.2,4.3-1.8,6.6-1.8c0,0,0,0,0.1,0c2.3,0,4.6,0.6,6.6,1.8c2.1,1.2,3.7,2.8,4.9,4.8c1.2,2,1.7,4.3,1.7,6.8
		C87.2,19,86.6,21.3,85.5,23.3z"/>
	<path d="M91.6,15.5c0.7-0.2,1.5-0.3,2.4-0.3c2.2,0,4,0.7,5.4,2.2c1.4,1.4,2.1,3.1,2.1,5.1c0,1.4-0.3,2.7-1,3.9
		c-0.7,1.2-1.9,2.8-3.8,4.9l-6,6.5h11.2V40H85.3l9.2-10c1.9-2,3.1-3.5,3.7-4.5c0.6-1,0.8-2,0.8-3.1c0-1.4-0.5-2.5-1.5-3.5
		c-1-1-2.3-1.5-3.7-1.5c-0.8,0-1.6,0.1-2.3,0.5C91.5,17.4,91.6,15.7,91.6,15.5z"/>
</g>
<path class="st1" d="M47.8,31.6"/>
</svg>
