<?xml version="1.0" encoding="UTF-8" standalone="no"?>
<!-- Generator: Adobe Illustrator 24.0.3, SVG Export Plug-In . SVG Version: 6.00 Build 0)  -->

<svg
   version="1.1"
   id="Layer_1"
   x="0px"
   y="0px"
   viewBox="0 0 101.5 40"
   style="enable-background:new 0 0 101.5 40;"
   xml:space="preserve"
   sodipodi:docname="wso2-white.svg"
   inkscape:version="1.1.1 (26b7af14f2, 2022-01-19)"
   xmlns:inkscape="http://www.inkscape.org/namespaces/inkscape"
   xmlns:sodipodi="http://sodipodi.sourceforge.net/DTD/sodipodi-0.dtd"
   xmlns="http://www.w3.org/2000/svg"
   xmlns:svg="http://www.w3.org/2000/svg"><defs
   id="defs25" /><sodipodi:namedview
   id="namedview23"
   pagecolor="#ffffff"
   bordercolor="#666666"
   borderopacity="1.0"
   inkscape:pageshadow="2"
   inkscape:pageopacity="0.0"
   inkscape:pagecheckerboard="0"
   showgrid="false"
   inkscape:zoom="13.182266"
   inkscape:cx="50.71207"
   inkscape:cy="19.988976"
   inkscape:window-width="1848"
   inkscape:window-height="1016"
   inkscape:window-x="72"
   inkscape:window-y="27"
   inkscape:window-maximized="1"
   inkscape:current-layer="Layer_1" />
<style
   type="text/css"
   id="style2">
	.st0{fill-rule:evenodd;clip-rule:evenodd;fill:#FF7300;}
	.st1{fill:#FFFFFF;}
	.st2{fill:#FF7300;}
</style>
<g
   id="g18">
	<path
   class="st0"
   d="M73.8,30.6c7.9,0,14.3-6.4,14.3-14.3c0-7.9-6.4-14.3-14.3-14.3c-7.9,0-14.3,6.4-14.3,14.3   C59.5,24.2,66,30.6,73.8,30.6z"
   id="path4" />
	<g
   id="g8">
		<polygon
   class="st1"
   points="79.7,24.3 73.8,10.1 69.8,19.1 59.7,19.1 59.7,17.2 68.5,17.2 73.9,5.2 79.9,19.8 82.3,15.5     88.1,15.5 88.1,17.4 83.5,17.4   "
   id="polygon6" />
	</g>
	<polygon
   class="st2"
   points="37.5,1.9 28.9,23.8 20.3,0.4 11.2,23.8 3.4,1.9 -0.2,1.9 11,32.6 20.2,9.2 28.8,32.6 41.1,1.9  "
   id="polygon10" />
	<path
   class="st2"
   d="M54.8,17.5c-1.4-1.2-3-2.1-4.6-2.8c0,0-4.3-2.2-5.3-2.9c-1-0.7-1.4-1.7-1.4-2.9s0.5-2.3,1.5-3.1   c1-0.8,2.2-1.2,3.6-1.2c0.9,0,1.7,0.2,2.3,0.5c0.6,0.4,1.3,0.9,1.8,1.7c0,0,0.5,0.7,0.7,0.9L55.9,6C55,4.5,54,3.4,52.7,2.6   c-1.3-0.8-2.6-1.2-4.1-1.2c-2.5,0-4.5,0.7-6.1,2.1c-1.6,1.4-2.4,3.2-2.4,5.4c0,2.1,0.7,3.7,2.1,4.8C43.7,14.9,48,17,48,17   c1.6,0.8,2.9,1.6,4,2.3c1.1,0.8,1.7,1.9,1.7,3.4c0,1.7-0.6,3.1-1.7,4.2c-1.1,1.1-2.5,1.7-4.3,1.7c-1.5,0-2.8-0.5-3.8-1.4   c-1-0.9-1.7-2.3-2.1-4l-3.2,1c0.3,1.2,0.7,2.2,1.2,3.2c0.5,0.9,1.2,1.7,2,2.4c1.6,1.3,3.5,2,5.9,2c2.5,0,4.7-0.9,6.5-2.6   c1.8-1.7,2.7-3.9,2.7-6.4C56.9,20.4,56.2,18.7,54.8,17.5z"
   id="path12" />
	<path
   d="M85.6,4.8C82.5,1.6,78.6,0,73.9,0c-0.1,0-0.2,0-0.2,0c-2.9,0-5.7,0.7-8.2,2.2c-2.5,1.5-4.5,3.5-6,6.1   c-1.5,2.6-2.2,5.4-2.2,8.4c0,4.5,1.6,8.4,4.8,11.6c3.2,3.2,7.1,4.8,11.8,4.8c0,0,0,0,0,0c4.6,0,8.5-1.6,11.7-4.8   c3.2-3.2,4.8-7.1,4.8-11.7C90.5,11.9,88.9,7.9,85.6,4.8z M85.5,23.3c-1.2,2.1-2.8,3.7-4.8,4.9c-2.1,1.2-4.3,1.8-6.7,1.8   c0,0,0,0-0.1,0c-3.7,0-6.8-1.3-9.4-3.8c-2.6-2.6-3.9-5.7-3.9-9.5c0-2.5,0.6-4.8,1.7-6.9c1.2-2,2.8-3.7,4.9-4.9   c2.1-1.2,4.3-1.8,6.6-1.8c0,0,0,0,0.1,0c2.3,0,4.6,0.6,6.6,1.8c2.1,1.2,3.7,2.8,4.9,4.8c1.2,2,1.7,4.3,1.7,6.8   C87.2,19,86.6,21.3,85.5,23.3z"
   id="path14" />
	<path
   d="M91.6,15.5c0.7-0.2,1.5-0.3,2.4-0.3c2.2,0,4,0.7,5.4,2.2c1.4,1.4,2.1,3.1,2.1,5.1c0,1.4-0.3,2.7-1,3.9   c-0.7,1.2-1.9,2.8-3.8,4.9l-6,6.5h11.2V40H85.3l9.2-10c1.9-2,3.1-3.5,3.7-4.5c0.6-1,0.8-2,0.8-3.1c0-1.4-0.5-2.5-1.5-3.5   c-1-1-2.3-1.5-3.7-1.5c-0.8,0-1.6,0.1-2.3,0.5C91.5,17.4,91.6,15.7,91.6,15.5z"
   id="path16" />
</g>
<path
   class="st1"
   d="M47.8,31.6"
   id="path20" />
<path
   style="fill:#ffffff;stroke-width:0.0758595"
   d="m 71.57343,32.921936 c -3.833604,-0.511443 -7.131173,-2.204198 -9.784942,-5.022947 -3.760916,-3.994723 -5.187533,-9.13881 -4.087135,-14.737367 0.706563,-3.5948161 2.941909,-7.2274605 5.88808,-9.5686745 3.437487,-2.73164535 7.435484,-3.89376282 11.966621,-3.4783972 3.803697,0.34868179 6.840195,1.71486 9.628865,4.3322092 2.956179,2.7745675 4.550713,5.8083065 5.058993,9.6251765 0.121251,0.910514 0.121655,3.678578 6.83e-4,4.627429 -0.492555,3.863155 -2.175449,7.193372 -4.973077,9.841041 -2.474764,2.342112 -5.120043,3.684993 -8.425845,4.277398 -1.176614,0.210851 -4.04731,0.26755 -5.272235,0.104132 z m 4.456818,-3.037865 c 4.286144,-0.636432 8.016688,-3.402893 9.872169,-7.320912 0.835811,-1.764894 1.139981,-3.104601 1.199373,-5.282626 0.07709,-2.826839 -0.256556,-4.696866 -1.190629,-6.673364 C 84.136212,6.8513764 80.351735,3.9979813 76.16293,3.2572622 75.208247,3.0884428 73.375835,3.0323654 72.407885,3.1423465 69.882655,3.42927 67.384598,4.4806156 65.40774,6.088464 64.676803,6.6829616 63.581069,7.8582354 62.979894,8.6925503 61.457286,10.805635 60.57244,13.766975 60.574427,16.742993 c 0.0024,3.584073 1.184086,6.60697 3.559629,9.105911 2.216384,2.331514 4.905609,3.695969 8.08418,4.10174 0.662329,0.08455 3.0784,0.04236 3.812012,-0.06657 z"
   id="path101" /><path
   style="fill:#ffffff;stroke-width:0.0758595"
   d="m 85.656549,39.693479 c 1.109061,-1.185771 10.002263,-10.882091 10.520966,-11.471082 1.508702,-1.713141 2.383695,-3.079818 2.672935,-4.174938 0.184415,-0.698227 0.222818,-2.010909 0.07879,-2.693012 -0.203074,-0.961718 -0.57357,-1.602164 -1.405663,-2.429855 -0.987042,-0.98182 -1.728752,-1.344146 -3.106092,-1.517331 -0.774584,-0.09739 -1.872326,0.0072 -2.444974,0.23288 -0.215543,0.08496 -0.402605,0.143763 -0.415693,0.130675 -0.01309,-0.01309 -0.0036,-0.521688 0.02103,-1.130223 l 0.04483,-1.106427 0.387091,-0.08987 c 0.77151,-0.179125 2.001985,-0.249598 2.820086,-0.161516 1.834601,0.197525 3.168541,0.801186 4.345679,1.966592 0.926766,0.917529 1.462186,1.715646 1.833516,2.733115 0.7202,1.973415 0.55851,4.280199 -0.43217,6.165462 -0.57911,1.102055 -2.062179,3.06089 -3.636227,4.802726 -0.452445,0.500672 -2.043927,2.231674 -3.536628,3.84667 -1.492702,1.614996 -2.714003,2.954864 -2.714003,2.977485 0,0.02262 2.509053,0.04113 5.575673,0.04113 h 5.575675 v 1.062033 1.062032 h -8.207709 -8.207706 z"
   id="path140" /></svg>
