<?xml version="1.0" encoding="UTF-8" standalone="no"?>
<!-- Generator: Adobe Illustrator 16.0.4, SVG Export Plug-In . SVG Version: 6.00 Build 0)  -->

<svg
   version="1.1"
   id="Layer_1"
   x="0px"
   y="0px"
   width="174px"
   height="62px"
   viewBox="0 0 174 62"
   enable-background="new 0 0 174 62"
   xml:space="preserve"
   sodipodi:docname="cellery-white.svg"
   inkscape:version="1.1 (ce6663b3b7, 2021-05-25)"
   xmlns:inkscape="http://www.inkscape.org/namespaces/inkscape"
   xmlns:sodipodi="http://sodipodi.sourceforge.net/DTD/sodipodi-0.dtd"
   xmlns="http://www.w3.org/2000/svg"
   xmlns:svg="http://www.w3.org/2000/svg"><defs
   id="defs27" /><sodipodi:namedview
   id="namedview25"
   pagecolor="#ffffff"
   bordercolor="#666666"
   borderopacity="1.0"
   inkscape:pageshadow="2"
   inkscape:pageopacity="0.0"
   inkscape:pagecheckerboard="0"
   showgrid="false"
   inkscape:zoom="7.6896552"
   inkscape:cx="87.065022"
   inkscape:cy="31.015695"
   inkscape:window-width="1848"
   inkscape:window-height="1016"
   inkscape:window-x="72"
   inkscape:window-y="27"
   inkscape:window-maximized="1"
   inkscape:current-layer="Layer_1" />
<g
   id="g22">
	<g
   id="g4">
		<path
   fill="#43AB00"
   d="M51.573,46.782c-0.254-0.254-0.67-0.254-0.924,0l-6.32,6.32c-0.254,0.254-0.694,0.641-0.979,0.861    c0,0-0.962,0.744-1.911,1.148c-1.012,0.432-2.355,0.614-2.355,0.614c-0.356,0.048-0.941,0.087-1.3,0.087h-12.89    c-0.359,0-0.943-0.042-1.299-0.094c0,0-1.536-0.225-2.619-0.723c-0.847-0.391-1.653-1.027-1.653-1.027    c-0.282-0.224-0.72-0.613-0.974-0.867l-9.113-9.113c-0.254-0.254-0.644-0.691-0.867-0.975c0,0-0.643-0.814-1.035-1.666    c-0.494-1.08-0.716-2.604-0.716-2.604c-0.052-0.355-0.094-0.94-0.094-1.299V24.555c0-0.359,0.039-0.944,0.085-1.3    c0,0,0.168-1.275,0.577-2.26c0.407-0.983,1.19-2.004,1.19-2.004c0.219-0.285,0.605-0.726,0.859-0.98l9.113-9.112    c0.254-0.254,0.693-0.643,0.977-0.864c0,0,0.899-0.703,1.808-1.102c1.04-0.457,2.461-0.656,2.461-0.656    c0.355-0.05,0.94-0.09,1.299-0.09h12.89c0.359,0,0.944,0.039,1.3,0.085c0,0,1.275,0.168,2.259,0.576    c0.984,0.408,2.005,1.191,2.005,1.191c0.285,0.219,0.726,0.605,0.98,0.859l5.822,5.821c0.254,0.254,0.67,0.254,0.924,0l2.77-2.77    c0.254-0.254,0.254-0.67,0-0.924l-7.352-7.353c-0.254-0.254-0.695-0.641-0.98-0.859c0,0-1.021-0.783-2.005-1.19    c-0.984-0.408-2.26-0.576-2.26-0.576c-0.356-0.047-0.941-0.085-1.3-0.085H22.731c-0.359,0-0.944,0.038-1.3,0.085    c0,0-1.275,0.168-2.259,0.576c-0.984,0.407-2.005,1.19-2.005,1.19c-0.285,0.219-0.726,0.605-0.98,0.859L4.013,15.846    c-0.254,0.254-0.644,0.693-0.865,0.976c0,0-0.669,0.853-1.063,1.729c-0.478,1.062-0.689,2.541-0.689,2.541    c-0.051,0.355-0.093,0.94-0.093,1.299v17.217c0,0.359,0.038,0.944,0.085,1.301c0,0,0.168,1.275,0.576,2.26    c0.408,0.982,1.191,2.004,1.191,2.004c0.218,0.285,0.605,0.727,0.859,0.98l12.174,12.174c0.254,0.254,0.694,0.643,0.977,0.863    c0,0,0.909,0.709,1.824,1.107c1.036,0.455,2.444,0.65,2.444,0.65c0.356,0.049,0.941,0.09,1.3,0.09h17.217    c0.359,0,0.944-0.038,1.3-0.084c0,0,1.23-0.16,2.197-0.551c1.008-0.41,2.067-1.219,2.067-1.219    c0.286-0.218,0.727-0.604,0.981-0.857l7.85-7.852c0.254-0.254,0.254-0.67,0-0.924L51.573,46.782z"
   id="path2" />
	</g>
	<path
   fill="#464646"
   d="M41.832,37.185c-0.25-0.26-0.664-0.262-0.916-0.004c0,0-3.276,5.447-9.605,5.447   c-6.473,0-11.738-5.439-11.738-12.125c0-6.686,5.266-12.124,11.738-12.124c6.82,0,9.605,5.445,9.605,5.445   c0.252,0.258,0.666,0.257,0.916-0.003l3.751-3.873c0.251-0.261,0.237-0.67-0.03-0.911c0,0-4.722-7.328-14.242-7.328   c-10.049,0-18.197,8.415-18.197,18.794c0,10.381,8.148,18.793,18.197,18.793c9.667,0,14.242-7.328,14.242-7.328   c0.269-0.24,0.283-0.65,0.031-0.91L41.832,37.185z"
   id="path6" />
	<g
   id="g20">
		<path
   fill="#464646"
   d="M73.969,34.423c-1.199,5.445-5.447,8.658-11.6,8.658c-7.408,0-12.746-4.738-12.746-12.308    c0-7.569,5.393-13.017,12.582-13.017c7.842,0,11.873,5.447,11.873,11.982v2.068H56.051c0.217,3.922,2.994,6.319,6.535,6.319    c3.214,0,5.174-1.418,6.099-4.248L73.969,34.423z M67.705,28.376c-0.107-3.104-1.905-5.826-5.557-5.826    c-3.593,0-5.607,2.613-5.988,5.826H67.705z"
   id="path8" />
		<path
   fill="#464646"
   d="M144.56,25.492c-1.254-0.708-2.342-1.034-3.922-1.034c-3.375,0-5.664,2.396-5.664,6.752v11.872h-6.533    V19.065h6.533v4.574c0.873-2.723,3.377-5.227,6.699-5.227c1.471,0,2.668,0.38,3.377,0.979L144.56,25.492z"
   id="path10" />
		<path
   fill="#464646"
   d="M124.12,34.423c-1.197,5.445-5.444,8.658-11.599,8.658c-7.408,0-12.746-4.738-12.746-12.308    c0-7.569,5.393-13.017,12.582-13.017c7.842,0,11.874,5.447,11.874,11.982v2.068h-18.028c0.217,3.922,2.996,6.319,6.535,6.319    c3.215,0,5.174-1.418,6.1-4.248L124.12,34.423z M117.857,28.376c-0.107-3.104-1.904-5.826-5.555-5.826    c-3.594,0-5.609,2.613-5.99,5.826H117.857z"
   id="path12" />
		<rect
   x="89.031"
   y="12.344"
   fill="#464646"
   width="6.536"
   height="30.737"
   id="rect14" />
		<rect
   x="78.287"
   y="12.344"
   fill="#464646"
   width="6.535"
   height="30.737"
   id="rect16" />
		<path
   fill="#464646"
   d="M166.3,18.413v11.995c0,3.863-2.025,7.089-5.275,7.089c-3.145,0-4.586-2.078-4.586-5.704V18.413h-6.396    v14.661c0,5.225,2.291,9.488,8.582,9.488c3.52,0,6.504-1.031,7.676-3.697v2.166c0,3.305-1.41,6.865-5.635,6.865    c-1.613,0-4.023-1.229-4.877-3.443l-6.529,0.715c1.604,4.646,5.922,7.18,10.256,7.523c6.713,0.533,13.184-2.924,13.184-15.168    v-19.11H166.3z"
   id="path18" />
	</g>
</g>
<path
   style="fill:#ffffff;stroke-width:0.130045"
   d="M 28.73991,49.032225 C 24.928356,48.431324 21.556419,46.72421 18.805553,44.002746 16.163597,41.389025 14.373728,38.09457 13.564685,34.35634 13.1799,32.578415 13.144988,28.69303 13.498129,26.949206 c 0.757312,-3.739639 2.412463,-6.915646 5.006367,-9.606529 2.621538,-2.71955 5.667645,-4.425756 9.292571,-5.205016 1.605725,-0.345187 4.893694,-0.408977 6.469749,-0.125519 1.999082,0.35954 4.247466,1.205064 5.917041,2.225154 2.545211,1.555094 5.708285,4.688219 5.474994,5.423155 -0.04127,0.130026 -1.004979,1.164974 -2.141567,2.299887 -1.567309,1.565 -2.113593,2.036226 -2.261374,1.950672 -0.107169,-0.06204 -0.550364,-0.586104 -0.984879,-1.164582 -1.140217,-1.517993 -2.591442,-2.692824 -4.262042,-3.45031 -2.845553,-1.290235 -6.59693,-1.263823 -9.47672,0.06672 -3.169661,1.464473 -5.58435,4.310228 -6.577336,7.75151 -0.401606,1.391801 -0.499393,4.354398 -0.193547,5.863809 0.767006,3.785331 3.075654,6.804972 6.507672,8.511838 1.716375,0.853616 2.895629,1.125486 4.941704,1.139286 2.058498,0.01388 2.976035,-0.192335 4.81166,-1.081432 1.52426,-0.738285 3.101387,-1.960943 4.03139,-3.125313 1.050255,-1.314925 1.20251,-1.451582 1.462134,-1.312343 0.389499,0.208891 4.194816,4.15178 4.194816,4.346469 0,0.609654 -2.823747,3.530901 -4.591658,4.750201 -3.481726,2.40129 -8.215695,3.481745 -12.379194,2.82536 z"
   id="path179" /><path
   style="fill:#ffffff;stroke-width:0.130045"
   d="M 60.210762,42.889407 C 58.393874,42.649825 56.275509,41.8536 54.744197,40.8347 c -2.600946,-1.730611 -4.355069,-4.52592 -4.875802,-7.769909 -0.236743,-1.47483 -0.0998,-4.550895 0.262021,-5.885419 1.237381,-4.563952 4.397483,-7.76804 8.84492,-8.968037 1.280228,-0.345427 4.423506,-0.419773 5.913839,-0.139875 4.287922,0.80531 7.363619,3.601308 8.58038,7.800093 0.35429,1.222584 0.590983,3.158157 0.590983,4.832809 v 1.091602 h -9.052882 -9.052883 l 0.08865,0.617713 c 0.510801,3.559407 3.047226,5.759154 6.633006,5.752562 1.260124,-0.0023 2.49127,-0.274099 3.343984,-0.738204 0.873773,-0.475567 1.865945,-1.56887 2.336727,-2.574908 0.252197,-0.538936 0.474295,-0.846968 0.611399,-0.847964 0.118427,-9.1e-4 1.230799,0.09779 2.471939,0.21921 1.543188,0.150976 2.276808,0.273385 2.320479,0.387186 0.112375,0.292845 -0.594373,2.168626 -1.219345,3.236268 -0.773955,1.322148 -2.266238,2.803128 -3.559537,3.532576 -1.194649,0.673807 -2.979025,1.276065 -4.326684,1.460329 -0.962286,0.131572 -3.597135,0.160428 -4.444626,0.04867 z m 7.52566,-14.962277 c -0.427721,-3.179084 -2.037852,-5.024771 -4.664673,-5.3471 -2.769427,-0.339827 -5.001359,0.774638 -6.164026,3.077867 -0.365524,0.724099 -0.793373,2.098232 -0.793373,2.548094 0,0.188615 0.565107,0.208807 5.843842,0.208807 h 5.843842 z"
   id="path218" /><path
   style="fill:#ffffff;stroke-width:0.130045"
   d="M 78.352018,27.699552 V 12.419283 h 3.186099 3.186098 v 15.280269 15.280269 h -3.186098 -3.186099 z"
   id="path257" /><path
   style="fill:#ffffff;stroke-width:0.130045"
   d="M 89.14574,27.699552 V 12.419283 h 3.186099 3.186098 V 27.699552 42.979821 H 92.331839 89.14574 Z"
   id="path296" /><path
   style="fill:#ffffff;stroke-width:0.130045"
   d="m 109.88134,42.798424 c -2.81987,-0.538805 -4.93294,-1.592808 -6.66428,-3.324142 -2.5186,-2.518604 -3.74133,-6.344622 -3.284215,-10.276584 0.633415,-5.448472 3.928645,-9.457114 8.988455,-10.934443 1.37681,-0.401991 4.58359,-0.502615 6.11939,-0.192017 2.48927,0.503424 4.46491,1.550024 6.0023,3.179749 2.10622,2.232699 3.08481,5.026353 3.08481,8.806406 v 1.738571 h -8.97309 -8.9731 v 0.318711 c 0,1.24906 0.75196,2.996213 1.75656,4.081294 1.32138,1.427249 3.04514,2.051704 5.33089,1.931189 2.63134,-0.138735 4.27852,-1.17284 5.21777,-3.275733 0.27652,-0.619106 0.44203,-0.839283 0.63425,-0.843752 0.59442,-0.01382 4.69052,0.437121 4.79359,0.527726 0.14474,0.127219 -0.35303,1.635651 -0.90327,2.737306 -0.68706,1.375572 -1.94276,2.814744 -3.24756,3.722086 -0.798,0.554915 -2.27332,1.211375 -3.45939,1.539289 -1.01947,0.281854 -1.55974,0.344183 -3.3605,0.387691 -1.46133,0.03531 -2.43819,-0.004 -3.06261,-0.123347 z m 8.00431,-14.767359 c 0,-1.285318 -0.76454,-3.124132 -1.67927,-4.038863 -2.03421,-2.034206 -5.93367,-1.972151 -8.03367,0.127847 -0.9883,0.988305 -1.86105,2.862694 -1.86105,3.996959 v 0.29779 h 5.78699 5.787 z"
   id="path335" /><path
   style="fill:#ffffff;stroke-width:0.130045"
   d="M 128.54933,31.080717 V 19.181614 h 3.1861 3.18609 l 0.006,2.308296 0.006,2.308296 0.36944,-0.79801 c 0.83383,-1.801096 2.03856,-3.075852 3.64071,-3.852308 1.01466,-0.491741 1.19484,-0.53559 2.42576,-0.590334 1.10597,-0.04919 1.47949,-0.01247 2.22007,0.218215 1.51782,0.472801 1.42582,0.183404 1.1529,3.626335 l -0.23509,2.96571 -0.63788,-0.305277 c -0.77207,-0.369498 -2.14127,-0.6738 -3.04557,-0.676871 -2.2692,-0.0077 -4.13705,1.048394 -5.05603,2.858729 -0.77573,1.528153 -0.76649,1.427598 -0.81565,8.87556 l -0.0453,6.859866 h -3.17875 -3.17875 z"
   id="path374" /><path
   style="fill:#ffffff;stroke-width:0.130045"
   d="m 159.19806,52.591167 c -3.08051,-0.32532 -6.13393,-1.907637 -7.97279,-4.131587 -0.70699,-0.855049 -1.98325,-3.170578 -1.77951,-3.228579 0.11322,-0.03223 5.96915,-0.690642 6.14261,-0.690642 0.0568,0 0.32186,0.353999 0.58892,0.786663 0.54624,0.884981 1.48015,1.689456 2.54244,2.190078 0.63394,0.298753 0.87819,0.337203 2.14865,0.338236 1.3583,10e-4 1.4788,-0.02119 2.29982,-0.425455 1.42416,-0.701254 2.39592,-2.000455 2.90753,-3.887224 0.19655,-0.72488 0.43685,-4.724271 0.28385,-4.724271 -0.0386,0 -0.25848,0.293512 -0.48868,0.652249 -0.80224,1.250178 -2.1678,2.166997 -3.96507,2.662097 -1.17511,0.32371 -4.29307,0.406618 -5.52691,0.146962 -2.95406,-0.62167 -5.00325,-2.634302 -5.88954,-5.784475 -0.27054,-0.961578 -0.28073,-1.261293 -0.32211,-9.478403 l -0.0427,-8.485426 h 3.1272 3.12719 l 0.002,7.184978 c 0.002,5.71725 0.0401,7.363673 0.18764,8.059749 0.37204,1.755556 1.01951,2.706099 2.25734,3.313961 0.66616,0.327137 0.87321,0.362837 2.10433,0.362837 1.22695,0 1.43948,-0.03634 2.09496,-0.358248 0.86308,-0.423855 1.90639,-1.480218 2.37472,-2.404429 0.18408,-0.363251 0.46456,-1.089916 0.62329,-1.614809 0.27915,-0.923056 0.2902,-1.177181 0.33711,-7.749196 l 0.0485,-6.794843 h 3.11273 3.11274 v 10.306851 c 0,11.123538 -0.054,12.272 -0.69569,14.791804 -1.37866,5.413901 -4.68605,8.429215 -9.83794,8.969154 -1.37516,0.144122 -1.46441,0.143875 -2.90284,-0.008 z"
   id="path413" /></svg>
