<?xml version="1.0" encoding="UTF-8" standalone="no"?>
<!-- Generator: Adobe Illustrator 16.0.0, SVG Export Plug-In . SVG Version: 6.00 Build 0)  -->

<svg
   version="1.1"
   id="Layer_1"
   x="0px"
   y="0px"
   width="211px"
   height="57.25px"
   viewBox="0 0 211 57.25"
   enable-background="new 0 0 211 57.25"
   xml:space="preserve"
   sodipodi:docname="choreo-white.svg"
   inkscape:version="1.1 (ce6663b3b7, 2021-05-25)"
   xmlns:inkscape="http://www.inkscape.org/namespaces/inkscape"
   xmlns:sodipodi="http://sodipodi.sourceforge.net/DTD/sodipodi-0.dtd"
   xmlns:xlink="http://www.w3.org/1999/xlink"
   xmlns="http://www.w3.org/2000/svg"
   xmlns:svg="http://www.w3.org/2000/svg"><defs
   id="defs27" /><sodipodi:namedview
   id="namedview25"
   pagecolor="#ffffff"
   bordercolor="#666666"
   borderopacity="1.0"
   inkscape:pageshadow="2"
   inkscape:pageopacity="0.0"
   inkscape:pagecheckerboard="0"
   showgrid="false"
   inkscape:zoom="6.3412322"
   inkscape:cx="105.42115"
   inkscape:cy="28.622197"
   inkscape:window-width="1848"
   inkscape:window-height="1016"
   inkscape:window-x="72"
   inkscape:window-y="27"
   inkscape:window-maximized="1"
   inkscape:current-layer="Layer_1" />
<g
   id="g22">
	<defs
   id="defs3">
		<rect
   id="SVGID_1_"
   x="-13.75"
   y="-9.657"
   width="234.272"
   height="75.907" />
	</defs>
	<clipPath
   id="SVGID_2_">
		<use
   xlink:href="#SVGID_1_"
   overflow="visible"
   id="use5" />
	</clipPath>
	<path
   clip-path="url(#SVGID_2_)"
   fill="#222228"
   d="M74.035,13.191C73.778,7.002,68.679,2.064,62.427,2.064H32.042l-0.491,0.01   C25.362,2.332,20.424,7.43,20.424,13.682l-0.001,13.404l-7.379,0.002l-0.277-0.011C11.032,26.944,9.7,25.58,9.7,23.96l0.002-9.987   c2.112-1.005,3.573-3.158,3.573-5.653c0-3.455-2.801-6.256-6.256-6.256c-3.455,0-6.256,2.801-6.256,6.256   c0,2.495,1.461,4.648,3.573,5.653l0.002,10.035l0.008,0.38c0.204,4.533,4.041,8.111,8.698,8.111l7.379-0.001l0.001,11.569   l0.01,0.49c0.258,6.189,5.356,11.127,11.608,11.127h30.385l0.491-0.01c6.189-0.257,11.127-5.355,11.127-11.607V13.682   L74.035,13.191z M68.683,44.067l-0.012,0.382c-0.196,3.276-2.917,5.874-6.244,5.874H32.042l-0.381-0.012   c-3.278-0.196-5.874-2.918-5.874-6.244V13.682l0.011-0.381c0.197-3.277,2.917-5.875,6.244-5.875h30.385   c3.455,0,6.256,2.801,6.256,6.256V44.067z"
   id="path8" />
	<path
   clip-path="url(#SVGID_2_)"
   fill="#222228"
   d="M47.831,16.363c3.137,0,5.764,0.762,7.903,2.285   c2.14,1.524,3.478,3.255,4.013,5.218c-0.775,1.098-1.418,1.717-1.927,1.854c-0.566,0.155-1.537-0.025-2.913-0.539   c-0.364-1.177-1.191-2.193-2.48-3.07c-1.288-0.877-2.796-1.315-4.523-1.315c-2.383,0-4.329,0.784-5.836,2.331   c-1.508,1.547-2.262,3.439-2.262,5.678c0,2.194,0.754,4.086,2.262,5.68c1.507,1.593,3.453,2.378,5.812,2.378   c1.726,0,3.234-0.416,4.523-1.247c1.288-0.831,2.115-1.823,2.48-3.001c1.23-0.376,2.117-0.493,2.659-0.352   c0.533,0.141,1.26,0.681,2.181,1.621c-0.536,1.916-1.849,3.625-3.964,5.148c-1.953,1.405-4.341,2.163-7.164,2.271l-0.715,0.015   v0.068c-3.77,0-6.906-1.2-9.411-3.601c-2.505-2.401-3.745-5.378-3.745-8.934c0-3.554,1.24-6.532,3.72-8.91   C40.925,17.563,44.062,16.363,47.831,16.363"
   id="path10" />
	<path
   clip-path="url(#SVGID_2_)"
   fill="#222228"
   d="M86.311,7.417v13.972c1.809-2.553,4.278-3.906,7.408-4.055l0.595-0.015v-0.045   c2.962,0,5.245,0.905,6.851,2.736c1.49,1.7,2.279,3.985,2.383,6.855l0.014,0.673v13.655h-4.815V28.419   c0-2.058-0.475-3.662-1.448-4.816c-0.971-1.153-2.396-1.741-4.272-1.741c-2.035,0-3.663,0.701-4.884,2.126   c-1.119,1.305-1.726,2.99-1.818,5.074l-0.013,0.578v11.575h-4.861V7.417H86.311z"
   id="path12" />
	<path
   clip-path="url(#SVGID_2_)"
   fill="#222228"
   d="M151.928,17.616l0.609,0.065v4.522c-2.555-0.385-4.521,0.112-5.9,1.492   c-1.287,1.287-1.964,3.401-2.048,6.361l-0.01,0.647v10.513h-4.86V17.929h4.86l-0.002,3.691l0.2-0.383   c0.691-1.237,1.658-2.182,2.899-2.833C148.902,17.762,150.324,17.493,151.928,17.616"
   id="path14" />
	<path
   clip-path="url(#SVGID_2_)"
   fill="#222228"
   d="M130.303,20.823c-2.352-2.329-5.313-3.482-8.862-3.482   c-3.55,0-6.489,1.176-8.84,3.505c-2.353,2.328-3.527,5.245-3.527,8.727c0,3.503,1.175,6.42,3.527,8.749   c2.351,2.328,5.29,3.503,8.84,3.503h0.021l0.659-0.013c3.255-0.139,5.977-1.309,8.182-3.49c2.351-2.329,3.526-5.246,3.526-8.749   C133.829,26.068,132.653,23.152,130.303,20.823 M126.934,35.18c-1.446,1.491-3.278,2.237-5.493,2.237   c-2.216,0-4.047-0.746-5.472-2.237c-1.425-1.492-2.147-3.347-2.147-5.562c0-2.26,0.723-4.137,2.147-5.628   c1.425-1.493,3.256-2.239,5.472-2.239c2.215,0,4.047,0.746,5.493,2.239c1.446,1.491,2.171,3.368,2.171,5.628   C129.104,31.833,128.38,33.688,126.934,35.18"
   id="path16" />
	<path
   clip-path="url(#SVGID_2_)"
   fill="#222228"
   d="M206.213,20.823c-2.351-2.329-5.312-3.482-8.862-3.482   c-3.549,0-6.488,1.176-8.839,3.505c-2.353,2.328-3.527,5.245-3.527,8.727c0,3.503,1.175,6.42,3.527,8.749   c2.351,2.328,5.29,3.503,8.839,3.503h0.021l0.66-0.013c3.255-0.139,5.977-1.309,8.181-3.49c2.352-2.329,3.527-5.246,3.527-8.749   C209.74,26.068,208.564,23.152,206.213,20.823 M202.845,35.18c-1.447,1.491-3.278,2.237-5.494,2.237   c-2.215,0-4.047-0.746-5.472-2.237c-1.425-1.492-2.146-3.347-2.146-5.562c0-2.26,0.722-4.137,2.146-5.628   c1.425-1.493,3.257-2.239,5.472-2.239c2.216,0,4.047,0.746,5.494,2.239c1.446,1.491,2.17,3.368,2.17,5.628   C205.015,31.833,204.291,33.688,202.845,35.18"
   id="path18" />
	<path
   clip-path="url(#SVGID_2_)"
   fill="#222228"
   d="M177.033,20.71c-2.125-2.238-5.019-3.347-8.705-3.347   c-3.548,0-6.442,1.176-8.658,3.505c-2.216,2.328-3.322,5.245-3.322,8.749c0,3.641,1.151,6.603,3.459,8.863   c2.306,2.26,5.29,3.392,8.975,3.392l-0.045-0.047l0.687-0.013c2.483-0.1,4.605-0.749,6.366-1.931   c1.922-1.288,3.302-2.85,4.139-4.681l-4.433-1.311l-0.209,0.407c-1.237,2.236-3.382,3.346-6.415,3.346   c-2.282,0-4.113-0.611-5.471-1.809c-1.357-1.198-2.102-2.78-2.261-4.747h18.923l0.073-0.518c0.06-0.507,0.085-0.986,0.085-1.427   C180.221,25.751,179.158,22.949,177.033,20.71 M161.14,27.876l0.07-0.521c0.266-1.538,0.988-2.856,2.167-3.955   c1.312-1.221,2.963-1.832,4.975-1.832c2.08,0,3.753,0.588,4.997,1.764c1.243,1.176,1.943,2.69,2.103,4.544H161.14z"
   id="path20" />
</g>
<path
   style="fill:#ffffff;stroke-width:0.157698"
   d="m 29.655473,55.328035 c -4.037189,-0.86524 -7.152828,-3.678126 -8.620847,-7.783137 -0.35664,-0.99727 -0.368376,-1.206959 -0.450034,-8.041535 L 20.500742,32.4858 15.84865,32.3995 C 11.346034,32.315968 11.162722,32.30026 10.143342,31.910632 7.3941962,30.859851 5.3488954,28.638615 4.6428039,25.936945 4.5269787,25.493771 4.4293021,23.121998 4.3799582,19.554559 L 4.3014339,13.877429 3.4973558,13.325486 C 1.0565142,11.650019 0.17835904,8.3340673 1.4769342,5.6962864 2.1201145,4.3898019 3.5055729,3.0798618 4.764913,2.5875283 c 1.2744085,-0.4982244 3.2308926,-0.4982244 4.505301,0 1.25934,0.4923335 2.644799,1.8022736 3.287979,3.1087581 1.301864,2.6444618 0.414945,5.9738556 -2.032347,7.6291996 l -0.8160035,0.551943 -0.00571,5.505577 -0.00571,5.505576 0.3984365,0.679881 c 0.245942,0.419669 0.683523,0.847464 1.143311,1.117741 l 0.744874,0.437862 h 4.257848 4.257847 l 0.08294,-7.963752 0.08294,-7.963752 0.431667,-1.177085 C 22.297324,6.7499461 24.699874,4.2374748 27.840333,2.9689868 29.963661,2.1113375 29.859875,2.1155105 47.87314,2.1635164 l 16.625365,0.044307 1.103887,0.3728975 c 3.341532,1.1287836 5.790398,3.2091861 7.171754,6.092672 1.257314,2.6245551 1.186243,1.4151961 1.186243,20.1853511 0,15.336084 -0.02253,16.803605 -0.272971,17.777299 -0.761106,2.959177 -2.612085,5.561487 -5.077609,7.138663 -1.179952,0.754808 -2.119592,1.144516 -3.63821,1.508921 -1.20413,0.288941 -2.012071,0.302192 -17.741031,0.290977 -13.966855,-0.01 -16.646498,-0.04755 -17.575095,-0.246569 z m 35.438383,-5.528452 c 1.972619,-0.934383 3.263098,-2.694839 3.579466,-4.883059 0.201464,-1.393469 0.205384,-30.471555 0.0043,-32.019292 C 68.338357,10.285577 66.544948,8.2321525 64.031703,7.5777072 63.212399,7.3643613 61.056777,7.3329596 47.230568,7.3329596 c -17.204205,0 -16.881139,-0.015117 -18.371824,0.8596636 -1.001923,0.58796 -1.970177,1.6583084 -2.503425,2.7673918 l -0.492838,1.025037 v 16.952541 16.952542 l 0.473094,0.936242 c 0.839918,1.662177 2.458909,2.987717 4.138931,3.388726 0.332921,0.07947 7.804139,0.130208 17.071458,0.115943 l 16.479447,-0.02537 z"
   id="path103" /><path
   style="fill:#ffffff;stroke-width:0.157698"
   d="m 44.756027,40.992266 c -4.60194,-1.009106 -8.352133,-4.49061 -9.538933,-8.855496 -0.48738,-1.792521 -0.485197,-4.85158 0.0047,-6.580761 1.025749,-3.620589 3.896592,-6.807272 7.334473,-8.141382 3.494642,-1.356139 8.445472,-1.205018 11.506154,0.351217 2.437188,1.239212 4.553661,3.393554 5.362551,5.458498 l 0.263835,0.67352 -0.836884,0.864036 c -0.770593,0.795593 -0.893248,0.864036 -1.548404,0.864036 -0.391334,0 -1.061477,-0.104585 -1.489206,-0.232412 -0.704892,-0.210657 -0.820516,-0.314797 -1.235214,-1.112526 -1.093832,-2.104138 -3.785169,-3.543702 -6.625125,-3.543702 -2.931406,0 -5.329398,1.208242 -6.830628,3.441651 -0.917306,1.364695 -1.325305,2.74771 -1.336393,4.530038 -0.01534,2.466461 0.699557,4.243584 2.380001,5.916287 1.238065,1.232363 2.330086,1.804005 4.119798,2.156597 3.301886,0.650508 6.968162,-0.813709 8.31084,-3.319136 0.43339,-0.808705 0.452617,-0.822051 1.496157,-1.038528 0.893432,-0.185336 1.137621,-0.186093 1.576981,-0.0049 0.63136,0.260402 1.860289,1.362328 1.860289,1.66804 0,0.528386 -1.031909,2.189299 -1.993489,3.208624 -2.561106,2.714908 -5.761417,3.964965 -10.051644,3.926221 -0.964396,-0.0087 -2.192831,-0.112181 -2.729856,-0.229941 z"
   id="path142" /><path
   style="fill:#ffffff;stroke-width:0.157698"
   d="M 81.451046,24.285501 V 7.4906577 h 2.365471 2.365471 v 7.0250573 7.025058 l 1.22216,-1.239026 c 2.034705,-2.062783 4.035473,-2.867719 7.142129,-2.873373 3.64231,-0.0066 6.335793,1.595089 7.799383,4.638008 1.03812,2.158343 1.0675,2.445982 1.14064,11.168483 l 0.0658,7.845479 h -2.37713 -2.377137 v -6.91719 c 0,-3.967233 -0.06761,-7.279448 -0.158531,-7.76663 -0.401463,-2.151115 -1.771625,-3.809357 -3.582571,-4.335813 -1.377262,-0.400381 -3.627807,-0.251388 -4.896426,0.324157 -1.326007,0.601582 -2.670949,2.028067 -3.230891,3.426778 -0.636005,1.588711 -0.747426,2.984992 -0.747426,9.366432 v 5.902266 h -2.365471 -2.365471 z"
   id="path181" /><path
   style="fill:#ffffff;stroke-width:0.157698"
   d="m 118.58894,41.459652 c -3.85387,-0.855632 -7.09049,-3.570973 -8.54304,-7.167123 -0.67615,-1.673968 -0.87755,-3.00885 -0.79603,-5.276087 0.12563,-3.494083 1.04934,-5.624563 3.49392,-8.058538 1.20943,-1.204181 1.68169,-1.553211 2.93367,-2.168182 2.15514,-1.058598 3.12065,-1.273091 5.75004,-1.277396 2.5647,-0.0042 3.70731,0.233439 5.67713,1.18072 3.0815,1.481878 5.33691,4.245336 6.24497,7.651679 0.25543,0.958174 0.33388,1.715577 0.33388,3.223661 0,2.286333 -0.3272,3.786872 -1.21953,5.592802 -1.43357,2.901329 -4.39793,5.31852 -7.56709,6.170342 -1.37354,0.369187 -4.89956,0.440805 -6.30792,0.128122 z m 5.05263,-4.251111 c 2.34164,-0.609758 4.36765,-2.573445 5.15768,-4.999007 0.4616,-1.417212 0.44935,-3.920993 -0.0259,-5.304128 -1.54275,-4.489434 -6.46051,-6.494364 -10.86921,-4.431284 -3.73775,1.749102 -5.28422,7.037371 -3.23853,11.074353 0.22877,0.451455 0.8503,1.252862 1.38117,1.780905 1.49977,1.491762 2.99378,2.085574 5.30822,2.109807 0.75613,0.0079 1.75891,-0.09323 2.28662,-0.230646 z"
   id="path220" /><path
   style="fill:#ffffff;stroke-width:0.157698"
   d="M 139.79933,29.568386 V 18.056428 h 2.36046 2.36047 l 0.0444,1.852952 0.0444,1.852952 0.42039,-0.715067 c 0.60838,-1.034822 1.87425,-2.148582 3.0926,-2.720977 0.9262,-0.435145 1.26462,-0.505893 2.67666,-0.559576 l 1.6164,-0.06145 -3.7e-4,2.186235 -3.7e-4,2.186234 -1.61604,0.0051 c -1.43823,0.0045 -1.72518,0.05493 -2.60818,0.458142 -1.25621,0.573635 -2.39899,1.783679 -2.87677,3.046086 -0.67968,1.795863 -0.77184,2.907784 -0.77767,9.382507 l -0.006,6.1108 h -2.36547 -2.36547 z"
   id="path259" /><path
   style="fill:#ffffff;stroke-width:0.157698"
   d="m 167.31226,41.684851 c -3.27477,-0.271744 -5.7659,-1.482676 -7.94708,-3.863046 -1.13919,-1.243223 -2.07121,-3.022556 -2.54722,-4.862911 -0.42713,-1.651396 -0.45886,-4.675155 -0.067,-6.386771 0.79505,-3.472897 3.12129,-6.463424 6.15115,-7.907689 2.01834,-0.962097 2.97312,-1.15659 5.59828,-1.1404 2.0064,0.01237 2.46014,0.06638 3.70245,0.440677 3.05481,0.920389 5.13591,2.641604 6.63174,5.484914 0.95511,1.815489 1.5073,4.718932 1.26552,6.654091 l -0.11044,0.883952 h -9.45054 -9.45053 l 0.004,0.354821 c 0.0201,1.850594 1.34403,4.033199 3.15011,5.193224 2.58196,1.65837 7.15475,1.532133 9.50497,-0.262397 0.59898,-0.45735 1.55859,-1.65384 1.72371,-2.149191 0.0589,-0.176747 4.11022,1.011412 4.1819,1.226459 0.0861,0.258266 -1.12766,1.981859 -2.02174,2.870978 -2.65272,2.638011 -6.14399,3.809745 -10.31911,3.463289 z m 8.18752,-14.205965 c -0.4797,-2.75846 -2.06502,-4.785252 -4.37283,-5.590546 -1.25804,-0.438984 -4.44636,-0.391558 -5.64689,0.084 -2.24523,0.889375 -3.95097,3.012065 -4.3312,5.389908 l -0.10061,0.62916 h 7.27033 7.27032 z"
   id="path298" /><path
   style="fill:#ffffff;stroke-width:0.157698"
   d="m 194.84781,41.549138 c -2.50886,-0.526242 -4.42967,-1.56426 -6.25437,-3.379891 -1.21173,-1.205709 -1.54616,-1.656678 -2.16818,-2.923731 -1.05603,-2.151111 -1.27724,-3.133803 -1.27799,-5.67713 -5.1e-4,-1.732063 0.0651,-2.358495 0.35172,-3.360438 1.17507,-4.107155 4.23121,-7.163645 8.34199,-8.342954 1.79144,-0.513932 5.25784,-0.509966 7.06634,0.0081 2.09677,0.600623 3.58875,1.487316 5.21748,3.100764 1.21632,1.204915 1.54368,1.645559 2.16742,2.917414 0.88131,1.797087 1.18622,2.915452 1.31484,4.822586 0.39177,5.809237 -2.98553,10.762515 -8.54204,12.528076 -0.87126,0.276839 -1.56914,0.361589 -3.31166,0.402168 -1.21427,0.02828 -2.52177,-0.01445 -2.90555,-0.09495 z m 4.63472,-4.337586 c 3.24571,-0.845399 5.35042,-3.531887 5.55559,-7.091223 0.27775,-4.818609 -3.01305,-8.432184 -7.679,-8.432184 -1.21515,0 -2.74967,0.33622 -3.66441,0.802886 -0.83877,0.427906 -2.40615,1.9182 -2.89567,2.753259 -2.27962,3.888709 -0.97615,9.304831 2.71942,11.2996 1.64676,0.88888 4.07228,1.160411 5.96407,0.667662 z"
   id="path337" /></svg>
