<?xml version="1.0" encoding="UTF-8" standalone="no"?>
<!-- Generator: Adobe Illustrator 23.0.3, SVG Export Plug-In . SVG Version: 6.00 Build 0)  -->

<svg
   version="1.1"
   id="siddhi-logo"
   x="0px"
   y="0px"
   viewBox="0 0 200 56.192"
   enable-background="new 0 0 200 56.192"
   xml:space="preserve"
   sodipodi:docname="siddhi-white.svg"
   inkscape:version="1.1 (ce6663b3b7, 2021-05-25)"
   xmlns:inkscape="http://www.inkscape.org/namespaces/inkscape"
   xmlns:sodipodi="http://sodipodi.sourceforge.net/DTD/sodipodi-0.dtd"
   xmlns="http://www.w3.org/2000/svg"
   xmlns:svg="http://www.w3.org/2000/svg"><defs
   id="defs41" /><sodipodi:namedview
   id="namedview39"
   pagecolor="#ffffff"
   bordercolor="#666666"
   borderopacity="1.0"
   inkscape:pageshadow="2"
   inkscape:pageopacity="0.0"
   inkscape:pagecheckerboard="0"
   showgrid="false"
   inkscape:zoom="6.69"
   inkscape:cx="99.925262"
   inkscape:cy="28.026906"
   inkscape:window-width="1848"
   inkscape:window-height="1016"
   inkscape:window-x="72"
   inkscape:window-y="27"
   inkscape:window-maximized="1"
   inkscape:current-layer="siddhi-logo" />
<g
   id="g36">
	<g
   id="g4">
		<path
   fill="#00AAAC"
   d="M25.497,55.138H9.93c-2.702,0-4.892-2.19-4.892-4.892s2.19-4.892,4.892-4.892h15.567    c2.702,0,4.892,2.19,4.892,4.892S28.199,55.138,25.497,55.138z"
   id="path2" />
	</g>
	<path
   fill="#4D4D4D"
   d="M44.153,25.551c0.163,0.647,0.259,1.321,0.259,2.018c0,2.628-1.232,4.969-3.144,6.49   c1.195,1.269,1.933,2.972,1.933,4.848c0,3.906-3.178,7.084-7.084,7.084V54.5c8.598,0,15.592-6.995,15.592-15.592   C51.709,33.248,48.677,28.284,44.153,25.551z"
   id="path6" />
	<path
   fill="#00AAAC"
   d="M36.116,32.461H22.251c-2.702,0-4.892-2.19-4.892-4.892s2.19-4.892,4.892-4.892h13.865   c2.702,0,4.892,2.19,4.892,4.892S38.818,32.461,36.116,32.461z"
   id="path8" />
	<path
   fill="#4D4D4D"
   d="M15.592,9.146h3.8c-0.748-1.246-1.187-2.698-1.187-4.254s0.439-3.008,1.187-4.254h-3.8   C6.995,0.638,0,7.633,0,16.231c0,5.404,2.736,10.346,7.32,13.219l4.518-7.209c-2.085-1.307-3.33-3.553-3.33-6.009   C8.508,12.324,11.686,9.146,15.592,9.146z"
   id="path10" />
	<path
   fill="#00AAAC"
   d="M42.068,9.785H26.501c-2.702,0-4.892-2.19-4.892-4.892S23.799,0,26.501,0h15.567   c2.702,0,4.892,2.19,4.892,4.892S44.77,9.785,42.068,9.785z"
   id="path12" />
	<g
   id="g16">
		<polygon
   fill="#4D4D4D"
   points="33.094,55.138 47.213,55.138 33.094,41.018   "
   id="polygon14" />
	</g>
	<g
   id="g20">
		<polygon
   fill="#4D4D4D"
   points="14.849,32.461 0.73,32.461 14.849,18.342   "
   id="polygon18" />
	</g>
	<path
   fill="#4D4D4D"
   d="M68.483,12.055c0.013,2.715-1.994,4.871-5.242,4.871c-3.087,0-5.087-2.156-5.075-4.871   c-0.012-2.787,2.034-4.883,5.162-4.883C66.478,7.172,68.445,9.258,68.483,12.055z"
   id="path22" />
	<rect
   x="58.442"
   y="24.119"
   fill="#4D4D4D"
   width="9.766"
   height="31.368"
   id="rect24" />
	<path
   fill="#4D4D4D"
   d="M106.378,0.638v45.479c0,3.56,0.122,7.27,0.256,9.37h-8.669l-0.41-4.593h-0.135   c-1.975,3.516-5.774,5.298-9.819,5.298c-7.402,0-13.388-6.357-13.388-16.106c-0.048-10.532,6.567-16.672,14.035-16.672   c3.876,0,6.845,1.379,8.248,3.546h0.129V0.638H106.378z M96.625,37.433c0-0.546-0.021-1.209-0.128-1.768   c-0.556-2.617-2.682-4.767-5.653-4.767c-4.47,0-6.731,3.962-6.731,8.905c0,5.279,2.6,8.614,6.663,8.614   c2.773,0,5.049-1.922,5.643-4.674c0.161-0.671,0.207-1.424,0.207-2.206V37.433z"
   id="path26" />
	<path
   fill="#4D4D4D"
   d="M144.576,0.638v45.479c0,3.56,0.122,7.27,0.257,9.37h-8.669l-0.41-4.593h-0.135   c-1.975,3.516-5.774,5.298-9.819,5.298c-7.402,0-13.388-6.357-13.388-16.106c-0.048-10.532,6.567-16.672,14.035-16.672   c3.876,0,6.845,1.379,8.248,3.546h0.129V0.638H144.576z M134.824,37.433c0-0.546-0.021-1.209-0.128-1.768   c-0.556-2.617-2.682-4.767-5.653-4.767c-4.47,0-6.731,3.962-6.731,8.905c0,5.279,2.6,8.614,6.663,8.614   c2.773,0,5.049-1.922,5.643-4.674c0.161-0.671,0.207-1.424,0.207-2.206V37.433z"
   id="path28" />
	<path
   fill="#4D4D4D"
   d="M152.401,0.638h9.766v27.258h0.128c1.02-1.372,2.271-2.416,3.819-3.237   c1.447-0.786,3.267-1.245,5.075-1.245c6.227,0,10.99,4.314,10.99,13.773v18.301h-9.767V38.256c0-4.129-1.421-6.951-5.038-6.951   c-2.602,0-4.198,1.662-4.892,3.444c-0.245,0.585-0.316,1.424-0.316,2.131v18.607h-9.766V0.638z"
   id="path30" />
	<path
   fill="#4D4D4D"
   d="M200,12.055c0.013,2.715-1.994,4.871-5.242,4.871c-3.087,0-5.087-2.156-5.075-4.871   c-0.012-2.787,2.034-4.883,5.162-4.883C197.995,7.172,199.962,9.258,200,12.055z"
   id="path32" />
	<rect
   x="189.959"
   y="24.119"
   fill="#4D4D4D"
   width="9.766"
   height="31.368"
   id="rect34" />
</g>
<path
   style="fill:#ffffff;stroke-width:0.149477"
   d="M 3.1305598,30.128049 5.3605206,27.894365 4.3120584,26.790607 C 3.0533592,25.465523 2.5339146,24.730395 1.7466064,23.159925 -0.75612501,18.167646 -0.36708051,12.214938 2.7680607,7.5308172 3.7172709,6.1126308 6.0746006,3.868138 7.5207085,3.0056616 8.8824608,2.1934961 10.897261,1.3876556 12.440116,1.0380932 c 1.044229,-0.2365894 6.767657,-0.49492379 6.767657,-0.30546703 0,0.0557734 -0.129375,0.35500313 -0.287501,0.66495493 -0.992242,1.9449537 -0.998093,4.7774735 -0.01445,7.0011349 l 0.285145,0.6446323 -2.12164,0.00221 c -3.352324,0.00349 -4.989258,0.5577737 -6.583599,2.2292737 -2.4883011,2.608724 -2.7140827,6.542105 -0.5374723,9.363396 0.3353583,0.434688 0.7820063,0.903211 0.9925503,1.041165 l 0.382807,0.250825 1.69993,-1.695106 1.699929,-1.695108 v 6.910865 6.910866 H 7.8120333 0.90059894 Z"
   id="path117" /><path
   style="fill:#ffffff;stroke-width:0.149477"
   d="m 33.109118,48.095922 v -6.98629 l 2.382829,2.379338 2.382829,2.379338 0.634994,-0.209567 c 1.503123,-0.496076 3.209154,-1.991183 3.9609,-3.4712 1.183838,-2.330708 0.997224,-5.265524 -0.46416,-7.299663 l -0.537086,-0.747586 0.745673,-0.836626 c 1.576648,-1.76896 2.339242,-3.907483 2.213802,-6.208112 -0.0513,-0.940957 -0.02431,-1.277634 0.09676,-1.206796 1.222703,0.715412 3.536685,3.002263 4.479168,4.426651 0.864212,1.306098 1.717425,3.233292 2.149692,4.855621 0.336739,1.263803 0.386562,1.749414 0.386562,3.767684 0,2.030642 -0.0488,2.50025 -0.39501,3.80099 -0.946127,3.554707 -3.331836,6.975931 -6.18595,8.870955 l -0.805944,0.535117 1.462709,1.468218 1.462709,1.468218 H 40.094357 33.10912 Z"
   id="path156" /><path
   style="fill:#ffffff;stroke-width:0.149477"
   d="M 58.520179,39.760837 V 24.140508 h 4.783259 4.783259 v 15.620329 15.620329 h -4.783259 -4.783259 z"
   id="path195" /><path
   style="fill:#ffffff;stroke-width:0.149477"
   d="m 61.390876,16.533 c -3.143806,-1.085887 -4.153102,-5.022779 -1.967462,-7.6743401 1.426957,-1.731146 4.94233,-2.1041461 6.939945,-0.7363658 2.486263,1.7023606 2.707567,5.4820679 0.43795,7.4798649 -1.281844,1.128324 -3.656087,1.536802 -5.410433,0.930841 z"
   id="path234" /><path
   style="fill:#ffffff;stroke-width:0.149477"
   d="M 85.599987,55.971233 C 79.9228,54.954251 75.717372,50.249321 74.594712,43.6588 c -0.330056,-1.937576 -0.328694,-5.417458 0.0029,-7.365807 1.054055,-6.193639 4.820802,-10.782147 10.107786,-12.312923 1.56112,-0.452001 4.57203,-0.560477 6.263438,-0.225656 1.822351,0.360743 3.535611,1.219374 4.64332,2.327082 0.494489,0.494489 0.927323,0.899072 0.961852,0.899072 0.03453,0 0.06278,-5.919282 0.06278,-13.153961 V 0.67264574 h 4.858002 4.858 V 25.985335 c 0,13.921979 0.0441,26.231396 0.0979,27.35426 l 0.0979,2.041571 H 102.2831 98.017619 L 97.82767,53.139013 c -0.119776,-1.413831 -0.250592,-2.242053 -0.354102,-2.241884 -0.09029,1.46e-4 -0.354423,0.301438 -0.586973,0.669535 -0.232552,0.368098 -0.902221,1.113121 -1.488157,1.655608 -1.203336,1.114105 -3.130677,2.14361 -4.740743,2.532306 -1.198927,0.28944 -3.98513,0.408793 -5.057711,0.216655 z m 7.336733,-7.911789 c 1.662687,-0.624629 3.134582,-2.424289 3.547509,-4.337471 0.119213,-0.552347 0.161092,-2.072904 0.127622,-4.633782 l -0.04982,-3.811659 -0.473023,-0.998447 c -0.632727,-1.335548 -1.510149,-2.255347 -2.719263,-2.850592 -0.93269,-0.459161 -1.077251,-0.485789 -2.637311,-0.485789 -1.56256,0 -1.703517,0.02608 -2.644652,0.489404 -1.708778,0.84123 -2.987557,2.5632 -3.632746,4.891762 -0.383608,1.384487 -0.467358,4.526916 -0.161667,6.065979 0.631635,3.18009 2.543459,5.432689 5.066397,5.969463 0.947761,0.201645 2.615597,0.06229 3.576952,-0.298868 z"
   id="path273" /><path
   style="fill:#ffffff;stroke-width:0.149477"
   d="m 123.61734,55.914152 c -2.70588,-0.537943 -4.84141,-1.708865 -6.74742,-3.699645 -2.98366,-3.116359 -4.55279,-7.801769 -4.3459,-12.976839 0.30646,-7.665811 3.9711,-13.163838 10.12172,-15.185533 1.17686,-0.38683 1.45244,-0.418261 3.73692,-0.426211 1.90772,-0.0066 2.68644,0.05101 3.43797,0.254524 1.60425,0.434429 3.02158,1.215525 4.00287,2.205991 0.48722,0.49177 0.92938,0.894129 0.98259,0.894129 0.0532,0 0.0967,-5.919282 0.0967,-13.153961 V 0.67264574 h 4.77244 4.77244 l 0.0763,26.64424526 c 0.042,14.654335 0.12087,26.963752 0.17534,27.35426 l 0.099,0.710015 h -4.27514 c -2.35133,0 -4.27791,-0.01682 -4.28129,-0.03737 -0.003,-0.02055 -0.0951,-0.997923 -0.20382,-2.171932 -0.10872,-1.174008 -0.24783,-2.182977 -0.30914,-2.242152 -0.0613,-0.05917 -0.22183,0.05887 -0.35672,0.262315 -1.00085,1.509594 -2.5861,2.9278 -4.1582,3.72002 -1.97416,0.994834 -5.37608,1.443587 -7.59676,1.002104 z m 6.85163,-7.633086 c 1.00848,-0.262676 2.2487,-1.015638 2.85607,-1.733972 0.57828,-0.68394 1.23864,-2.123873 1.42523,-3.107755 0.19448,-1.025499 0.19927,-6.754677 0.006,-7.771173 -0.33995,-1.792529 -1.6384,-3.511434 -3.25002,-4.302413 -0.78991,-0.387684 -1.005,-0.424049 -2.50824,-0.424049 -1.54074,0 -1.708,0.0302 -2.657,0.479713 -1.83067,0.867148 -3.03959,2.511425 -3.71358,5.05093 -0.45281,1.706146 -0.45632,4.892541 -0.007,6.54917 0.4047,1.492837 1.10588,2.804649 1.97732,3.699329 1.47513,1.514454 3.73793,2.1158 5.87094,1.56022 z"
   id="path390" /><path
   style="fill:#ffffff;stroke-width:0.149477"
   d="M 152.54111,28.026906 V 0.67264574 h 4.78325 4.78326 V 14.349776 c 0,7.522421 0.0359,13.67713 0.0799,13.67713 0.0439,0 0.49585,-0.444707 1.0043,-0.988238 2.18972,-2.340822 4.88336,-3.496067 8.15163,-3.496067 2.94879,0 5.06755,0.85114 7.06581,2.838447 1.37853,1.370971 2.17795,2.693517 2.82552,4.674478 0.77982,2.385525 0.79295,2.596646 0.85995,13.824893 l 0.0627,10.500747 h -4.86791 -4.86792 l -0.003,-9.45441 c -0.003,-10.195204 -0.0342,-10.67614 -0.79456,-12.164584 -0.8582,-1.679978 -2.18604,-2.46533 -4.16959,-2.466091 -1.89701,-7.48e-4 -3.29514,0.659158 -4.26848,2.014631 -1.06701,1.485916 -0.99932,0.713295 -1.04628,11.943399 l -0.0423,10.127055 h -4.77829 -4.77828 z"
   id="path429" /><path
   style="fill:#ffffff;stroke-width:0.149477"
   d="M 190.05979,39.760837 V 24.140508 h 4.78326 4.78326 v 15.620329 15.620329 h -4.78326 -4.78326 z"
   id="path468" /><path
   style="fill:#ffffff;stroke-width:0.149477"
   d="m 192.94954,16.539452 c -2.07551,-0.717246 -3.32902,-2.670526 -3.14944,-4.907636 0.1444,-1.7989886 1.08782,-3.1212509 2.79398,-3.9159441 0.70655,-0.3291002 1.03898,-0.3865039 2.25159,-0.3888062 1.30968,-0.00249 1.50215,0.036413 2.42368,0.4898457 1.55822,0.7667098 2.4424,2.0645366 2.60694,3.8265186 0.21418,2.293621 -1.13875,4.2664 -3.38295,4.932857 -1.05516,0.313346 -2.57622,0.297536 -3.5438,-0.03683 z"
   id="path507" /></svg>
